<svg width="859" height="466" viewBox="0 0 859 466" fill="none" xmlns="http://www.w3.org/2000/svg">
<g id="bg-pattern" clip-path="url(#clip0)">
<path id="Rectangle 3.8" d="M478.245 454.917C482.672 459.137 489.85 459.137 494.278 454.917L840.284 125.177C844.711 120.958 844.711 114.117 840.284 109.898V109.898C835.856 105.678 828.678 105.678 824.251 109.898L478.245 439.638C473.817 443.857 473.817 450.698 478.245 454.917V454.917Z" fill="#002B49"/>
<path id="Rectangle 3.9" d="M485.114 420.454C491.511 426.55 501.883 426.55 508.28 420.454L847.153 97.5107C853.55 91.4145 853.55 81.5305 847.153 75.4343L844.073 72.4993C837.676 66.403 827.305 66.403 820.908 72.4993L482.034 395.443C475.637 401.539 475.637 411.423 482.034 417.519L485.114 420.454Z" fill="#1CC886"/>
<path id="Rectangle 3.10" d="M498.652 322.606C505.049 328.702 515.421 328.702 521.818 322.606L606.129 242.259C612.525 236.162 612.525 226.278 606.129 220.182L605.511 219.594C599.114 213.497 588.742 213.497 582.345 219.594L498.034 299.941C491.638 306.037 491.638 315.921 498.034 322.018L498.652 322.606Z" fill="#002B49"/>
<path id="Rectangle 3.24" d="M10.1178 117.643C15.7057 122.968 24.7655 122.968 30.3534 117.643L89.532 61.2459C95.1199 55.9207 95.1199 47.2868 89.532 41.9616V41.9616C83.9441 36.6364 74.8844 36.6364 69.2965 41.9616L10.1178 98.3583C4.52993 103.684 4.52994 112.317 10.1178 117.643V117.643Z" fill="#002B49"/>
<path id="Rectangle 3.15" d="M185.652 454.559C192.049 460.656 202.421 460.656 208.818 454.559L502.16 175.006C508.557 168.91 508.557 159.026 502.16 152.93L501.543 152.341C495.146 146.245 484.774 146.245 478.377 152.341L185.034 431.894C178.638 437.99 178.638 447.874 185.034 453.971L185.652 454.559Z" fill="#117A52"/>
<path id="Rectangle 3.16" d="M215.652 340.2C222.049 346.297 232.42 346.297 238.817 340.2L546.721 46.7708C553.118 40.6746 553.118 30.7906 546.721 24.6944L546.104 24.1057C539.707 18.0095 529.335 18.0095 522.938 24.1057L215.034 317.535C208.637 323.632 208.637 333.516 215.034 339.612L215.652 340.2Z" fill="#002B49"/>
<path id="Rectangle 3.19" d="M130.652 357.354C137.049 363.45 147.421 363.45 153.818 357.354L411.527 111.759C417.924 105.663 417.924 95.7791 411.527 89.6829L403.264 81.808C396.867 75.7117 386.496 75.7117 380.099 81.808L122.389 327.403C115.992 333.499 115.992 343.383 122.389 349.479L130.652 357.354Z" fill="#002B49"/>
<path id="Rectangle 3.20" d="M199.442 249.803C205.839 255.899 216.21 255.899 222.607 249.803L411.049 70.2201C417.446 64.1239 417.446 54.2399 411.049 48.1437L398.641 36.3195C392.244 30.2232 381.873 30.2233 375.476 36.3195L187.035 215.903C180.638 221.999 180.638 231.883 187.034 237.979L199.442 249.803Z" fill="#1CC886"/>
<path id="Rectangle 3.17" d="M329.652 271.585C336.049 277.681 346.42 277.681 352.817 271.585L444.472 184.239C450.869 178.143 450.869 168.259 444.472 162.162L443.854 161.574C437.457 155.477 427.086 155.477 420.689 161.574L329.034 248.92C322.637 255.016 322.637 264.9 329.034 270.996L329.652 271.585Z" fill="#1CC886"/>
<path id="Rectangle 3.12" d="M387.967 421.505C392.67 425.987 400.295 425.987 404.998 421.505L458.883 370.153C463.586 365.671 463.586 358.404 458.883 353.922V353.922C454.18 349.44 446.555 349.44 441.852 353.922L387.967 405.274C383.264 409.756 383.264 417.023 387.967 421.505V421.505Z" fill="#1CC886"/>
<path id="Rectangle 3.13" d="M349.967 385.055C354.67 389.537 362.295 389.537 366.998 385.055L441.209 314.333C445.912 309.851 445.912 302.584 441.209 298.103V298.103C436.506 293.621 428.881 293.621 424.178 298.103L349.967 368.825C345.264 373.307 345.264 380.573 349.967 385.055V385.055Z" fill="#1CC886"/>
<path id="Rectangle 3.21" d="M118.151 205.113C120.543 207.394 124.423 207.394 126.816 205.113L192.757 142.272C195.15 139.992 195.15 136.294 192.757 134.014V134.014C190.364 131.734 186.484 131.734 184.092 134.014L118.151 196.855C115.758 199.136 115.758 202.833 118.151 205.113V205.113Z" fill="#1CC886"/>
<path id="Rectangle 3.23" d="M132.785 65.9759C135.178 68.2562 139.057 68.2562 141.45 65.9759L183.448 25.9523C185.841 23.6719 185.841 19.9747 183.448 17.6943V17.6943C181.055 15.4139 177.176 15.4139 174.783 17.6943L132.785 57.7179C130.392 59.9983 130.392 63.6955 132.785 65.9759V65.9759Z" fill="#1CC886"/>
<path id="Rectangle 3.22" d="M99.3977 153.102C105.422 158.844 115.191 158.844 121.215 153.102L249.144 31.188C255.168 25.4465 255.168 16.1376 249.143 10.396V10.396C243.119 4.65446 233.351 4.65447 227.326 10.396L99.3977 132.31C93.3729 138.052 93.3729 147.361 99.3977 153.102V153.102Z" fill="#1CC886"/>
<path id="Rectangle 3.18" d="M323.967 336.452C328.67 340.934 336.295 340.934 340.998 336.452L415.209 265.73C419.912 261.248 419.912 253.982 415.209 249.5V249.5C410.506 245.018 402.881 245.018 398.178 249.5L323.967 320.222C319.264 324.704 319.264 331.97 323.967 336.452V336.452Z" fill="#002B49"/>
<g id="Rectangle 3.11" style="mix-blend-mode:overlay">
<path d="M496.933 347.652C498.757 349.39 501.713 349.39 503.536 347.652L604.41 251.52C606.233 249.783 606.233 246.966 604.41 245.228V245.228C602.586 243.49 599.63 243.49 597.807 245.228L496.933 341.36C495.11 343.097 495.11 345.914 496.933 347.652V347.652Z" fill="#47C294"/>
</g>
<g id="Rectangle 3.14" style="mix-blend-mode:overlay">
<path d="M288.753 417.661C290.576 419.398 293.532 419.398 295.356 417.661L496.374 226.092C498.197 224.354 498.197 221.537 496.374 219.799V219.799C494.551 218.062 491.595 218.062 489.771 219.799L288.753 411.368C286.93 413.106 286.93 415.923 288.753 417.661V417.661Z" fill="#47C294"/>
</g>
</g>
<defs>
<clipPath id="clip0">
<rect width="858.736" height="465.598" fill="white" transform="translate(0 465.598) scale(1 -1)"/>
</clipPath>
</defs>
</svg>
