<svg width="272" height="284" viewBox="0 0 272 284" fill="none" xmlns="http://www.w3.org/2000/svg">
<path d="M236.121 92.6227C255.422 150.238 224.363 212.591 166.748 231.893C109.133 251.195 46.7795 220.135 27.4778 162.52C8.17613 104.905 43.2953 132.794 100.911 113.492C158.526 94.1906 216.819 35.0075 236.121 92.6227Z" fill="url(#paint0_linear)"/>
<path d="M136.859 204.327C164.588 204.327 187.067 181.801 187.067 154.013C187.067 126.225 164.588 103.699 136.859 103.699C109.129 103.699 86.6503 126.225 86.6503 154.013C86.6503 181.801 109.129 204.327 136.859 204.327Z" stroke="#3AD29F" stroke-width="2" stroke-miterlimit="10" stroke-dasharray="12 12"/>
<path d="M136.859 215C170.47 215 197.718 187.695 197.718 154.013C197.718 120.331 170.47 93.0259 136.859 93.0259C103.247 93.0259 76 120.331 76 154.013C76 187.695 103.247 215 136.859 215Z" stroke="#3AD29F" stroke-width="2" stroke-miterlimit="10" stroke-dasharray="12 12"/>
<path d="M177.59 173.442C177.591 170.016 176.316 166.713 174.015 164.179C171.713 161.645 168.551 160.063 165.147 159.742C161.743 159.421 158.342 160.385 155.609 162.444C152.877 164.504 151.009 167.511 150.373 170.878L108.179 169.731L108.642 176.995C108.642 176.995 102.626 190.907 134.247 194.613V208.674H170.803V185.296C172.867 184.085 174.58 182.353 175.77 180.274C176.961 178.195 177.588 175.84 177.59 173.442Z" fill="url(#paint1_linear)"/>
<path d="M110.091 177.3C110.091 177.3 104.33 190.622 134.612 194.176V207.648H169.621V171.972L109.641 170.342L110.091 177.3Z" fill="#BE7C5E"/>
<path d="M127.588 121.705C126.675 123.149 125.229 124.171 123.566 124.55C121.903 124.929 120.159 124.633 118.713 123.726L99.9159 111.314C98.4754 110.399 97.4547 108.95 97.0769 107.283C96.699 105.617 96.9946 103.868 97.8991 102.42C98.8119 100.978 100.256 99.9565 101.918 99.5779C103.579 99.1993 105.322 99.4943 106.768 100.399L125.565 112.811C127.006 113.725 128.028 115.173 128.407 116.84C128.787 118.506 128.492 120.255 127.588 121.705Z" fill="url(#paint2_linear)"/>
<path d="M126.547 121.027C125.698 122.369 124.354 123.32 122.808 123.672C121.263 124.024 119.641 123.749 118.297 122.906L100.819 111.359C99.4796 110.509 98.5309 109.162 98.1796 107.613C97.8283 106.064 98.103 104.439 98.9437 103.092C99.7923 101.75 101.136 100.8 102.682 100.448C104.228 100.096 105.85 100.371 107.194 101.213L124.668 112.753C126.01 113.603 126.961 114.951 127.313 116.502C127.665 118.052 127.389 119.68 126.547 121.027Z" fill="#BE7C5E"/>
<path d="M162.976 187.071C170.237 187.071 176.123 181.173 176.123 173.896C176.123 166.62 170.237 160.722 162.976 160.722C155.715 160.722 149.829 166.62 149.829 173.896C149.829 181.173 155.715 187.071 162.976 187.071Z" fill="#BE7C5E"/>
<path d="M160.609 87H110.245C109.101 87 108.174 87.9291 108.174 89.0753V183.514C108.174 184.66 109.101 185.589 110.245 185.589H160.609C161.753 185.589 162.68 184.66 162.68 183.514V89.0753C162.68 87.9291 161.753 87 160.609 87Z" fill="url(#paint3_linear)"/>
<path d="M159.635 88.3332H111.215C109.942 88.3332 108.909 89.3677 108.909 90.6439V181.948C108.909 183.225 109.942 184.259 111.215 184.259H159.635C160.909 184.259 161.941 183.225 161.941 181.948V90.6439C161.941 89.3677 160.909 88.3332 159.635 88.3332Z" fill="white"/>
<path d="M148.805 91.0421C148.651 92.0593 148.14 92.988 147.362 93.6601C146.585 94.3322 145.593 94.7033 144.566 94.7064H126.251C125.225 94.7029 124.234 94.3316 123.457 93.6596C122.68 92.9875 122.168 92.0591 122.015 91.0421H112.311C112.047 91.0418 111.785 91.0939 111.54 91.1952C111.296 91.2964 111.074 91.445 110.886 91.6324C110.699 91.8198 110.551 92.0423 110.45 92.2872C110.348 92.5321 110.296 92.7946 110.296 93.0597V180.136C110.296 180.401 110.348 180.663 110.449 180.908C110.55 181.153 110.698 181.376 110.885 181.563C111.072 181.751 111.294 181.9 111.539 182.001C111.783 182.103 112.045 182.155 112.31 182.155H158.654C158.918 182.155 159.18 182.103 159.425 182.002C159.669 181.901 159.891 181.752 160.078 181.565C160.266 181.377 160.414 181.155 160.515 180.91C160.617 180.665 160.669 180.402 160.669 180.137V93.0614C160.669 92.7963 160.617 92.5337 160.516 92.2888C160.415 92.0438 160.267 91.8211 160.08 91.6336C159.893 91.4461 159.671 91.2973 159.426 91.1958C159.182 91.0943 158.92 91.0421 158.655 91.0421H148.805Z" fill="#282D35"/>
<path d="M152.007 136.179C152.007 145.496 144.469 153.042 135.178 153.042C125.887 153.042 118.348 145.496 118.348 136.179C118.348 126.862 125.887 119.316 135.178 119.316C144.469 119.316 152.007 126.862 152.007 136.179Z" stroke="#F5ABBD" stroke-width="4"/>
<ellipse cx="135.178" cy="136.179" rx="15.2988" ry="15.3263" fill="#E43F3F"/>
<path d="M131.128 129.137L119.884 124.979C119.787 126.721 121.106 127.632 121.778 127.87C123.457 128.451 127.178 129.763 128.629 130.365C130.08 130.967 131.034 132.438 131.33 133.098L134.11 138.959C133.936 137.071 133.619 132.963 133.425 131.632C133.232 130.302 131.813 129.414 131.128 129.137Z" fill="white"/>
<path d="M128.428 130.88L121.617 128.385C122.197 130.349 123.417 131.263 123.954 131.474L131.128 134.127C130.806 132.511 129.194 131.289 128.428 130.88Z" fill="white"/>
<path d="M131.33 134.603L124.478 132.147C124.607 133.573 126.037 134.589 126.735 134.919L132.579 137.018C132.324 136.49 131.781 135.355 131.652 135.038C131.523 134.721 131.383 134.616 131.33 134.603Z" fill="white"/>
<path d="M139.227 129.137L150.472 124.979C150.568 126.721 149.249 127.632 148.577 127.87C146.898 128.451 143.177 129.763 141.726 130.365C140.275 130.967 139.321 132.438 139.026 133.098L136.245 138.959C136.42 137.071 136.737 132.963 136.93 131.632C137.124 130.302 138.542 129.414 139.227 129.137Z" fill="white"/>
<path d="M141.928 130.88L148.739 128.385C148.158 130.349 146.938 131.263 146.401 131.474L139.227 134.127C139.55 132.511 141.162 131.289 141.928 130.88Z" fill="white"/>
<path d="M139.026 134.603L145.877 132.147C145.748 133.573 144.319 134.589 143.62 134.919L137.777 137.018C138.032 136.49 138.575 135.355 138.704 135.038C138.832 134.721 138.972 134.616 139.026 134.603Z" fill="white"/>
<g filter="url(#filter0_d)">
<path d="M135.033 128.563L134.881 129.086V144.256L135.033 144.409L142.005 140.247L135.033 128.563Z" fill="#B91A1A"/>
<path d="M135.033 128.563L128.062 140.247L135.033 144.409V137.047V128.563Z" fill="#F5ABBD"/>
<path d="M135.034 145.743L134.948 145.848V151.252L135.034 151.505L142.009 141.583L135.034 145.743Z" fill="#B91A1A"/>
<path d="M135.033 151.505V145.742L128.062 141.582L135.033 151.505Z" fill="#F5ABBD"/>
<path d="M135.033 144.409L142.005 140.247L135.033 137.047V144.409Z" fill="#9D1D1D"/>
<path d="M128.062 140.247L135.033 144.409V137.046L128.062 140.247Z" fill="#9D1D1D"/>
</g>
<path d="M141.072 91.8857H129.929C129.743 91.8857 129.591 92.0374 129.591 92.2246V92.2872C129.591 92.4744 129.743 92.6261 129.929 92.6261H141.072C141.258 92.6261 141.41 92.4744 141.41 92.2872V92.2246C141.41 92.0374 141.258 91.8857 141.072 91.8857Z" fill="#DBDBDB"/>
<path d="M143.92 92.626C144.165 92.626 144.363 92.4273 144.363 92.1822C144.363 91.9371 144.165 91.7383 143.92 91.7383C143.676 91.7383 143.477 91.9371 143.477 92.1822C143.477 92.4273 143.676 92.626 143.92 92.626Z" fill="#DBDBDB"/>
<path d="M171.474 176.221C167.659 177.105 165.04 174.611 164.157 170.789L155.39 138.166C154.971 136.323 155.297 134.389 156.296 132.786C157.296 131.183 158.887 130.041 160.724 129.61C162.563 129.19 164.493 129.516 166.093 130.517C167.693 131.519 168.833 133.114 169.263 134.954L176.417 168.419C177.3 172.243 175.288 175.336 171.474 176.221Z" fill="url(#paint4_linear)"/>
<path d="M168.279 135.753C167.535 132.527 164.322 130.516 161.103 131.261C157.884 132.007 155.877 135.226 156.621 138.452L164.682 173.417C165.426 176.643 168.639 178.654 171.858 177.909C175.078 177.163 177.085 173.944 176.341 170.718L168.279 135.753Z" fill="#BE7C5E"/>
<path d="M176.067 203.24H126.028V214.929H176.067V203.24Z" fill="url(#paint5_linear)"/>
<path d="M174.715 204.595H127.38V213.743H174.715V204.595Z" fill="#4D8AF0"/>
<path d="M120.292 156.701C119.39 158.128 117.962 159.138 116.319 159.513C114.675 159.887 112.951 159.594 111.523 158.699L98.9168 150.525C97.4934 149.621 96.4848 148.19 96.1114 146.543C95.7379 144.897 96.0299 143.169 96.9236 141.738C97.8254 140.311 99.2538 139.301 100.897 138.926C102.54 138.552 104.264 138.845 105.692 139.74L118.299 147.914C119.722 148.818 120.731 150.249 121.104 151.896C121.477 153.542 121.185 155.27 120.292 156.701Z" fill="url(#paint6_linear)"/>
<path d="M117.127 174.003C116.217 175.443 114.776 176.463 113.118 176.84C111.46 177.218 109.72 176.923 108.279 176.019L100.47 170.313C99.034 169.402 98.0161 167.957 97.6391 166.296C97.2622 164.634 97.5568 162.891 98.4586 161.447C99.3684 160.007 100.81 158.987 102.468 158.609C104.126 158.232 105.865 158.527 107.307 159.431L115.115 165.138C116.551 166.05 117.569 167.494 117.946 169.155C118.323 170.816 118.028 172.559 117.127 174.003Z" fill="url(#paint7_linear)"/>
<path d="M116.497 173.578C115.648 174.92 114.304 175.87 112.758 176.222C111.213 176.574 109.591 176.299 108.247 175.457L100.964 170.144C99.6251 169.294 98.6764 167.947 98.3251 166.398C97.9738 164.849 98.2485 163.224 99.0893 161.877C99.9378 160.535 101.282 159.584 102.827 159.232C104.373 158.88 105.995 159.156 107.339 159.998L114.62 165.321C115.957 166.171 116.904 167.516 117.255 169.062C117.607 170.609 117.334 172.232 116.497 173.578Z" fill="#BE7C5E"/>
<path d="M119.599 156.252C118.75 157.594 117.406 158.545 115.86 158.897C114.315 159.249 112.693 158.974 111.349 158.131L99.4881 150.44C98.1492 149.59 97.2004 148.243 96.8491 146.694C96.4979 145.145 96.7726 143.52 97.6133 142.173C98.4618 140.831 99.8057 139.88 101.351 139.528C102.897 139.176 104.519 139.452 105.863 140.294L117.724 147.985C119.063 148.836 120.011 150.182 120.363 151.731C120.714 153.28 120.439 154.906 119.599 156.252Z" fill="#BE7C5E"/>
<path d="M123.551 139.481C122.645 140.914 121.21 141.929 119.559 142.305C117.909 142.68 116.177 142.386 114.742 141.487L98.7664 131.063C97.3368 130.155 96.3238 128.717 95.9488 127.063C95.5738 125.409 95.8671 123.673 96.7648 122.235C97.671 120.803 99.1061 119.788 100.757 119.412C102.407 119.036 104.139 119.33 105.574 120.229L121.55 130.653C122.979 131.561 123.992 132.999 124.367 134.653C124.742 136.308 124.449 138.043 123.551 139.481Z" fill="url(#paint8_linear)"/>
<path d="M122.702 138.939C121.854 140.281 120.51 141.232 118.964 141.584C117.418 141.936 115.796 141.66 114.453 140.818L99.4898 131.055C98.1509 130.204 97.2021 128.858 96.8509 127.309C96.4996 125.76 96.7743 124.134 97.615 122.788C98.4635 121.446 99.8075 120.495 101.353 120.143C102.899 119.791 104.521 120.066 105.865 120.909L120.826 130.672C122.165 131.522 123.114 132.869 123.466 134.418C123.817 135.967 123.543 137.592 122.702 138.939Z" fill="#BE7C5E"/>
<path d="M105 272H168" stroke="#002B49" stroke-width="2" stroke-linecap="round"/>
<rect x="125" y="260" width="24" height="24" rx="12" fill="#002B49"/>
<path d="M137.125 269.896L135.529 270.952V269.932L137.005 268.996H137.989V277H137.125V269.896Z" fill="white"/>
<defs>
<filter id="filter0_d" x="0.0620117" y="0.563416" width="269.947" height="278.942" filterUnits="userSpaceOnUse" color-interpolation-filters="sRGB">
<feFlood flood-opacity="0" result="BackgroundImageFix"/>
<feColorMatrix in="SourceAlpha" type="matrix" values="0 0 0 0 0 0 0 0 0 0 0 0 0 0 0 0 0 0 127 0"/>
<feOffset/>
<feGaussianBlur stdDeviation="64"/>
<feColorMatrix type="matrix" values="0 0 0 0 0.859383 0 0 0 0 0.83 0 0 0 0 1 0 0 0 1 0"/>
<feBlend mode="normal" in2="BackgroundImageFix" result="effect1_dropShadow"/>
<feBlend mode="normal" in="SourceGraphic" in2="effect1_dropShadow" result="shape"/>
</filter>
<linearGradient id="paint0_linear" x1="228.965" y1="50.1074" x2="39.57" y2="186.154" gradientUnits="userSpaceOnUse">
<stop stop-color="#22C88A"/>
<stop offset="1" stop-color="#1BF2A0"/>
</linearGradient>
<linearGradient id="paint1_linear" x1="142.887" y1="208.683" x2="142.887" y2="159.683" gradientUnits="userSpaceOnUse">
<stop stop-color="#808080" stop-opacity="0.25"/>
<stop offset="0.54" stop-color="#808080" stop-opacity="0.12"/>
<stop offset="1" stop-color="#808080" stop-opacity="0.1"/>
</linearGradient>
<linearGradient id="paint2_linear" x1="14572.9" y1="7556.86" x2="14572.9" y2="3779.45" gradientUnits="userSpaceOnUse">
<stop stop-color="#808080" stop-opacity="0.25"/>
<stop offset="0.54" stop-color="#808080" stop-opacity="0.12"/>
<stop offset="1" stop-color="#808080" stop-opacity="0.1"/>
</linearGradient>
<linearGradient id="paint3_linear" x1="32309.1" y1="64569.7" x2="32309.1" y2="7194.86" gradientUnits="userSpaceOnUse">
<stop stop-color="#808080" stop-opacity="0.25"/>
<stop offset="0.54" stop-color="#808080" stop-opacity="0.12"/>
<stop offset="1" stop-color="#808080" stop-opacity="0.1"/>
</linearGradient>
<linearGradient id="paint4_linear" x1="16682" y1="28306.2" x2="16682" y2="15283.8" gradientUnits="userSpaceOnUse">
<stop stop-color="#808080" stop-opacity="0.25"/>
<stop offset="0.54" stop-color="#808080" stop-opacity="0.12"/>
<stop offset="1" stop-color="#808080" stop-opacity="0.1"/>
</linearGradient>
<linearGradient id="paint5_linear" x1="34309.7" y1="9862.17" x2="34309.7" y2="9055.62" gradientUnits="userSpaceOnUse">
<stop stop-color="#808080" stop-opacity="0.25"/>
<stop offset="0.54" stop-color="#808080" stop-opacity="0.12"/>
<stop offset="1" stop-color="#808080" stop-opacity="0.1"/>
</linearGradient>
<linearGradient id="paint6_linear" x1="11051.8" y1="10615.8" x2="11051.8" y2="8036.22" gradientUnits="userSpaceOnUse">
<stop stop-color="#808080" stop-opacity="0.25"/>
<stop offset="0.54" stop-color="#808080" stop-opacity="0.12"/>
<stop offset="1" stop-color="#808080" stop-opacity="0.1"/>
</linearGradient>
<linearGradient id="paint7_linear" x1="8927.26" y1="11354.1" x2="8927.26" y2="9322.14" gradientUnits="userSpaceOnUse">
<stop stop-color="#808080" stop-opacity="0.25"/>
<stop offset="0.54" stop-color="#808080" stop-opacity="0.12"/>
<stop offset="1" stop-color="#808080" stop-opacity="0.1"/>
</linearGradient>
<linearGradient id="paint8_linear" x1="12798.9" y1="9395.91" x2="12798.9" y2="6215.18" gradientUnits="userSpaceOnUse">
<stop stop-color="#808080" stop-opacity="0.25"/>
<stop offset="0.54" stop-color="#808080" stop-opacity="0.12"/>
<stop offset="1" stop-color="#808080" stop-opacity="0.1"/>
</linearGradient>
</defs>
</svg>
