<svg width="20" height="17" viewBox="0 0 20 17" fill="none" xmlns="http://www.w3.org/2000/svg">
<path fill-rule="evenodd" clip-rule="evenodd" d="M2.37167 4.12805C2.39667 3.88222 2.3025 3.63972 2.11917 3.47472L0.2525 1.22472V0.888885H6.05083L10.5325 10.7181L14.4725 0.888885H20V1.22472L18.4033 2.75555C18.2658 2.86055 18.1975 3.03305 18.2258 3.20389V14.4522C18.1975 14.6222 18.2658 14.7947 18.4033 14.8997L19.9625 16.4306V16.7664H12.1192V16.4306L13.735 14.8622C13.8933 14.7039 13.8933 14.6572 13.8933 14.4147V5.32305L9.4025 16.7297H8.79583L3.56667 5.32305V12.9681C3.52333 13.2889 3.63 13.6131 3.85583 13.8447L5.95667 16.3931V16.7297H0V16.3931L2.10083 13.8447C2.32583 13.6122 2.42583 13.2864 2.37167 12.9681V4.12805Z" fill="black" fill-opacity="0.54"/>
</svg>
