<svg width="20" height="17" viewBox="0 0 20 17" fill="none" xmlns="http://www.w3.org/2000/svg">
<path fill-rule="evenodd" clip-rule="evenodd" d="M15.32 16.4823C15.5883 16.6722 15.9341 16.7197 16.2425 16.6031C16.5508 16.4856 16.7775 16.2223 16.8458 15.9031C17.5699 12.4998 19.3266 3.88587 19.9857 0.790106C20.0357 0.556778 19.9524 0.314283 19.7691 0.158453C19.5857 0.00262349 19.3316 -0.0423756 19.1049 0.0417892C15.6108 1.33509 4.85022 5.3725 0.451988 6.99996C0.172828 7.10329 -0.00883492 7.37162 0.000331537 7.66578C0.0103313 7.96078 0.20866 8.2166 0.494487 8.30243C2.46694 8.89242 5.05605 9.71324 5.05605 9.71324C5.05605 9.71324 6.26602 13.3673 6.89684 15.2256C6.97601 15.4589 7.1585 15.6423 7.39933 15.7056C7.63932 15.7681 7.89599 15.7023 8.07515 15.5331C9.08846 14.5765 10.6551 13.0973 10.6551 13.0973C10.6551 13.0973 13.6317 15.2798 15.32 16.4823ZM6.14519 9.25158L7.54433 13.8665L7.85515 10.944C7.85515 10.944 13.2609 6.06832 16.3425 3.28922C16.4325 3.20755 16.445 3.07089 16.37 2.97506C16.2958 2.87923 16.1591 2.85673 16.0566 2.92172C12.485 5.20251 6.14519 9.25158 6.14519 9.25158Z" fill="#0088CC"/>
</svg>
