<svg width="256" height="228" viewBox="0 0 256 228" fill="none" xmlns="http://www.w3.org/2000/svg">
<path d="M220.121 33.6227C239.422 91.2379 208.363 153.591 150.748 172.893C93.1328 192.195 30.7794 161.135 11.4777 103.52C-7.82393 45.9051 27.2953 73.7939 84.9104 54.4922C142.526 35.1906 200.819 -23.9925 220.121 33.6227Z" fill="url(#paint0_linear)"/>
<path d="M95 216L158 216" stroke="#002B49" stroke-width="2" stroke-linecap="round"/>
<rect x="115" y="204" width="24" height="24" rx="12" fill="#002B49"/>
<path d="M126.61 221.096C125.842 221.096 125.13 220.928 124.474 220.592V219.704C125.098 220.056 125.774 220.232 126.502 220.232C127.214 220.232 127.758 220.1 128.134 219.836C128.51 219.572 128.698 219.192 128.698 218.696C128.698 218.2 128.506 217.82 128.122 217.556C127.738 217.292 127.182 217.16 126.454 217.16H125.578V216.332H126.49C127.074 216.332 127.518 216.224 127.822 216.008C128.134 215.784 128.29 215.464 128.29 215.048C128.29 214.632 128.126 214.312 127.798 214.088C127.478 213.864 127.01 213.752 126.394 213.752C125.802 213.752 125.226 213.892 124.666 214.172V213.296C125.242 213.024 125.85 212.888 126.49 212.888C127.114 212.888 127.622 212.992 128.014 213.2C128.414 213.4 128.702 213.664 128.878 213.992C129.062 214.32 129.154 214.672 129.154 215.048C129.154 215.4 129.078 215.696 128.926 215.936C128.774 216.176 128.602 216.364 128.41 216.5C128.218 216.636 128.122 216.692 128.122 216.668C128.122 216.644 128.254 216.72 128.518 216.896C128.79 217.064 129.03 217.3 129.238 217.604C129.454 217.908 129.562 218.28 129.562 218.72C129.562 219.136 129.462 219.524 129.262 219.884C129.062 220.236 128.742 220.528 128.302 220.76C127.862 220.984 127.298 221.096 126.61 221.096Z" fill="white"/>
<path opacity="0.5" d="M70.1193 134.83C56.6897 130.19 41.3346 126.262 28.7874 132.93C27.1972 133.776 25.6302 134.84 24.7734 136.423C22.5103 140.588 26.1075 145.99 24.3543 150.393C22.6011 154.795 16.0027 157.012 16.5429 161.715C16.6849 162.944 17.3508 164.057 18.1354 165.017C23.0505 171.021 32.061 171.629 39.6768 170.139C47.2927 168.649 54.7409 165.559 62.4941 165.948C69.9446 166.332 76.7991 169.906 83.6257 172.914C95.1345 177.999 108.576 181.648 120.075 176.537C125.344 174.195 129.7 170.206 134.743 167.422C141.54 163.704 149.352 162.27 157.025 163.333C162.147 164.055 167.037 165.871 172.05 167.124C183.435 169.967 195.319 169.873 207.051 169.762C209.235 169.741 211.454 169.715 213.547 169.091C216.646 168.16 219.202 166.015 221.663 163.918C224.897 161.163 228.304 158.137 229.347 154.018C230.578 149.128 228.029 143.932 224.248 140.609C220.467 137.287 215.633 135.471 210.916 133.72C209.752 133.291 208.508 132.856 207.316 133.18C206.534 133.394 205.875 133.915 205.291 134.476C201.943 137.699 199.114 143.149 194.548 142.274C192.918 141.962 191.584 140.828 190.294 139.78C183.407 134.192 174.143 129.878 165.831 132.965C159.752 135.224 155.461 141.024 149.3 143.07C144.918 144.528 140.157 143.897 135.547 144.181C128.841 144.59 122.315 146.961 115.6 146.816C98.4779 146.448 84.2124 130.076 67.16 131.636C65.8236 131.757 64.3661 132.064 63.5465 133.121" fill="#1CC886"/>
<path d="M48.5267 119.256C48.5267 119.256 34.2985 127.845 60.536 141.075C60.536 141.075 66.3172 130.341 59.926 121.589C58.6858 119.884 56.8631 118.693 54.8034 118.241C52.7437 117.79 50.59 118.11 48.7502 119.14L48.5267 119.256Z" fill="#1CC886"/>
<path d="M48.6967 119.077C48.6967 119.077 60.8783 128.39 60.5384 141.068" stroke="#535461" stroke-miterlimit="10"/>
<path d="M228.539 112.101C231.421 122.642 219.125 152.67 219.125 152.67C219.125 152.67 193.253 133.082 190.369 122.542C189.614 120.014 189.372 117.362 189.657 114.74C189.942 112.118 190.749 109.579 192.029 107.273C193.309 104.968 195.037 102.941 197.112 101.312C199.186 99.6837 201.565 98.4862 204.109 97.7902C206.653 97.0942 209.311 96.9137 211.925 97.2593C214.54 97.605 217.059 98.4697 219.335 99.8028C221.611 101.136 223.597 102.91 225.177 105.022C226.757 107.134 227.899 109.54 228.536 112.099L228.539 112.101Z" fill="#1CC886"/>
<path opacity="0.1" d="M228.539 112.101C231.421 122.642 219.125 152.67 219.125 152.67C219.125 152.67 193.253 133.082 190.369 122.542C189.614 120.014 189.372 117.362 189.657 114.74C189.942 112.118 190.749 109.579 192.029 107.273C193.309 104.968 195.037 102.941 197.112 101.312C199.186 99.6837 201.565 98.4862 204.109 97.7902C206.653 97.0942 209.311 96.9137 211.925 97.2593C214.54 97.605 217.059 98.4697 219.335 99.8028C221.611 101.136 223.597 102.91 225.177 105.022C226.757 107.134 227.899 109.54 228.536 112.099L228.539 112.101Z" fill="black"/>
<path d="M204.339 98.297C204.339 98.297 220.443 122.609 219.24 152.728" stroke="#535461" stroke-miterlimit="10"/>
<path d="M232.648 131.366C232.648 131.366 218.045 123.422 219.894 152.747C219.894 152.747 232.075 152.311 236.399 142.374C237.245 140.441 237.351 138.266 236.7 136.259C236.048 134.253 234.682 132.556 232.862 131.489L232.648 131.366Z" fill="#1CC886"/>
<path d="M232.888 131.417C232.888 131.417 231.002 146.639 219.894 152.747" stroke="#535461" stroke-miterlimit="10"/>
<path d="M18.8549 128.097C18.8549 128.097 4.6197 136.684 30.8596 149.906C30.8596 149.906 36.6407 139.173 30.2496 130.421C29.0093 128.715 27.1867 127.524 25.127 127.073C23.0673 126.621 20.9135 126.941 19.0738 127.971L18.8549 128.097Z" fill="#1CC886"/>
<path d="M19.0179 127.918C19.0179 127.918 31.1995 137.231 30.8596 149.908" stroke="#535461" stroke-miterlimit="10"/>
<path d="M196.474 139.275H181.514C181.858 138.583 182.037 137.82 182.036 137.047V68.9302C182.036 67.602 181.508 66.3281 180.569 65.3889C179.63 64.4497 178.356 63.9221 177.028 63.9221H61.2345C59.9063 63.9221 58.6324 64.4497 57.6932 65.3889C56.754 66.3281 56.2263 67.602 56.2263 68.9302V137.049C56.2251 137.822 56.4037 138.585 56.7479 139.277H41.2601C41.0855 139.277 40.9126 139.312 40.7515 139.379C40.5903 139.446 40.4439 139.544 40.3208 139.668C40.1977 139.792 40.1003 139.938 40.0341 140.1C39.9679 140.262 39.9343 140.435 39.9353 140.609V141.678C39.9353 143.643 40.7158 145.527 42.1052 146.917C43.4946 148.306 45.379 149.086 47.3439 149.086H190.39C192.355 149.086 194.239 148.306 195.628 146.917C197.018 145.527 197.798 143.643 197.798 141.678V140.609C197.8 140.434 197.766 140.261 197.7 140.099C197.634 139.937 197.537 139.79 197.414 139.666C197.29 139.542 197.144 139.444 196.983 139.377C196.821 139.31 196.648 139.275 196.474 139.275ZM104.299 143.512L103.009 142.057H134.855L133.435 143.515L104.299 143.512Z" fill="url(#paint1_linear)"/>
<path d="M175.191 64.886H63.0599C60.0689 64.886 57.6443 67.3106 57.6443 70.3016V135.836C57.6443 138.827 60.0689 141.252 63.0599 141.252H175.191C178.182 141.252 180.606 138.827 180.606 135.836V70.3016C180.606 67.3106 178.182 64.886 175.191 64.886Z" fill="#535461"/>
<path d="M177.759 76.0175H60.2333V138.404H177.759V76.0175Z" fill="white"/>
<path d="M118.997 71.617C119.569 71.617 120.033 71.1532 120.033 70.581C120.033 70.0087 119.569 69.5449 118.997 69.5449C118.425 69.5449 117.961 70.0087 117.961 70.581C117.961 71.1532 118.425 71.617 118.997 71.617Z" fill="white"/>
<path d="M137.142 138.532L133.104 142.674H104.639L100.99 138.532H43.0179C42.6746 138.532 42.3453 138.669 42.1026 138.911C41.8598 139.154 41.7234 139.483 41.7234 139.827V140.87C41.7234 142.79 42.4863 144.632 43.8442 145.99C45.2022 147.348 47.044 148.111 48.9644 148.111H188.769C189.72 148.111 190.662 147.924 191.54 147.56C192.419 147.196 193.217 146.662 193.889 145.99C194.562 145.318 195.095 144.519 195.459 143.641C195.823 142.762 196.01 141.821 196.01 140.87V139.827C196.01 139.483 195.874 139.154 195.631 138.911C195.388 138.669 195.059 138.532 194.716 138.532H137.142Z" fill="#535461"/>
<path d="M75.2485 79.9011V132.968H163.002" stroke="#535461" stroke-width="2" stroke-miterlimit="10"/>
<path opacity="0.5" d="M92.0728 116.919H83.0134V130.898H92.0728V116.919Z" fill="#1CC886"/>
<path opacity="0.7" d="M107.605 104.493H98.5455V130.898H107.605V104.493Z" fill="#1CC886"/>
<path opacity="0.5" d="M123.137 111.999H114.078V130.895H123.137V111.999Z" fill="#1CC886"/>
<path opacity="0.8" d="M138.669 100.351H129.61V130.898H138.669V100.351Z" fill="#1CC886"/>
<path d="M154.201 89.4774H145.142V130.895H154.201V89.4774Z" fill="#1CC886"/>
<path d="M87.4139 108.376L103.204 94.1386L118.736 107.599L134.01 91.2911L149.542 84.8185" stroke="#535461" stroke-width="2" stroke-miterlimit="10"/>
<path d="M87.4139 110.188C88.4143 110.188 89.2253 109.377 89.2253 108.376C89.2253 107.376 88.4143 106.565 87.4139 106.565C86.4135 106.565 85.6025 107.376 85.6025 108.376C85.6025 109.377 86.4135 110.188 87.4139 110.188Z" fill="#1CC886"/>
<path d="M118.478 109.152C119.478 109.152 120.289 108.341 120.289 107.34C120.289 106.34 119.478 105.529 118.478 105.529C117.478 105.529 116.667 106.34 116.667 107.34C116.667 108.341 117.478 109.152 118.478 109.152Z" fill="#1CC886"/>
<path d="M134.268 93.1026C135.269 93.1026 136.08 92.2916 136.08 91.2911C136.08 90.2907 135.269 89.4797 134.268 89.4797C133.268 89.4797 132.457 90.2907 132.457 91.2911C132.457 92.2916 133.268 93.1026 134.268 93.1026Z" fill="#1CC886"/>
<path d="M103.204 95.6893C104.205 95.6893 105.016 94.8783 105.016 93.8779C105.016 92.8775 104.205 92.0665 103.204 92.0665C102.204 92.0665 101.393 92.8775 101.393 93.8779C101.393 94.8783 102.204 95.6893 103.204 95.6893Z" fill="#1CC886"/>
<path d="M149.542 86.6299C150.543 86.6299 151.354 85.8189 151.354 84.8185C151.354 83.8181 150.543 83.0071 149.542 83.0071C148.542 83.0071 147.731 83.8181 147.731 84.8185C147.731 85.8189 148.542 86.6299 149.542 86.6299Z" fill="#1CC886"/>
<path d="M216.935 140.8C215.98 140.486 214.564 140.122 213.442 140.251C212.373 139.862 209.861 138.854 208.145 137.336C208.195 135.843 208.157 134.349 208.031 132.861C207.153 122.879 209.128 116.299 209.128 116.299C209.128 116.299 210.679 111.28 210.509 107.114C210.609 107.303 210.665 107.415 210.665 107.415C210.8 103.822 212.024 100.104 212.942 97.7871C212.977 97.7771 213.011 97.7647 213.044 97.7498L214.068 95.3191C214.15 95.1773 214.215 95.0265 214.262 94.8697L214.427 94.4856L214.378 94.4646C214.394 94.4017 214.411 94.3342 214.427 94.2667C215.081 91.4984 215.591 84.9326 215.591 84.9326C217.347 78.0222 213.179 73.7568 213.179 73.7568L206.106 67.6706C206.141 67.7498 206.164 67.8337 206.176 67.9197L206.117 67.8685C206.017 67.5821 205.908 67.2399 205.801 66.8487C206.05 66.6696 206.284 66.4694 206.499 66.2503C207.303 65.4908 207.857 64.5039 208.085 63.4215C208.222 62.575 208.257 61.7152 208.19 60.8603L208.073 57.9243C208.068 57.3497 208.009 56.7769 207.899 56.2131C207.365 53.8848 204.979 52.2549 202.583 52.1478C201.821 52.1434 201.059 52.1838 200.301 52.2689C199.682 52.3198 199.06 52.333 198.439 52.3085C198.368 52.3122 198.298 52.2935 198.238 52.255C198.185 52.2012 198.154 52.1285 198.152 52.0524C198.14 51.9161 198.156 51.7788 198.198 51.6487C198.24 51.5186 198.309 51.3985 198.399 51.2957C198.493 51.2135 198.602 51.1509 198.72 51.1118L198.55 51.1513C198.634 51.0853 198.729 51.0341 198.83 51C198.209 51.1092 197.612 51.3259 197.065 51.6403C196.914 51.7392 196.776 51.8557 196.653 51.9872C196.327 52.2729 196.116 52.6664 196.057 53.0955C195.765 52.8492 195.547 52.5268 195.428 52.1641C195.391 52.0159 195.391 51.8607 195.428 51.7125C195.386 51.7637 195.346 51.8165 195.307 51.8708C195.307 51.8545 195.307 51.8382 195.307 51.8219C194.857 52.375 194.539 53.023 194.376 53.7171C194.313 53.642 194.266 53.5551 194.237 53.4615C194.208 53.368 194.199 53.2697 194.208 53.1723C194.173 53.2817 194.141 53.3912 194.11 53.5006C194.1 53.428 194.1 53.3543 194.11 53.2817C193.836 54.1211 193.712 55.0023 193.745 55.8848C193.745 56.7649 194.136 58.1362 195.079 58.4459C195.128 58.4622 195.177 58.4738 195.228 58.4855C194.698 59.3093 194.38 60.2518 194.304 61.2285C194.227 62.2052 194.394 63.1857 194.79 64.0819C195.186 64.9782 195.798 65.7622 196.571 66.3637C197.344 66.9653 198.255 67.3655 199.221 67.5286C199.236 67.6357 199.251 67.7482 199.265 67.8662H199.302C199.328 68.099 199.349 68.3551 199.363 68.6159C199.125 68.849 198.865 69.0581 198.585 69.2399C197.794 69.7078 196.911 70 195.996 70.0967C194.904 70.1824 193.843 70.4999 192.883 71.028C191.754 71.659 190.508 72.5786 190.117 73.6962C189.465 75.5589 185.875 78.4576 183.468 78.8185L182.611 78.7696L182.548 78.7509V78.7673L182.338 78.7556H182.327H182.271V78.7673L182.054 78.7556C182.054 78.7556 182.033 78.8557 182.003 79.0327C180.793 78.6159 178.22 77.4611 174.872 74.4226C171.146 71.0396 166.106 71.7055 164.161 72.1316C164.095 72.1462 164.035 72.1806 163.989 72.2303C163.943 72.2799 163.913 72.3424 163.904 72.4095C163.894 72.4765 163.905 72.5449 163.935 72.6055C163.966 72.6661 164.014 72.716 164.073 72.7486C164.858 73.1793 166.073 73.8057 166.634 73.8755C166.634 73.8755 165.47 75.0932 166.709 75.7381C166.857 75.81 167.023 75.8395 167.187 75.8235C167.351 75.8075 167.508 75.7465 167.64 75.6473C168.241 75.2073 169.91 76.2038 172.329 76.723C172.329 76.723 179.156 83.787 182.546 84.872C182.624 85.0263 182.71 85.1763 182.804 85.3214L183.014 85.3051V85.3214H183.102L183.128 85.5542C183.128 85.5542 188.399 85.2772 190.113 83.3633C190.234 83.2547 190.345 83.1355 190.446 83.0071L188.613 106.057H188.63L188.613 106.276H189.961C190.077 109.111 189.954 111.951 189.596 114.765V129.792C189.596 129.792 189.526 131.114 192.273 133.051C195.154 135.057 197.93 137.209 200.59 139.498L200.923 139.787C200.418 144.386 199.361 152.956 198.478 153.275L199.023 153.37C198.092 154.551 195.447 157.794 194.641 157.88C193.654 157.99 192.995 159.526 194.641 159.855C197.928 160.424 201.308 160.091 204.42 158.891C204.73 158.768 204.991 158.545 205.16 158.258C205.329 157.97 205.396 157.634 205.351 157.303L205.032 154.882C205.093 154.915 205.141 154.966 205.172 155.028C205.391 155.687 205.172 154.15 205.172 154.15C206.074 151.251 206.783 148.296 207.293 145.303L210.553 148.12C210.553 148.12 210.618 148.039 210.732 147.887C211.531 149.699 212.956 153.405 212.637 156.12C212.199 159.845 216.362 156.558 215.926 154.365C215.573 152.59 217.156 145.07 217.773 142.258C217.839 141.954 217.79 141.636 217.635 141.367C217.48 141.097 217.231 140.895 216.935 140.8Z" fill="url(#paint2_linear)"/>
<path d="M182.869 79.9547C182.869 79.9547 179.763 79.4192 175.158 75.2422C171.514 71.9384 166.599 72.588 164.704 73.0047C164.639 73.0187 164.581 73.0521 164.536 73.1004C164.491 73.1487 164.461 73.2097 164.452 73.2751C164.443 73.3405 164.453 73.4072 164.483 73.4663C164.513 73.5253 164.56 73.5739 164.618 73.6054C165.384 74.0245 166.571 74.6369 167.128 74.7067C167.128 74.7067 165.98 75.8941 167.2 76.5298C167.346 76.6015 167.509 76.6312 167.671 76.6156C167.833 76.6 167.988 76.5396 168.117 76.4413C168.704 76.0129 170.334 76.9861 172.697 77.4913C172.697 77.4913 181.908 87.0234 184.05 85.4075L182.869 79.9547Z" fill="#FEC3BE"/>
<path d="M198.727 66.9954C198.727 66.9954 199.584 70.6368 198.727 73.2073L202.583 73.7428L206.01 72.0292V69.78C206.01 69.78 204.404 66.3528 204.832 62.39L198.727 66.9954Z" fill="#FEC3BE"/>
<path d="M209.645 145.925C209.645 145.925 212.439 151.387 212.001 155.028C211.563 158.67 215.642 155.457 215.214 153.315C214.867 151.582 216.413 144.234 217.016 141.501C217.081 141.205 217.035 140.896 216.885 140.633C216.735 140.371 216.493 140.173 216.206 140.078C214.918 139.654 212.762 139.135 211.68 139.929C210.08 141.105 209.645 145.925 209.645 145.925Z" fill="#8B416F"/>
<path d="M199.049 151.922C199.049 151.922 195.407 156.635 194.443 156.742C193.479 156.849 192.837 158.348 194.443 158.67C197.651 159.228 200.95 158.906 203.989 157.738C204.293 157.62 204.549 157.402 204.715 157.121C204.881 156.84 204.947 156.511 204.904 156.188L204.29 151.601L199.049 151.922Z" fill="#8B416F"/>
<path d="M193.051 101.908L189.559 102.374C190.038 106.453 190.024 110.575 189.517 114.651V129.319C189.517 129.319 189.449 130.611 192.131 132.49C194.944 134.446 197.655 136.544 200.252 138.777L209.971 147.196C209.971 147.196 213.826 142.483 213.291 139.699C213.291 139.699 206.865 137.664 206.008 134.344C205.517 132.444 203.025 130.851 200.986 129.85C199.704 129.227 198.673 128.185 198.065 126.896C197.458 125.606 197.309 124.148 197.645 122.763C197.764 122.281 197.948 121.818 198.192 121.387C199.905 118.388 202.369 111.64 202.369 111.64L197.656 102.658L193.051 101.908Z" fill="#4D4981"/>
<path opacity="0.05" d="M193.051 101.908L189.559 102.374C190.038 106.453 190.024 110.575 189.517 114.651V129.319C189.517 129.319 189.449 130.611 192.131 132.49C194.944 134.446 197.655 136.544 200.252 138.777L209.971 147.196C209.971 147.196 213.826 142.483 213.291 139.699C213.291 139.699 206.865 137.664 206.008 134.344C205.517 132.444 203.025 130.851 200.986 129.85C199.704 129.227 198.673 128.185 198.065 126.896C197.458 125.606 197.309 124.148 197.645 122.763C197.764 122.281 197.948 121.818 198.192 121.387C199.905 118.388 202.369 111.64 202.369 111.64L197.656 102.658L193.051 101.908Z" fill="black"/>
<path d="M198.192 152.251C198.192 152.251 204.511 153.322 204.725 153.964C204.939 154.607 204.725 153.107 204.725 153.107C204.725 153.107 208.367 142.076 207.519 132.332C206.672 122.588 208.59 116.16 208.59 116.16C208.59 116.16 210.839 108.877 209.554 104.7C208.269 100.523 194.774 102.344 194.774 102.344C194.774 102.344 199.486 113.375 199.379 118.623C199.379 118.623 199.915 134.474 200.879 136.295C200.869 136.285 199.37 151.815 198.192 152.251Z" fill="#4D4981"/>
<path d="M198.935 69.78C198.935 69.78 199.577 73.7381 206.003 72.0292L201.729 104.586C201.729 104.586 189.305 105.014 189.412 103.515L191.973 83.8103L198.935 69.78Z" fill="white"/>
<path opacity="0.1" d="M199.102 69.5658C198.265 70.3896 197.175 70.9072 196.008 71.0349C194.942 71.1167 193.905 71.4246 192.967 71.9383C191.866 72.5553 190.639 73.4517 190.266 74.5437C189.517 76.6857 184.804 80.2201 182.662 79.4704L183.412 85.8965C183.412 85.8965 189.517 85.5752 190.588 83.2189L188.769 106.15H190.376C190.376 106.15 191.233 99.9384 191.875 98.6532C192.518 97.368 193.803 90.2993 193.91 88.5856C194.017 86.872 195.624 77.0187 197.016 75.3144L199.112 70.227L199.102 69.5658Z" fill="black"/>
<path opacity="0.1" d="M199.102 69.8871C198.145 70.6358 197 71.107 195.794 71.2492C194.728 71.3327 193.692 71.6422 192.755 72.1572C191.654 72.7742 190.427 73.6706 190.054 74.7626C189.305 76.9046 184.592 80.439 182.45 79.6893L183.2 86.1154C183.2 86.1154 189.305 85.7941 190.376 83.4378L188.555 106.355H190.162C190.162 106.355 191.018 100.143 191.661 98.8581C192.304 97.5729 193.589 90.5042 193.696 88.7906C193.803 87.0769 195.409 77.2236 196.802 75.5193L199.102 70.5274V69.8871Z" fill="black"/>
<path d="M199.102 69.6729C198.145 70.4216 197.001 70.8928 195.794 71.035C194.727 71.1167 193.691 71.4246 192.753 71.9383C191.652 72.5553 190.425 73.4517 190.052 74.5437C189.302 76.6857 184.59 80.2201 182.448 79.4704L183.198 85.8965C183.198 85.8965 189.302 85.5752 190.373 83.2189L188.555 106.15H190.162C190.162 106.15 191.018 99.9384 191.661 98.6532C192.304 97.368 193.589 90.2993 193.696 88.5857C193.803 86.872 195.41 77.0187 196.802 75.3144L199.104 70.3342L199.102 69.6729Z" fill="#FD6F8D"/>
<path opacity="0.1" d="M204.564 65.5495C204.425 64.5344 204.704 63.9011 204.832 62.7113L198.727 67.3167C198.727 67.3167 198.874 67.9383 198.986 68.8487C199.294 68.8984 199.605 68.9234 199.917 68.9232C202.036 68.9232 203.561 67.2678 204.564 65.5495Z" fill="black"/>
<path d="M199.905 68.6043C203.1 68.6043 205.689 66.0149 205.689 62.8208C205.689 59.6266 203.1 57.0373 199.905 57.0373C196.711 57.0373 194.122 59.6266 194.122 62.8208C194.122 66.0149 196.711 68.6043 199.905 68.6043Z" fill="#FEC3BE"/>
<path opacity="0.1" d="M193.593 57.1514C193.556 56.176 193.715 55.2031 194.059 54.2899C193.963 54.4336 193.923 54.607 193.945 54.7782C193.967 54.9494 194.051 55.1068 194.18 55.2212C194.367 54.2259 194.877 53.3204 195.633 52.6461C195.221 52.7136 195.009 53.2235 195.111 53.6286C195.251 54.0244 195.498 54.3729 195.826 54.6345C195.791 54.0221 196.196 53.4494 196.709 53.1141C197.242 52.8075 197.825 52.5964 198.432 52.4901C198.224 52.5639 198.046 52.7044 197.927 52.8897C197.807 53.0751 197.752 53.2948 197.77 53.5146C197.772 53.5892 197.803 53.6603 197.857 53.7125C197.915 53.7497 197.983 53.7676 198.052 53.7637C198.655 53.7869 199.26 53.7737 199.861 53.7241C200.601 53.6409 201.345 53.6012 202.089 53.6054C204.418 53.7032 206.758 55.2934 207.279 57.5635C207.387 58.1143 207.444 58.6739 207.449 59.2352L207.563 62.1013C207.629 62.9375 207.595 63.7786 207.461 64.6066C207.299 65.3709 206.972 66.0903 206.5 66.7133C206.029 67.3363 205.426 67.8476 204.734 68.2108C203.894 66.9931 203.819 65.4284 203.528 63.9779C203.482 63.6432 203.358 63.324 203.165 63.0466C203.065 62.9094 202.926 62.8066 202.765 62.7524C202.605 62.6981 202.431 62.6952 202.269 62.7439C201.954 62.8697 201.819 63.3493 202.08 63.5635C201.847 63.8382 201.412 63.6333 201.149 63.3889C200.414 62.6919 199.908 61.7882 199.698 60.7975C199.593 60.2992 199.489 59.6845 199 59.5146C198.832 59.4684 198.656 59.4565 198.483 59.4797C197.463 59.5495 195.868 59.9709 194.881 59.6473C193.975 59.3516 193.593 58.0105 193.593 57.1514Z" fill="black"/>
<path d="M193.701 57.0442C193.664 56.0689 193.822 55.096 194.166 54.1828C194.071 54.3265 194.03 54.4999 194.052 54.6711C194.075 54.8423 194.158 54.9996 194.287 55.1141C194.474 54.1188 194.985 53.2132 195.74 52.539C195.328 52.6065 195.116 53.1164 195.219 53.5215C195.358 53.9172 195.606 54.2658 195.933 54.5274C195.899 53.915 196.304 53.3423 196.816 53.007C197.35 52.7004 197.933 52.4893 198.539 52.383C198.331 52.4568 198.153 52.5973 198.034 52.7826C197.914 52.9679 197.859 53.1876 197.878 53.4074C197.879 53.4821 197.91 53.5531 197.964 53.6054C198.022 53.6426 198.09 53.6605 198.159 53.6566C198.763 53.6798 199.367 53.6666 199.968 53.617C200.708 53.5337 201.452 53.4941 202.197 53.4982C204.525 53.596 206.865 55.1863 207.386 57.4563C207.494 58.0072 207.551 58.5668 207.556 59.1281L207.67 61.9942C207.737 62.8304 207.702 63.6715 207.568 64.4994C207.407 65.2638 207.079 65.9831 206.607 66.6062C206.136 67.2292 205.533 67.7405 204.841 68.1036C204.001 66.8859 203.926 65.3213 203.635 63.8708C203.59 63.5361 203.465 63.2169 203.272 62.9395C203.173 62.8023 203.033 62.6995 202.872 62.6452C202.712 62.591 202.538 62.5881 202.376 62.6368C202.062 62.7625 201.926 63.2422 202.187 63.4564C201.954 63.7311 201.519 63.5262 201.256 63.2817C200.521 62.5847 200.015 61.6811 199.805 60.6904C199.701 60.1921 199.596 59.5774 199.107 59.4075C198.939 59.3612 198.763 59.3494 198.59 59.3725C197.57 59.4424 195.975 59.8638 194.988 59.5402C194.082 59.2422 193.701 57.9034 193.701 57.0442Z" fill="#784F69"/>
<path opacity="0.1" d="M182.171 79.4727C182.171 79.4727 181.314 83.4308 182.921 85.8988L183.831 85.8243L183.335 79.5379L182.171 79.4727Z" fill="black"/>
<path d="M182.404 79.4727C182.404 79.4727 181.547 83.4308 183.153 85.8988L184.064 85.8243L183.568 79.5379L182.404 79.4727Z" fill="#FD6F8D"/>
<path opacity="0.1" d="M205.421 68.6648L212.329 74.6089C212.329 74.6089 216.399 78.7859 214.686 85.5333C214.686 85.5333 213.936 95.3866 213.079 95.815C213.079 95.815 210.08 101.813 209.866 107.489C209.866 107.489 205.85 99.4029 204.029 104.33C202.208 109.256 197.975 109.952 197.975 109.952L200.332 80.8115C200.332 80.8115 206.278 70.4762 205.421 68.6648Z" fill="black"/>
<path d="M205.635 68.6648L212.543 74.6089C212.543 74.6089 216.613 78.7859 214.9 85.5333C214.9 85.5333 214.15 95.3866 213.293 95.815C213.293 95.815 210.294 101.813 210.08 107.489C210.08 107.489 205.85 98.9745 204.026 103.901C202.203 108.828 198.189 109.955 198.189 109.955L200.546 80.8255C200.546 80.8255 206.492 70.4762 205.635 68.6648Z" fill="#FD6F8D"/>
<path d="M208.795 93.7707C208.795 93.7707 210.509 92.5926 213.293 95.8057L206.439 108.229L204.136 104.753C204.136 104.753 209.009 95.1631 208.795 93.7707Z" fill="#FEC3BE"/>
<path opacity="0.1" d="M207.135 94.467C207.135 94.467 210.925 98.7231 212.404 98.0409L213.773 94.8535L208.634 92.6462L207.135 94.467Z" fill="black"/>
<path d="M207.135 94.2527C207.135 94.2527 210.925 98.5089 212.404 97.8267L213.773 94.6392L208.634 92.432L207.135 94.2527Z" fill="#FD6F8D"/>
<path opacity="0.1" d="M204.369 103.941C204.369 103.941 206.173 107.638 207.135 107.852L205.738 109.459L203.703 105.603L204.369 103.941Z" fill="black"/>
<path d="M204.262 104.055C204.262 104.055 206.066 107.752 207.028 107.966L205.631 109.573L203.591 105.71L204.262 104.055Z" fill="#4D4981"/>
<path opacity="0.1" d="M207.67 81.1863C207.67 81.1863 207.885 88.8977 207.028 91.7894L207.67 81.1863Z" fill="black"/>
<path opacity="0.1" d="M190.32 82.6858C190.32 82.6858 191.605 82.2574 191.605 81.1863L190.32 82.6858Z" fill="black"/>
<path d="M34.2519 83.9756C34.2519 83.9756 28.1471 96.6043 32.1565 111.55C36.1658 126.495 34.8922 144.379 30.8945 148.802" stroke="#535461" stroke-width="2" stroke-miterlimit="10"/>
<path d="M34.2519 85.6613C35.1816 85.6613 35.9353 84.9077 35.9353 83.978C35.9353 83.0483 35.1816 82.2946 34.2519 82.2946C33.3222 82.2946 32.5685 83.0483 32.5685 83.978C32.5685 84.9077 33.3222 85.6613 34.2519 85.6613Z" fill="#1CC886"/>
<path d="M31.7141 92.0991C31.7141 92.0991 38.0424 93.2399 39.7257 90.9349" stroke="#535461" stroke-width="2" stroke-miterlimit="10"/>
<path d="M31.1134 95.7662C31.1134 95.7662 27.3066 91.5543 27.5162 89.0281" stroke="#535461" stroke-width="2" stroke-miterlimit="10"/>
<path d="M30.7897 103.482C30.7897 103.482 34.2519 104.395 37.4114 97.6614" stroke="#535461" stroke-width="2" stroke-miterlimit="10"/>
<path d="M31.714 109.093C31.714 109.093 23.0994 103.55 24.1494 99.9734" stroke="#535461" stroke-width="2" stroke-miterlimit="10"/>
<path d="M33.0598 115.438C33.0598 115.438 39.0948 110.083 38.4638 104.814" stroke="#535461" stroke-width="2" stroke-miterlimit="10"/>
<path d="M33.7164 119.168C33.7164 119.168 26.033 117.021 26.2659 113.654" stroke="#535461" stroke-width="2" stroke-miterlimit="10"/>
<path d="M34.2519 123.613C34.2519 123.613 39.0924 119.128 39.7234 116.395" stroke="#535461" stroke-width="2" stroke-miterlimit="10"/>
<path d="M34.5895 131.238C34.5895 131.238 29.6233 125.44 29.4114 122.495" stroke="#535461" stroke-width="2" stroke-miterlimit="10"/>
<path d="M34.5895 136.036C34.5895 136.036 40.1472 129.862 40.5663 126.916" stroke="#535461" stroke-width="2" stroke-miterlimit="10"/>
<path d="M27.5162 91.1328C28.4459 91.1328 29.1995 90.3792 29.1995 89.4495C29.1995 88.5198 28.4459 87.7661 27.5162 87.7661C26.5865 87.7661 25.8328 88.5198 25.8328 89.4495C25.8328 90.3792 26.5865 91.1328 27.5162 91.1328Z" fill="#1CC886"/>
<path d="M25.6232 115.338C26.5529 115.338 27.3066 114.584 27.3066 113.654C27.3066 112.725 26.5529 111.971 25.6232 111.971C24.6935 111.971 23.9399 112.725 23.9399 113.654C23.9399 114.584 24.6935 115.338 25.6232 115.338Z" fill="#1CC886"/>
<path d="M24.1494 101.657C25.0791 101.657 25.8328 100.903 25.8328 99.9733C25.8328 99.0436 25.0791 98.29 24.1494 98.29C23.2197 98.29 22.4661 99.0436 22.4661 99.9733C22.4661 100.903 23.2197 101.657 24.1494 101.657Z" fill="#1CC886"/>
<path d="M39.7257 92.6066C40.6554 92.6066 41.4091 91.853 41.4091 90.9233C41.4091 89.9936 40.6554 89.2399 39.7257 89.2399C38.796 89.2399 38.0424 89.9936 38.0424 90.9233C38.0424 91.853 38.796 92.6066 39.7257 92.6066Z" fill="#1CC886"/>
<path d="M39.7257 118.495C40.6554 118.495 41.4091 117.741 41.4091 116.812C41.4091 115.882 40.6554 115.128 39.7257 115.128C38.796 115.128 38.0424 115.882 38.0424 116.812C38.0424 117.741 38.796 118.495 39.7257 118.495Z" fill="#1CC886"/>
<path d="M36.99 99.3424C37.9197 99.3424 38.6734 98.5887 38.6734 97.659C38.6734 96.7293 37.9197 95.9756 36.99 95.9756C36.0603 95.9756 35.3066 96.7293 35.3066 97.659C35.3066 98.5887 36.0603 99.3424 36.99 99.3424Z" fill="#1CC886"/>
<path d="M40.3567 129.652C41.2864 129.652 42.0401 128.898 42.0401 127.969C42.0401 127.039 41.2864 126.285 40.3567 126.285C39.427 126.285 38.6733 127.039 38.6733 127.969C38.6733 128.898 39.427 129.652 40.3567 129.652Z" fill="#1CC886"/>
<path d="M28.99 125.231C29.9197 125.231 30.6734 124.477 30.6734 123.547C30.6734 122.618 29.9197 121.864 28.99 121.864C28.0603 121.864 27.3066 122.618 27.3066 123.547C27.3066 124.477 28.0603 125.231 28.99 125.231Z" fill="#1CC886"/>
<path d="M38.6733 106.497C39.603 106.497 40.3567 105.744 40.3567 104.814C40.3567 103.884 39.603 103.131 38.6733 103.131C37.7437 103.131 36.99 103.884 36.99 104.814C36.99 105.744 37.7437 106.497 38.6733 106.497Z" fill="#1CC886"/>
<defs>
<linearGradient id="paint0_linear" x1="212.965" y1="-8.89256" x2="23.5699" y2="127.154" gradientUnits="userSpaceOnUse">
<stop stop-color="#22C88A"/>
<stop offset="1" stop-color="#1BF2A0"/>
</linearGradient>
<linearGradient id="paint1_linear" x1="118.867" y1="149.077" x2="118.867" y2="63.9197" gradientUnits="userSpaceOnUse">
<stop stop-color="#808080" stop-opacity="0.25"/>
<stop offset="0.54" stop-color="#808080" stop-opacity="0.12"/>
<stop offset="1" stop-color="#808080" stop-opacity="0.1"/>
</linearGradient>
<linearGradient id="paint2_linear" x1="47507.2" y1="70302.4" x2="47507.2" y2="19155.5" gradientUnits="userSpaceOnUse">
<stop stop-color="#808080" stop-opacity="0.25"/>
<stop offset="0.54" stop-color="#808080" stop-opacity="0.12"/>
<stop offset="1" stop-color="#808080" stop-opacity="0.1"/>
</linearGradient>
</defs>
</svg>
