<svg width="256" height="228" viewBox="0 0 256 228" fill="none" xmlns="http://www.w3.org/2000/svg">
<path d="M220.121 33.6227C239.422 91.2379 208.363 153.591 150.748 172.893C93.1329 192.195 30.7795 161.135 11.4778 103.52C-7.82387 45.9051 27.2953 73.7939 84.9105 54.4922C142.526 35.1906 200.819 -23.9925 220.121 33.6227Z" fill="url(#paint0_linear)"/>
<path d="M88 216L151 216" stroke="#002B49" stroke-width="2" stroke-linecap="round"/>
<rect x="108" y="204" width="24" height="24" rx="12" fill="#002B49"/>
<path d="M122.49 220.136V221H117.438V220.244C118.014 219.82 118.61 219.324 119.226 218.756C119.842 218.18 120.374 217.568 120.822 216.92C121.278 216.272 121.506 215.68 121.506 215.144C121.506 214.752 121.366 214.424 121.086 214.16C120.814 213.888 120.326 213.752 119.622 213.752C118.878 213.752 118.178 213.984 117.522 214.448V213.5C118.194 213.092 118.918 212.888 119.694 212.888C120.318 212.888 120.83 212.996 121.23 213.212C121.63 213.428 121.918 213.708 122.094 214.052C122.278 214.388 122.37 214.752 122.37 215.144C122.37 215.888 122.01 216.704 121.29 217.592C120.57 218.48 119.73 219.328 118.77 220.136H122.49Z" fill="white"/>
<path opacity="0.1" d="M54.792 9.13541C47.5571 8.86899 39.9995 8.68167 33.4577 11.783C26.9159 14.8842 21.8581 22.3981 24.0519 29.3062C24.7679 31.5583 26.1624 33.5211 27.3384 35.5712C33.2183 45.8242 33.491 59.0765 28.0398 69.5646C23.8437 77.6384 16.7316 83.7826 11.6114 91.3048C6.49112 98.827 3.58133 109.253 8.61831 116.831C12.0672 122.02 18.4675 124.545 24.668 125.157C30.8684 125.769 37.1043 124.805 43.3319 124.557C55.4502 124.092 67.5168 126.374 78.6282 131.232C93.9244 137.939 107.102 149.411 123.208 153.838C125.141 154.369 127.162 154.798 129.14 154.438C132.647 153.799 135.196 150.899 137.942 148.61C146.707 141.352 158.841 139.997 170.218 139.66C181.595 139.323 193.444 139.583 203.728 134.698C212.708 130.433 219.62 122.499 223.918 113.536C228.216 104.574 230.083 94.6142 230.787 84.6964C231.203 78.7935 231.188 72.6992 229.076 67.1731C226.701 60.9601 221.884 56.0126 216.833 51.6875C211.555 47.1667 205.802 43.0705 199.285 40.6311C191.5 37.7172 183.05 37.3009 174.762 36.6099C157.766 35.1904 140.903 32.4824 124.317 28.5091C108.575 24.7459 91.2914 20.6351 76.9547 12.9693C69.7594 9.12084 62.9032 9.42681 54.792 9.13541Z" fill="#1CC886"/>
<g opacity="0.1">
<path opacity="0.1" d="M154.587 140.064C154.587 140.064 155.323 129.738 161.135 124.108C163.588 121.762 165.214 118.683 165.768 115.335C166.018 113.743 166.123 112.131 166.08 110.52" fill="#1CC886"/>
<path opacity="0.1" d="M169.721 106.951C169.294 108.091 165.995 110.626 165.995 110.626C165.995 110.626 165.162 106.549 165.593 105.408C165.798 104.861 166.211 104.417 166.743 104.175C167.275 103.933 167.881 103.911 168.428 104.116C168.975 104.32 169.419 104.734 169.661 105.266C169.904 105.797 169.925 106.403 169.721 106.951Z" fill="#1CC886"/>
<path opacity="0.1" d="M170.774 114.542C169.796 115.266 165.649 115.601 165.649 115.601C165.649 115.601 167.169 111.727 168.147 111.001C168.617 110.671 169.198 110.538 169.764 110.63C170.331 110.722 170.84 111.031 171.182 111.492C171.525 111.953 171.674 112.53 171.597 113.099C171.521 113.668 171.225 114.185 170.774 114.539V114.542Z" fill="#1CC886"/>
<path opacity="0.1" d="M166.592 125.275C165.381 125.409 161.632 123.61 161.632 123.61C161.632 123.61 164.9 121.033 166.109 120.904C166.672 120.874 167.224 121.059 167.654 121.423C168.083 121.787 168.357 122.302 168.419 122.861C168.481 123.421 168.326 123.983 167.986 124.432C167.646 124.881 167.148 125.183 166.592 125.275Z" fill="#1CC886"/>
<path opacity="0.1" d="M161.599 132.685C160.429 133.02 156.429 131.875 156.429 131.875C156.429 131.875 159.214 128.785 160.383 128.449C160.664 128.36 160.96 128.328 161.254 128.355C161.547 128.382 161.832 128.468 162.092 128.607C162.352 128.746 162.581 128.936 162.766 129.165C162.952 129.394 163.089 129.659 163.17 129.942C163.251 130.225 163.275 130.522 163.24 130.815C163.204 131.107 163.111 131.39 162.964 131.645C162.818 131.901 162.621 132.125 162.387 132.304C162.152 132.482 161.884 132.612 161.599 132.685Z" fill="#1CC886"/>
<path opacity="0.1" d="M161.233 114.202C161.753 115.301 165.254 117.547 165.254 117.547C165.254 117.547 165.737 113.415 165.214 112.314C164.954 111.803 164.504 111.414 163.961 111.229C163.418 111.044 162.825 111.078 162.306 111.324C161.788 111.57 161.386 112.008 161.185 112.545C160.985 113.083 161.002 113.677 161.233 114.202Z" fill="#1CC886"/>
<path opacity="0.1" d="M155.503 122.942C156.335 123.835 160.342 124.932 160.342 124.932C160.342 124.932 159.565 120.844 158.739 119.949C158.342 119.522 157.791 119.27 157.208 119.248C156.625 119.227 156.058 119.437 155.63 119.833C155.201 120.229 154.948 120.778 154.924 121.361C154.9 121.944 155.108 122.512 155.503 122.942Z" fill="#1CC886"/>
<path opacity="0.1" d="M151.1 132.2C151.762 133.22 155.534 134.979 155.534 134.979C155.534 134.979 155.459 130.816 154.795 129.798C154.469 129.326 153.971 129 153.408 128.889C152.845 128.778 152.261 128.891 151.78 129.203C151.299 129.516 150.959 130.004 150.832 130.564C150.705 131.123 150.801 131.71 151.1 132.2Z" fill="#1CC886"/>
<path opacity="0.1" d="M169.721 106.951C169.294 108.091 165.995 110.626 165.995 110.626C165.995 110.626 165.162 106.549 165.593 105.408C165.798 104.861 166.211 104.417 166.743 104.175C167.275 103.933 167.881 103.911 168.428 104.116C168.975 104.32 169.419 104.734 169.661 105.266C169.904 105.797 169.925 106.403 169.721 106.951Z" fill="#1CC886"/>
<path opacity="0.1" d="M170.774 114.542C169.796 115.266 165.649 115.601 165.649 115.601C165.649 115.601 167.169 111.727 168.147 111.001C168.617 110.671 169.198 110.538 169.764 110.63C170.331 110.722 170.84 111.031 171.182 111.492C171.525 111.953 171.674 112.53 171.597 113.099C171.521 113.668 171.225 114.185 170.774 114.539V114.542Z" fill="#1CC886"/>
<path opacity="0.1" d="M166.592 125.275C165.381 125.409 161.632 123.61 161.632 123.61C161.632 123.61 164.9 121.033 166.109 120.904C166.672 120.874 167.224 121.059 167.654 121.423C168.083 121.787 168.357 122.302 168.419 122.861C168.481 123.421 168.326 123.983 167.986 124.432C167.646 124.881 167.148 125.183 166.592 125.275Z" fill="#1CC886"/>
<path opacity="0.1" d="M161.599 132.685C160.429 133.02 156.429 131.875 156.429 131.875C156.429 131.875 159.214 128.785 160.383 128.449C160.664 128.36 160.96 128.328 161.254 128.355C161.547 128.382 161.832 128.468 162.092 128.607C162.352 128.746 162.581 128.936 162.766 129.165C162.952 129.394 163.089 129.659 163.17 129.942C163.251 130.225 163.275 130.522 163.24 130.815C163.204 131.107 163.111 131.39 162.964 131.645C162.818 131.901 162.621 132.125 162.387 132.304C162.152 132.482 161.884 132.612 161.599 132.685Z" fill="#1CC886"/>
<path opacity="0.1" d="M161.233 114.202C161.753 115.301 165.254 117.547 165.254 117.547C165.254 117.547 165.737 113.415 165.214 112.314C164.954 111.803 164.504 111.414 163.961 111.229C163.418 111.044 162.825 111.078 162.306 111.324C161.788 111.57 161.386 112.008 161.185 112.545C160.985 113.083 161.002 113.677 161.233 114.202Z" fill="#1CC886"/>
<path opacity="0.1" d="M155.503 122.942C156.335 123.835 160.342 124.932 160.342 124.932C160.342 124.932 159.565 120.844 158.739 119.949C158.342 119.522 157.791 119.27 157.208 119.248C156.625 119.227 156.058 119.437 155.63 119.833C155.201 120.229 154.948 120.778 154.924 121.361C154.9 121.944 155.108 122.512 155.503 122.942Z" fill="#1CC886"/>
<path opacity="0.1" d="M151.1 132.2C151.762 133.22 155.534 134.979 155.534 134.979C155.534 134.979 155.459 130.816 154.795 129.798C154.469 129.326 153.971 129 153.408 128.889C152.845 128.778 152.261 128.891 151.78 129.203C151.299 129.516 150.959 130.004 150.832 130.564C150.705 131.123 150.801 131.71 151.1 132.2Z" fill="#1CC886"/>
</g>
<g opacity="0.1">
<path opacity="0.1" d="M156.626 100.979C156.626 100.979 157.363 90.6533 163.175 85.0232C165.627 82.6767 167.253 79.5985 167.808 76.2501C168.06 74.6584 168.164 73.0467 168.12 71.4358" fill="#1CC886"/>
<path opacity="0.1" d="M171.76 67.8662C171.344 69.0047 168.037 71.5399 168.037 71.5399C168.037 71.5399 167.204 67.4624 167.633 66.3239C167.837 65.7766 168.251 65.3329 168.783 65.0905C169.314 64.8481 169.92 64.8268 170.468 65.0313C171.015 65.2359 171.459 65.6494 171.701 66.1811C171.944 66.7127 171.965 67.3189 171.76 67.8662Z" fill="#1CC886"/>
<path opacity="0.1" d="M172.82 75.455C171.844 76.1814 167.695 76.5144 167.695 76.5144C167.695 76.5144 169.215 72.643 170.193 71.9166C170.425 71.7347 170.69 71.6011 170.974 71.5237C171.259 71.4462 171.555 71.4265 171.847 71.4656C172.139 71.5047 172.42 71.6019 172.674 71.7515C172.927 71.9011 173.149 72.1 173.324 72.3364C173.5 72.5728 173.626 72.8421 173.696 73.1282C173.765 73.4143 173.777 73.7114 173.73 74.0021C173.683 74.2928 173.578 74.5712 173.422 74.8207C173.266 75.0702 173.061 75.2859 172.82 75.455Z" fill="#1CC886"/>
<path opacity="0.1" d="M168.632 86.1908C167.423 86.324 163.674 84.5257 163.674 84.5257C163.674 84.5257 166.942 81.951 168.151 81.8199C168.442 81.7825 168.737 81.8035 169.019 81.8814C169.301 81.9594 169.565 82.0929 169.795 82.2741C170.026 82.4552 170.217 82.6804 170.359 82.9365C170.502 83.1926 170.591 83.4745 170.623 83.7656C170.655 84.0568 170.629 84.3514 170.546 84.6322C170.462 84.913 170.324 85.1745 170.139 85.4012C169.953 85.628 169.724 85.8155 169.466 85.9529C169.207 86.0902 168.924 86.1747 168.632 86.2012V86.1908Z" fill="#1CC886"/>
<path opacity="0.1" d="M163.639 93.6006C162.469 93.9357 158.469 92.791 158.469 92.791C158.469 92.791 161.255 89.7001 162.423 89.3629C162.982 89.2105 163.579 89.2845 164.084 89.569C164.589 89.8535 164.962 90.3255 165.122 90.8828C165.281 91.4401 165.215 92.0378 164.937 92.5465C164.659 93.0552 164.192 93.4339 163.637 93.6006H163.639Z" fill="#1CC886"/>
<path opacity="0.1" d="M163.272 75.1157C163.793 76.2168 167.296 78.4626 167.296 78.4626C167.296 78.4626 167.777 74.3289 167.256 73.2299C167.136 72.9627 166.964 72.7221 166.749 72.5222C166.535 72.3223 166.283 72.1672 166.008 72.0658C165.733 71.9645 165.441 71.9191 165.148 71.9321C164.855 71.9452 164.568 72.0165 164.303 72.1419C164.038 72.2672 163.801 72.4442 163.605 72.6623C163.409 72.8805 163.259 73.1355 163.163 73.4124C163.067 73.6893 163.028 73.9826 163.046 74.275C163.065 74.5675 163.142 74.8533 163.272 75.1157Z" fill="#1CC886"/>
<path opacity="0.1" d="M157.542 83.8555C158.375 84.7505 162.384 85.8453 162.384 85.8453C162.384 85.8453 161.605 81.7575 160.779 80.8645C160.378 80.4525 159.832 80.2133 159.258 80.198C158.683 80.1827 158.125 80.3925 157.703 80.7826C157.281 81.1727 157.028 81.7123 156.998 82.2864C156.968 82.8604 157.163 83.4235 157.542 83.8555Z" fill="#1CC886"/>
<path opacity="0.1" d="M153.14 93.1157C153.804 94.1355 157.574 95.8943 157.574 95.8943C157.574 95.8943 157.499 91.7315 156.835 90.7137C156.681 90.4622 156.479 90.244 156.239 90.0721C156 89.9002 155.728 89.7781 155.441 89.7129C155.154 89.6477 154.856 89.6408 154.566 89.6926C154.276 89.7444 153.999 89.8539 153.752 90.0145C153.505 90.1751 153.293 90.3837 153.128 90.6278C152.962 90.8719 152.848 91.1467 152.791 91.4358C152.734 91.7249 152.735 92.0226 152.795 92.3111C152.855 92.5996 152.973 92.8732 153.14 93.1157Z" fill="#1CC886"/>
<path opacity="0.1" d="M171.76 67.8662C171.344 69.0047 168.037 71.5399 168.037 71.5399C168.037 71.5399 167.204 67.4624 167.633 66.3239C167.837 65.7766 168.251 65.3329 168.783 65.0905C169.314 64.8481 169.92 64.8268 170.468 65.0313C171.015 65.2359 171.459 65.6494 171.701 66.1811C171.944 66.7127 171.965 67.3189 171.76 67.8662Z" fill="#1CC886"/>
<path opacity="0.1" d="M172.82 75.455C171.844 76.1814 167.695 76.5144 167.695 76.5144C167.695 76.5144 169.215 72.643 170.193 71.9166C170.425 71.7347 170.69 71.6011 170.974 71.5237C171.259 71.4462 171.555 71.4265 171.847 71.4656C172.139 71.5047 172.42 71.6019 172.674 71.7515C172.927 71.9011 173.149 72.1 173.324 72.3364C173.5 72.5728 173.626 72.8421 173.696 73.1282C173.765 73.4143 173.777 73.7114 173.73 74.0021C173.683 74.2928 173.578 74.5712 173.422 74.8207C173.266 75.0702 173.061 75.2859 172.82 75.455Z" fill="#1CC886"/>
<path opacity="0.1" d="M168.632 86.1908C167.423 86.324 163.674 84.5257 163.674 84.5257C163.674 84.5257 166.942 81.951 168.151 81.8199C168.442 81.7825 168.737 81.8035 169.019 81.8814C169.301 81.9594 169.565 82.0929 169.795 82.2741C170.026 82.4552 170.217 82.6804 170.359 82.9365C170.502 83.1926 170.591 83.4745 170.623 83.7656C170.655 84.0568 170.629 84.3514 170.546 84.6322C170.462 84.913 170.324 85.1745 170.139 85.4012C169.953 85.628 169.724 85.8155 169.466 85.9529C169.207 86.0902 168.924 86.1747 168.632 86.2012V86.1908Z" fill="#1CC886"/>
<path opacity="0.1" d="M163.639 93.6006C162.469 93.9357 158.469 92.791 158.469 92.791C158.469 92.791 161.255 89.7001 162.423 89.3629C162.982 89.2105 163.579 89.2845 164.084 89.569C164.589 89.8535 164.962 90.3255 165.122 90.8828C165.281 91.4401 165.215 92.0378 164.937 92.5465C164.659 93.0552 164.192 93.4339 163.637 93.6006H163.639Z" fill="#1CC886"/>
<path opacity="0.1" d="M163.272 75.1157C163.793 76.2168 167.296 78.4626 167.296 78.4626C167.296 78.4626 167.777 74.3289 167.256 73.2299C167.136 72.9627 166.964 72.7221 166.749 72.5222C166.535 72.3223 166.283 72.1672 166.008 72.0658C165.733 71.9645 165.441 71.9191 165.148 71.9321C164.855 71.9452 164.568 72.0165 164.303 72.1419C164.038 72.2672 163.801 72.4442 163.605 72.6623C163.409 72.8805 163.259 73.1355 163.163 73.4124C163.067 73.6893 163.028 73.9826 163.046 74.275C163.065 74.5675 163.142 74.8533 163.272 75.1157Z" fill="#1CC886"/>
<path opacity="0.1" d="M157.542 83.8555C158.375 84.7505 162.384 85.8453 162.384 85.8453C162.384 85.8453 161.605 81.7575 160.779 80.8645C160.378 80.4525 159.832 80.2133 159.258 80.198C158.683 80.1827 158.125 80.3925 157.703 80.7826C157.281 81.1727 157.028 81.7123 156.998 82.2864C156.968 82.8604 157.163 83.4235 157.542 83.8555Z" fill="#1CC886"/>
<path opacity="0.1" d="M153.14 93.1157C153.804 94.1355 157.574 95.8943 157.574 95.8943C157.574 95.8943 157.499 91.7315 156.835 90.7137C156.681 90.4622 156.479 90.244 156.239 90.0721C156 89.9002 155.728 89.7781 155.441 89.7129C155.154 89.6477 154.856 89.6408 154.566 89.6926C154.276 89.7444 153.999 89.8539 153.752 90.0145C153.505 90.1751 153.293 90.3837 153.128 90.6278C152.962 90.8719 152.848 91.1467 152.791 91.4358C152.734 91.7249 152.735 92.0226 152.795 92.3111C152.855 92.5996 152.973 92.8732 153.14 93.1157Z" fill="#1CC886"/>
</g>
<g opacity="0.1">
<path opacity="0.1" d="M46.2105 114.508C46.2105 114.508 37.3208 109.209 34.9002 101.491C33.9087 98.245 31.8898 95.4087 29.1472 93.4091C27.8376 92.4684 26.4441 91.6504 24.9844 90.9655" fill="#1CC886"/>
<path opacity="0.1" d="M23.4337 86.1034C24.2663 86.9963 25.0427 91.0842 25.0427 91.0842C25.0427 91.0842 21.0276 89.9914 20.2013 89.0985C19.8229 88.6668 19.6278 88.1045 19.6575 87.5312C19.6873 86.9579 19.9395 86.4188 20.3606 86.0286C20.7817 85.6384 21.3384 85.4279 21.9124 85.4419C22.4863 85.4558 23.0321 85.6932 23.4337 86.1034Z" fill="#1CC886"/>
<path opacity="0.1" d="M30.6873 88.5865C30.8955 89.7854 29.3303 93.6402 29.3303 93.6402C29.3303 93.6402 26.5537 90.541 26.3455 89.3421C26.2879 89.0537 26.2886 88.7567 26.3476 88.4686C26.4065 88.1805 26.5225 87.9072 26.6887 87.6646C26.8549 87.422 27.068 87.2151 27.3154 87.0561C27.5628 86.8972 27.8395 86.7893 28.1292 86.7389C28.4189 86.6885 28.7157 86.6965 29.0023 86.7626C29.2888 86.8287 29.5592 86.9514 29.7976 87.1236C30.036 87.2957 30.2375 87.5139 30.3903 87.7651C30.5431 88.0164 30.6441 88.2957 30.6873 88.5865Z" fill="#1CC886"/>
<path opacity="0.1" d="M38.3968 97.1369C37.9805 98.2775 34.6732 100.815 34.6732 100.815C34.6732 100.815 33.8406 96.7373 34.2673 95.5987C34.3624 95.3198 34.5124 95.0628 34.7085 94.8428C34.9046 94.6229 35.1428 94.4445 35.4091 94.3182C35.6753 94.1919 35.9642 94.1203 36.2586 94.1076C36.553 94.0949 36.8469 94.1413 37.1231 94.2442C37.3992 94.347 37.6519 94.5042 37.8663 94.7064C38.0806 94.9086 38.2522 95.1518 38.371 95.4215C38.4897 95.6912 38.5532 95.9819 38.5576 96.2766C38.5621 96.5712 38.5074 96.8637 38.3968 97.1369Z" fill="#1CC886"/>
<path opacity="0.1" d="M42.7699 104.928C42.5451 106.124 39.7227 109.192 39.7227 109.192C39.7227 109.192 38.2137 105.315 38.4406 104.12C38.4943 103.836 38.6035 103.565 38.7619 103.323C38.9203 103.081 39.1248 102.872 39.3638 102.709C39.6028 102.546 39.8716 102.432 40.1547 102.373C40.4379 102.313 40.73 102.311 41.0142 102.364C41.2985 102.418 41.5694 102.527 41.8115 102.686C42.0536 102.844 42.2621 103.049 42.4251 103.288C42.5881 103.526 42.7025 103.795 42.7616 104.078C42.8208 104.362 42.8236 104.654 42.7699 104.938V104.928Z" fill="#1CC886"/>
<path opacity="0.1" d="M26.0958 96.9454C27.3113 96.9745 30.8934 94.864 30.8934 94.864C30.8934 94.864 27.4175 92.5744 26.1998 92.5453C25.6228 92.543 25.0678 92.7672 24.6542 93.1696C24.2405 93.572 24.0012 94.1205 23.9876 94.6974C23.9739 95.2744 24.1871 95.8336 24.5813 96.2551C24.9755 96.6766 25.5192 96.9267 26.0958 96.9516V96.9454Z" fill="#1CC886"/>
<path opacity="0.1" d="M31.3264 105.993C32.4961 105.656 35.281 102.563 35.281 102.563C35.281 102.563 31.2806 101.42 30.1108 101.758C29.5615 101.93 29.1012 102.31 28.8284 102.817C28.5556 103.323 28.4919 103.917 28.651 104.47C28.81 105.023 29.1792 105.492 29.6795 105.777C30.1798 106.062 30.7716 106.139 31.3285 105.993H31.3264Z" fill="#1CC886"/>
<path opacity="0.1" d="M37.6163 114.088C38.8277 113.955 42.0934 111.382 42.0934 111.382C42.0934 111.382 38.3469 109.58 37.1335 109.717C36.8345 109.733 36.542 109.81 36.2739 109.944C36.0058 110.077 35.7676 110.264 35.5741 110.492C35.3805 110.72 35.2355 110.986 35.1481 111.272C35.0606 111.559 35.0324 111.86 35.0653 112.157C35.0982 112.455 35.1914 112.743 35.3393 113.003C35.4872 113.264 35.6866 113.491 35.9253 113.672C36.1641 113.852 36.4372 113.982 36.728 114.054C37.0187 114.126 37.321 114.137 37.6163 114.088Z" fill="#1CC886"/>
<path opacity="0.1" d="M23.4337 86.1034C24.2663 86.9963 25.0427 91.0842 25.0427 91.0842C25.0427 91.0842 21.0276 89.9914 20.2013 89.0985C19.8229 88.6668 19.6278 88.1045 19.6575 87.5312C19.6873 86.9579 19.9395 86.4188 20.3606 86.0286C20.7817 85.6384 21.3384 85.4279 21.9124 85.4419C22.4863 85.4558 23.0321 85.6932 23.4337 86.1034Z" fill="#1CC886"/>
<path opacity="0.1" d="M30.6873 88.5865C30.8955 89.7854 29.3303 93.6402 29.3303 93.6402C29.3303 93.6402 26.5537 90.541 26.3455 89.3421C26.2879 89.0537 26.2886 88.7567 26.3476 88.4686C26.4065 88.1805 26.5225 87.9072 26.6887 87.6646C26.8549 87.422 27.068 87.2151 27.3154 87.0561C27.5628 86.8972 27.8395 86.7893 28.1292 86.7389C28.4189 86.6885 28.7157 86.6965 29.0023 86.7626C29.2888 86.8287 29.5592 86.9514 29.7976 87.1236C30.036 87.2957 30.2375 87.5139 30.3903 87.7651C30.5431 88.0164 30.6441 88.2957 30.6873 88.5865Z" fill="#1CC886"/>
<path opacity="0.1" d="M38.3968 97.1369C37.9805 98.2775 34.6732 100.815 34.6732 100.815C34.6732 100.815 33.8406 96.7373 34.2673 95.5987C34.3624 95.3198 34.5124 95.0628 34.7085 94.8428C34.9046 94.6229 35.1428 94.4445 35.4091 94.3182C35.6753 94.1919 35.9642 94.1203 36.2586 94.1076C36.553 94.0949 36.8469 94.1413 37.1231 94.2442C37.3992 94.347 37.6519 94.5042 37.8663 94.7064C38.0806 94.9086 38.2522 95.1518 38.371 95.4215C38.4897 95.6912 38.5532 95.9819 38.5576 96.2766C38.5621 96.5712 38.5074 96.8637 38.3968 97.1369Z" fill="#1CC886"/>
<path opacity="0.1" d="M42.7699 104.928C42.5451 106.124 39.7227 109.192 39.7227 109.192C39.7227 109.192 38.2137 105.315 38.4406 104.12C38.4943 103.836 38.6035 103.565 38.7619 103.323C38.9203 103.081 39.1248 102.872 39.3638 102.709C39.6028 102.546 39.8716 102.432 40.1547 102.373C40.4379 102.313 40.73 102.311 41.0142 102.364C41.2985 102.418 41.5694 102.527 41.8115 102.686C42.0536 102.844 42.2621 103.049 42.4251 103.288C42.5881 103.526 42.7025 103.795 42.7616 104.078C42.8208 104.362 42.8236 104.654 42.7699 104.938V104.928Z" fill="#1CC886"/>
<path opacity="0.1" d="M26.0958 96.9454C27.3113 96.9745 30.8934 94.864 30.8934 94.864C30.8934 94.864 27.4175 92.5744 26.1998 92.5453C25.6228 92.543 25.0678 92.7672 24.6542 93.1696C24.2405 93.572 24.0012 94.1205 23.9876 94.6974C23.9739 95.2744 24.1871 95.8336 24.5813 96.2551C24.9755 96.6766 25.5192 96.9267 26.0958 96.9516V96.9454Z" fill="#1CC886"/>
<path opacity="0.1" d="M31.3264 105.993C32.4961 105.656 35.281 102.563 35.281 102.563C35.281 102.563 31.2806 101.42 30.1108 101.758C29.5615 101.93 29.1012 102.31 28.8284 102.817C28.5556 103.323 28.4919 103.917 28.651 104.47C28.81 105.023 29.1792 105.492 29.6795 105.777C30.1798 106.062 30.7716 106.139 31.3285 105.993H31.3264Z" fill="#1CC886"/>
<path opacity="0.1" d="M37.6163 114.088C38.8277 113.955 42.0934 111.382 42.0934 111.382C42.0934 111.382 38.3469 109.58 37.1335 109.717C36.8345 109.733 36.542 109.81 36.2739 109.944C36.0058 110.077 35.7676 110.264 35.5741 110.492C35.3805 110.72 35.2355 110.986 35.1481 111.272C35.0606 111.559 35.0324 111.86 35.0653 112.157C35.0982 112.455 35.1914 112.743 35.3393 113.003C35.4872 113.264 35.6866 113.491 35.9253 113.672C36.1641 113.852 36.4372 113.982 36.728 114.054C37.0187 114.126 37.321 114.137 37.6163 114.088Z" fill="#1CC886"/>
</g>
<path opacity="0.1" d="M155.18 176.838C161.156 179.437 168.447 177.856 175.228 178.039C176.154 178.064 177.139 178.141 177.882 178.59C178.625 179.04 178.993 179.766 179.503 180.391C181.403 182.709 185.298 183.454 188.701 183.061C192.104 182.668 195.224 181.365 198.436 180.374C203.987 178.659 210.331 177.876 215.807 179.75C216.308 179.92 216.848 180.118 217.376 180.049C218.577 179.897 218.935 178.653 219.774 177.943C221.289 176.659 224.582 177.008 225.248 175.316C225.637 174.325 224.74 173.31 223.762 172.633C220.015 170.044 214.666 169.617 209.769 170.017C204.871 170.417 200.057 171.518 195.134 171.522C189.001 171.522 183.075 169.832 177.001 169.139C172.795 168.66 168.203 168.722 164.259 170.131C159.984 171.655 159.043 175.087 155.18 176.838Z" fill="#1CC886"/>
<path opacity="0.1" d="M42.0934 168.864C52.2922 171.801 64.739 170.013 76.3116 170.221C77.8955 170.25 79.5731 170.335 80.8448 170.845C82.1166 171.355 82.741 172.177 83.6131 172.881C86.8559 175.501 93.5018 176.344 99.3089 175.899C105.116 175.454 110.444 173.982 115.927 172.862C125.401 170.924 136.233 170.042 145.578 172.155C146.436 172.348 147.339 172.571 148.259 172.494C150.307 172.321 150.917 170.916 152.351 170.113C154.938 168.656 160.556 169.057 161.693 167.147C162.359 166.027 160.827 164.878 159.157 164.114C152.772 161.19 143.634 160.707 135.273 161.159C126.912 161.61 118.695 162.853 110.297 162.859C99.8272 162.859 89.7116 160.95 79.3442 160.166C72.1633 159.625 64.3269 159.691 57.5935 161.29C50.2941 163.015 48.6852 166.893 42.0934 168.864Z" fill="#1CC886"/>
<path opacity="0.1" d="M14.7938 176.061C17.7078 177.814 21.2462 176.748 24.5473 176.871C24.9989 176.888 25.4776 176.94 25.8398 177.241C26.202 177.543 26.381 178.037 26.6286 178.457C27.5528 180.02 29.4469 180.524 31.1016 180.257C32.7563 179.991 34.2757 179.115 35.8388 178.445C38.5446 177.289 41.6272 176.763 44.2893 178.028C44.5174 178.174 44.7847 178.247 45.0553 178.236C45.6381 178.132 45.8129 177.294 46.2208 176.815C46.9577 175.949 48.5603 176.19 48.8829 175.044C49.0724 174.375 48.6353 173.691 48.1607 173.235C46.3416 171.489 43.7357 171.201 41.3525 171.47C38.9693 171.738 36.6277 172.467 34.232 172.467C31.2494 172.467 28.3666 171.328 25.411 170.86C23.3629 170.535 21.1296 170.577 19.2105 171.53C17.1312 172.571 16.6733 174.885 14.7938 176.061Z" fill="#1CC886"/>
<path d="M150.757 16.4286H54.0511C52.8879 16.4267 51.7357 16.6539 50.6603 17.0974C49.585 17.5408 48.6075 18.1917 47.7837 19.013C46.9599 19.8342 46.306 20.8097 45.8593 21.8837C45.4126 22.9578 45.1818 24.1092 45.1802 25.2725V159.258C45.1851 161.606 46.1224 163.856 47.7859 165.514C49.4494 167.171 51.703 168.1 54.0511 168.096H150.757C151.92 168.098 153.072 167.87 154.148 167.427C155.223 166.984 156.201 166.333 157.024 165.511C157.848 164.69 158.502 163.715 158.949 162.641C159.395 161.567 159.626 160.415 159.628 159.252V25.2725C159.626 24.1092 159.395 22.9578 158.949 21.8837C158.502 20.8097 157.848 19.8342 157.024 19.013C156.201 18.1917 155.223 17.5408 154.148 17.0974C153.072 16.6539 151.92 16.4267 150.757 16.4286Z" fill="url(#paint1_linear)"/>
<path d="M154.093 18.2457H50.7063C48.4072 18.2457 46.5435 20.1094 46.5435 22.4085V162.578C46.5435 164.877 48.4072 166.741 50.7063 166.741H154.093C156.392 166.741 158.256 164.877 158.256 162.578V22.4085C158.256 20.1094 156.392 18.2457 154.093 18.2457Z" fill="#535461"/>
<path d="M152.58 32.291H52.2194V152.694H152.58V32.291Z" fill="#F6F7F9"/>
<path d="M101.946 26.4193C102.699 26.4193 103.309 25.8089 103.309 25.056C103.309 24.3031 102.699 23.6927 101.946 23.6927C101.193 23.6927 100.583 24.3031 100.583 25.056C100.583 25.8089 101.193 26.4193 101.946 26.4193Z" fill="#F6F7F9"/>
<path d="M101.946 163.563C104.204 163.563 106.034 161.732 106.034 159.475C106.034 157.217 104.204 155.387 101.946 155.387C99.6884 155.387 97.8582 157.217 97.8582 159.475C97.8582 161.732 99.6884 163.563 101.946 163.563Z" fill="#F6F7F9"/>
<g opacity="0.2">
<path opacity="0.2" d="M152.58 32.291H52.2194V38.2916H152.58V32.291Z" fill="#1CC886"/>
</g>
<path d="M55.3582 36.5724C56.0651 36.5724 56.6382 35.9993 56.6382 35.2923C56.6382 34.5854 56.0651 34.0123 55.3582 34.0123C54.6512 34.0123 54.0781 34.5854 54.0781 35.2923C54.0781 35.9993 54.6512 36.5724 55.3582 36.5724Z" fill="#F6F7F9"/>
<path d="M58.6197 36.5724C59.3266 36.5724 59.8997 35.9993 59.8997 35.2923C59.8997 34.5854 59.3266 34.0123 58.6197 34.0123C57.9127 34.0123 57.3396 34.5854 57.3396 35.2923C57.3396 35.9993 57.9127 36.5724 58.6197 36.5724Z" fill="#F6F7F9"/>
<path d="M61.8792 36.5724C62.5861 36.5724 63.1592 35.9993 63.1592 35.2923C63.1592 34.5854 62.5861 34.0123 61.8792 34.0123C61.1722 34.0123 60.5991 34.5854 60.5991 35.2923C60.5991 35.9993 61.1722 36.5724 61.8792 36.5724Z" fill="#F6F7F9"/>
<path d="M148.673 67.6851H55.2167V67.9973H148.673V67.6851Z" fill="#DCE0ED"/>
<path d="M148.673 74.9346H55.2167V75.2468H148.673V74.9346Z" fill="#DCE0ED"/>
<path d="M148.673 82.1862H55.2167V82.4984H148.673V82.1862Z" fill="#DCE0ED"/>
<path d="M148.673 89.4357H55.2167V89.7479H148.673V89.4357Z" fill="#DCE0ED"/>
<path d="M148.673 96.6852H55.2167V96.9975H148.673V96.6852Z" fill="#DCE0ED"/>
<g opacity="0.2">
<path opacity="0.2" d="M148.673 96.9974H55.1022V82.7399L63.6838 86.9693L72.5651 88.1744L80.3578 85.8245L89.7595 78.5334L94.4885 75.8026L97.9457 75.1365L101.253 75.3134L106.692 78.0005L114.087 82.7107L119.89 83.4559L124.49 81.8698L134.243 73.8835L139.222 72.1081L144.432 72.9136L148.673 75.3634V96.9974Z" fill="#1CC886"/>
</g>
<path d="M71.412 88.1702C62.9844 88.1702 55.1979 83.0167 55.1001 82.9501L55.3332 82.6045C55.4539 82.6857 67.4386 90.6138 77.6229 86.6425C81.3361 85.1855 83.9795 82.9417 86.5375 80.7625C89.2079 78.4875 91.7285 76.3395 95.167 75.4071C99.1092 74.3393 103.418 75.3051 106.692 77.9963C109.491 80.2963 115.065 83.9887 120.953 82.8855C123.955 82.3215 126.484 80.1298 129.162 77.809C134.297 73.359 139.609 68.757 148.796 75.3592L148.553 75.6964C139.632 69.2857 134.449 73.7794 129.435 78.1233C126.713 80.4815 124.142 82.7024 121.03 83.2935C114.974 84.4299 109.283 80.6626 106.427 78.3169C103.257 75.713 99.0904 74.7785 95.2752 75.8088C91.9283 76.7163 89.4473 78.8351 86.806 81.0789C84.223 83.281 81.5526 85.556 77.7748 87.0296C75.7436 87.8033 73.5855 88.1902 71.412 88.1702Z" fill="#1CC886"/>
<path d="M100.187 77.4323C101.467 77.4323 102.504 76.3951 102.504 75.1157C102.504 73.8363 101.467 72.7991 100.187 72.7991C98.9078 72.7991 97.8706 73.8363 97.8706 75.1157C97.8706 76.3951 98.9078 77.4323 100.187 77.4323Z" fill="#1CC886"/>
<g opacity="0.2">
<path opacity="0.2" d="M130.405 44.4609H101.182C101.056 44.4609 100.936 44.5109 100.847 44.5999C100.758 44.6889 100.708 44.8096 100.708 44.9354V64.6983C100.708 64.7933 100.736 64.8861 100.79 64.9647C100.843 65.0432 100.919 65.1039 101.007 65.1389C101.096 65.1739 101.193 65.1816 101.285 65.1609C101.378 65.1402 101.462 65.0922 101.528 65.023L106.592 59.6218C106.636 59.5744 106.689 59.5367 106.749 59.5109C106.808 59.4852 106.872 59.4719 106.937 59.4719H130.405C130.531 59.4719 130.651 59.4219 130.74 59.3329C130.829 59.2439 130.879 59.1232 130.879 58.9974V44.9313C130.878 44.8061 130.828 44.6865 130.739 44.5984C130.65 44.5103 130.53 44.4609 130.405 44.4609Z" fill="#1CC886"/>
</g>
<path d="M124.113 48.12H107.472V50.2014H124.113V48.12Z" fill="#F6F7F9"/>
<path d="M112.041 52.7324H107.472V54.8138H112.041V52.7324Z" fill="#F6F7F9"/>
<g opacity="0.2">
<path opacity="0.2" d="M67.6779 111.892H63.1093V113.973H67.6779V111.892Z" fill="#1CC886"/>
</g>
<g opacity="0.2">
<path opacity="0.2" d="M67.6779 115.915H63.1093V117.997H67.6779V115.915Z" fill="#1CC886"/>
</g>
<g opacity="0.2">
<path opacity="0.2" d="M67.6779 119.939H63.1093V122.02H67.6779V119.939Z" fill="#1CC886"/>
</g>
<g opacity="0.2">
<path opacity="0.2" d="M67.6779 123.964H63.1093V126.045H67.6779V123.964Z" fill="#1CC886"/>
</g>
<g opacity="0.2">
<path opacity="0.2" d="M67.6779 127.987H63.1093V130.069H67.6779V127.987Z" fill="#1CC886"/>
</g>
<g opacity="0.2">
<path opacity="0.2" d="M67.6779 132.011H63.1093V134.092H67.6779V132.011Z" fill="#1CC886"/>
</g>
<g opacity="0.2">
<path opacity="0.2" d="M67.6779 136.036H63.1093V138.118H67.6779V136.036Z" fill="#1CC886"/>
</g>
<g opacity="0.2">
<path opacity="0.2" d="M67.6779 140.059H63.1093V142.141H67.6779V140.059Z" fill="#1CC886"/>
</g>
<g opacity="0.2">
<path opacity="0.2" d="M76.2803 142.141H71.7117V144.222H76.2803V142.141Z" fill="#1CC886"/>
</g>
<g opacity="0.2">
<path opacity="0.2" d="M84.3292 142.141H79.7605V144.222H84.3292V142.141Z" fill="#1CC886"/>
</g>
<g opacity="0.2">
<path opacity="0.2" d="M92.378 142.141H87.8093V144.222H92.378V142.141Z" fill="#1CC886"/>
</g>
<g opacity="0.2">
<path opacity="0.2" d="M100.425 142.141H95.856V144.222H100.425V142.141Z" fill="#1CC886"/>
</g>
<g opacity="0.2">
<path opacity="0.2" d="M108.473 142.141H103.905V144.222H108.473V142.141Z" fill="#1CC886"/>
</g>
<g opacity="0.2">
<path opacity="0.2" d="M116.522 142.141H111.953V144.222H116.522V142.141Z" fill="#1CC886"/>
</g>
<g opacity="0.2">
<path opacity="0.2" d="M124.569 142.141H120V144.222H124.569V142.141Z" fill="#1CC886"/>
</g>
<g opacity="0.2">
<path opacity="0.2" d="M132.617 142.141H128.049V144.222H132.617V142.141Z" fill="#1CC886"/>
</g>
<g opacity="0.2">
<path opacity="0.2" d="M140.666 142.141H136.098V144.222H140.666V142.141Z" fill="#1CC886"/>
</g>
<path d="M124.113 52.7324H117.176V54.8138H124.113V52.7324Z" fill="#F6F7F9"/>
<path d="M76.2803 127.015H71.7117V140.059H76.2803V127.015Z" fill="#1CC886"/>
<path d="M84.3292 120.979H79.7605V140.059H84.3292V120.979Z" fill="#1CC886"/>
<path d="M92.378 115.915H87.8093V140.059H92.378V115.915Z" fill="#1CC886"/>
<path d="M100.425 118.54H95.856V140.057H100.425V118.54Z" fill="#1CC886"/>
<path d="M108.473 113.973H103.905V140.059H108.473V113.973Z" fill="#1CC886"/>
<g opacity="0.2">
<path opacity="0.2" d="M116.522 123.964H111.953V140.059H116.522V123.964Z" fill="#1CC886"/>
</g>
<g opacity="0.2">
<path opacity="0.2" d="M124.569 123.964H120V140.059H124.569V123.964Z" fill="#1CC886"/>
</g>
<g opacity="0.2">
<path opacity="0.2" d="M132.617 123.964H128.049V140.059H132.617V123.964Z" fill="#1CC886"/>
</g>
<g opacity="0.2">
<path opacity="0.2" d="M140.666 123.964H136.098V140.059H140.666V123.964Z" fill="#1CC886"/>
</g>
<path d="M211.95 65.7223C207.002 62.8771 205.133 62.1715 205.123 62.1673L205.023 62.0945C204.483 61.68 204.054 61.1388 203.774 60.5188C203.774 60.4044 203.774 60.292 203.774 60.1796V60.2129C203.853 58.7059 204.925 57.3343 205.943 56.1375L208.543 53.0778C208.839 52.7758 209.068 52.4139 209.213 52.0163C209.267 51.8035 209.29 51.5842 209.284 51.3649C209.284 51.2754 209.284 51.1859 209.284 51.0984C209.271 50.3387 209.248 49.5769 209.221 48.8089C209.196 48.1449 209.026 47.3082 208.362 47.1708C208.016 47.1001 207.56 47.225 207.377 46.9273C207.316 46.8057 207.3 46.6661 207.333 46.5339C207.332 46.5443 207.332 46.5548 207.333 46.5652V46.5277C207.463 46.0151 207.546 45.492 207.581 44.9646C207.594 44.6965 207.557 44.4283 207.473 44.1736C207.088 43.0705 205.764 42.6188 204.592 42.4107C203.42 42.2025 202.109 42.0235 201.374 41.1077C201.147 40.8247 200.993 40.4833 200.735 40.2273C200.396 39.927 199.983 39.7229 199.539 39.6362C198.085 39.277 196.554 39.4102 195.184 40.015C194.618 40.2668 194.05 40.6082 193.43 40.5707C192.809 40.5333 192.233 40.0858 191.596 39.9775C190.568 39.8027 189.583 40.5582 189.077 41.4512C188.777 41.9823 188.617 42.581 188.611 43.1912C188.611 43.2245 188.611 43.2599 188.611 43.2932C188.596 43.9491 188.835 44.5855 189.279 45.0686C189.723 45.5286 190.385 45.845 190.568 46.4507C190.643 46.6963 190.624 46.9627 190.691 47.2125C190.691 47.2437 190.709 47.2749 190.72 47.3041L190.686 47.3478C189.625 48.7079 189.05 50.3847 189.055 52.11C189.065 53.7836 189.608 55.4104 190.605 56.7552C191.601 58.0999 192.999 59.0929 194.597 59.5905C194.597 59.6676 194.597 59.7466 194.597 59.8237C194.597 60.7686 194.329 61.7323 193.521 62.4421L186.515 65.2603C186.515 65.2603 182.292 64.7586 180.769 70.9321C180.523 71.957 180.435 73.0132 180.506 74.0646C180.562 74.995 180.433 76.6351 179.351 78.756C177.617 82.1487 178.013 89.9373 181.555 90.7095C184.9 91.438 186.209 91.1258 186.343 91.0987V91.234C186.288 92.691 185.758 105.302 183.828 106.828C183.295 107.244 183.395 107.536 183.828 107.727C183.828 107.727 183.828 107.808 183.816 107.954C183.757 108.876 183.46 112.387 182.169 114.385C180.673 116.698 180.829 130.042 180.829 130.042L179.824 137.916C179.824 137.916 180.448 142.774 179.824 143.623C179.262 144.378 178.512 162.355 178.367 166.25H178.3C177.992 166.268 177.693 166.362 177.429 166.523C177.165 166.683 176.945 166.906 176.787 167.172C175.954 168.516 173.061 170.999 173.061 170.999C172.437 171.892 170.108 172.746 168.878 173.15C168.713 173.202 168.554 173.272 168.403 173.358C167.943 173.608 167.574 173.997 167.348 174.469C167.268 174.608 167.216 174.762 167.197 174.922C167.177 175.081 167.189 175.243 167.233 175.397C167.55 176.168 174.085 176.707 175.738 175.936C177.039 175.329 182.19 174.532 184.328 174.219C184.716 174.17 185.077 173.993 185.354 173.717C185.63 173.44 185.808 173.08 185.858 172.692C185.876 172.556 185.868 172.419 185.832 172.287C185.796 172.156 185.734 172.033 185.649 171.926C185.233 171.418 185.025 170.034 184.936 169.13C185.109 169.06 185.271 168.964 185.416 168.845C185.241 166.043 185.642 163.235 186.596 160.595C188.172 156.432 188.645 148.716 188.262 143.704C188.262 143.704 193.065 123.036 196.845 121.106C196.904 121.179 198.737 123.535 198.97 130.822C199.208 138.226 201.884 143.084 201.884 143.084C201.884 143.084 200.702 155.655 201.884 160.359L200.338 167.782C200.225 167.684 200.153 167.609 200.153 167.609C200.153 167.609 200.198 167.817 200.263 168.146L200.23 168.302L200.296 168.319C200.471 169.247 200.731 170.864 200.625 171.813C200.563 172.352 200.417 173.093 200.309 173.82C200.146 174.962 200.101 176.07 200.702 176.317C201.687 176.713 207.475 177.254 208.459 175.982C208.68 175.723 208.824 175.407 208.875 175.07C208.926 174.733 208.881 174.389 208.747 174.076C208.675 173.901 208.578 173.738 208.459 173.591C208.459 173.591 206.923 171.079 207.356 169.307C207.397 169.134 207.402 168.954 207.371 168.779C207.339 168.604 207.272 168.437 207.173 168.289C207.24 167.419 207.589 163.396 208.499 159.978C209.484 156.267 211.563 148.131 210.033 142.78C209.975 142.572 209.908 142.364 209.837 142.155C208.955 139.235 208.66 136.168 208.971 133.133C208.404 130.541 208.404 127.857 208.971 125.265C209.916 120.946 210.576 116.704 210.576 116.704C210.576 116.704 211.099 110.999 210.643 107.5L210.612 107.275L210.861 107.219C210.861 107.219 209.523 101.281 209.051 97.5032C208.938 96.6103 208.792 95.4801 208.634 94.2729C209.071 94.2031 209.5 94.0966 209.919 93.9544C214.156 92.4829 215.488 79.2202 215.488 79.2202V75.0158C215.488 75.0158 216.912 68.5759 211.95 65.7223ZM180.271 168.142C180.14 168.075 180.063 168.031 180.063 168.031L180.271 168.142Z" fill="url(#paint2_linear)"/>
<path d="M209.384 142.268C211.228 147.571 209.076 156.178 208.077 160.02C207.078 163.862 206.769 168.477 206.769 168.477C202.85 169.091 200.007 168.321 200.007 168.321L201.62 160.411C200.467 155.724 201.62 143.196 201.62 143.196C201.62 143.196 199.008 138.355 198.777 130.976C198.55 123.712 196.76 121.366 196.696 121.294C193.007 123.215 188.318 143.814 188.318 143.814C188.703 148.81 188.241 156.494 186.705 160.644C185.773 163.281 185.381 166.077 185.552 168.868C185.015 169.322 184.267 169.399 183.46 169.27C181.272 168.906 178.648 167.016 178.648 167.016C178.648 167.016 179.48 144.576 180.105 143.729C180.729 142.882 180.105 138.041 180.105 138.041L181.102 130.202C181.102 130.202 180.95 116.904 182.409 114.591C183.67 112.6 183.959 109.101 184.016 108.183C184.016 108.037 184.028 107.956 184.028 107.956L186.251 105.292C186.251 105.292 207.773 103.679 209.386 105.292C209.783 105.689 210.027 106.589 210.173 107.723C210.616 111.209 210.108 116.896 210.108 116.896C210.108 116.896 209.463 121.123 208.541 125.429C207.985 128.013 207.985 130.685 208.541 133.268C208.235 136.294 208.521 139.351 209.384 142.268Z" fill="#65617D"/>
<path d="M208.039 175.97C207.077 177.237 201.429 176.698 200.467 176.305C199.88 176.061 199.926 174.958 200.084 173.82C200.184 173.095 200.332 172.363 200.392 171.819C200.546 170.435 199.93 167.63 199.93 167.63C199.93 167.63 201.2 168.974 201.506 167.63C201.641 167.043 202.113 166.741 202.602 166.589C203.261 166.391 203.969 166.435 204.599 166.714C205.595 167.147 207.263 168.071 206.963 169.32C206.547 171.085 208.039 173.589 208.039 173.589C208.155 173.735 208.249 173.898 208.318 174.072C208.45 174.383 208.493 174.725 208.444 175.06C208.395 175.394 208.255 175.709 208.039 175.97Z" fill="#A27772"/>
<path opacity="0.1" d="M208.039 175.97C207.078 177.237 201.429 176.698 200.467 176.305C199.88 176.061 199.926 174.958 200.084 173.82C200.69 174.103 201.722 174.34 203.441 174.18C203.843 174.142 204.247 174.13 204.651 174.142C205.873 174.199 207.099 174.174 208.318 174.069C208.45 174.381 208.494 174.724 208.445 175.059C208.396 175.394 208.255 175.709 208.039 175.97Z" fill="black"/>
<path opacity="0.1" d="M188.324 143.806C188.709 148.801 188.247 156.486 186.711 160.636C185.779 163.272 185.387 166.069 185.558 168.86C185.021 169.313 184.274 169.39 183.466 169.261C183.93 166.014 185.905 152.052 187.181 141.019C188.613 128.454 195.357 119.807 195.357 119.807L196.702 121.287C193.009 123.206 188.324 143.806 188.324 143.806Z" fill="black"/>
<path d="M205.733 63.029L204.794 67.6393L200.198 75.3634L194.531 72.9427C194.531 72.9427 186.83 64.8732 191.669 63.7201C192.249 63.5962 192.796 63.3523 193.276 63.0041C194.227 62.2881 194.525 61.2453 194.525 60.2254C194.525 58.5415 193.738 56.9181 193.738 56.9181L203.651 53.796C203.242 55.0987 203.003 56.4489 202.94 57.8131C202.865 60.5189 203.868 61.8426 204.69 62.4775C204.998 62.7284 205.352 62.9159 205.733 63.029Z" fill="#FBBEBE"/>
<path opacity="0.1" d="M203.658 53.8063C203.248 55.1091 203.009 56.4593 202.946 57.8234C202.766 58.0384 202.573 58.2427 202.369 58.4354C201.346 59.4136 200.077 60.0965 198.697 60.4116C197.317 60.7268 195.877 60.6624 194.531 60.2254C194.531 58.5415 193.744 56.918 193.744 56.918L203.658 53.8063Z" fill="black"/>
<path d="M204.794 52.5388C204.794 54.0894 204.334 55.605 203.472 56.8939C202.61 58.1829 201.385 59.1872 199.952 59.78C198.519 60.3727 196.943 60.5271 195.422 60.2238C193.902 59.9204 192.505 59.1729 191.409 58.0757C190.314 56.9785 189.568 55.5811 189.267 54.06C188.965 52.539 189.122 50.9628 189.716 49.5308C190.311 48.0987 191.317 46.8752 192.607 46.015C193.897 45.1548 195.413 44.6965 196.964 44.6982C197.994 44.6949 199.015 44.8955 199.967 45.2885C200.919 45.6814 201.784 46.259 202.512 46.9879C203.24 47.7168 203.816 48.5825 204.208 49.5352C204.6 50.4879 204.799 51.5087 204.794 52.5388Z" fill="#FBBEBE"/>
<path opacity="0.1" d="M205.733 63.029L204.794 67.6393L200.198 75.3634L194.531 72.9427C194.531 72.9427 186.83 64.8731 191.669 63.72C192.249 63.5962 192.796 63.3523 193.276 63.004C192.402 65.4081 196.011 70.4076 196.011 70.4076C196.427 71.032 197.395 70.6365 197.395 70.6365C199.718 70.2869 203.999 63.5993 204.696 62.4879C205.003 62.7344 205.355 62.9182 205.733 63.029Z" fill="black"/>
<path opacity="0.1" d="M210.17 107.735C208.807 108.045 201.256 109.719 198.392 109.301C195.243 108.838 189.115 108.533 189.115 108.533C189.115 108.533 185.214 108.741 184.013 108.195C184.013 108.05 184.026 107.968 184.026 107.968L186.249 105.304C186.249 105.304 207.77 103.691 209.384 105.304C209.781 105.698 210.025 106.597 210.17 107.735Z" fill="black"/>
<path d="M196.011 70.6365C196.011 70.6365 191.956 65.0168 193.484 62.8334L186.634 65.6412C186.634 65.6412 182.511 65.1416 181.014 71.2943C180.775 72.3166 180.689 73.3687 180.758 74.4163C180.812 75.3446 180.687 76.9785 179.63 79.0912C177.938 82.4734 178.323 90.235 181.782 91.0051C185.242 91.7752 186.47 91.3881 186.47 91.3881C186.47 91.3881 186.01 105.454 184.011 107.067C182.013 108.68 189.105 108.297 189.105 108.297C189.105 108.297 195.232 108.605 198.383 109.065C201.535 109.525 210.372 107.452 210.372 107.452C210.372 107.452 209.065 101.533 208.605 97.7675C208.145 94.0023 207.067 85.9827 207.067 85.9827L214.908 75.3675C214.908 75.3675 216.29 68.9506 211.448 66.1074C206.607 63.2642 204.788 62.569 204.788 62.569C204.788 62.569 199.93 70.4783 197.395 70.8676C197.395 70.8676 196.431 71.2547 196.011 70.6365Z" fill="#7C7CDD"/>
<path opacity="0.1" d="M187.019 72.8657C187.019 72.8657 186.942 75.4029 187.402 76.4041C187.862 77.4053 189.554 82.9376 189.554 82.9376H185.712C185.712 82.9376 187.793 80.7084 187.633 79.6323C187.473 78.5563 187.019 72.8657 187.019 72.8657Z" fill="black"/>
<path d="M198.394 92.0041C198.394 92.0041 189.906 89.9228 189.115 88.1598C188.324 86.3969 186.141 82.438 186.141 82.438L187.036 81.2308L191.165 84.4716C191.165 84.4716 196.083 88.3908 198.39 88.7759C200.696 89.161 198.394 92.0041 198.394 92.0041Z" fill="#FBBEBE"/>
<path opacity="0.05" d="M198.394 92.0041C198.394 92.0041 189.906 89.9228 189.115 88.1598C188.324 86.3969 186.141 82.438 186.141 82.438L187.036 81.2308L191.165 84.4716C191.165 84.4716 196.083 88.3908 198.39 88.7759C200.696 89.161 198.394 92.0041 198.394 92.0041Z" fill="black"/>
<path d="M205.733 82.0134V86.6175H204.992C201.335 86.6182 197.739 87.5493 194.541 89.3233L193.155 90.0934L192.782 90.3016L190.399 84.9357L192.628 82.9376H192.743C193.288 82.9896 195.646 83.1873 196.645 82.8502C197.595 82.5275 198.773 81.5056 201.568 82.2257C202.946 82.5775 204.122 84.1219 205.458 83.639L205.733 82.0134Z" fill="#FBBEBE"/>
<path opacity="0.1" d="M213.149 73.6358L214.687 75.3634V79.5532C214.687 79.5532 213.38 92.7722 209.23 94.2333C205.079 95.6945 197.672 93.3862 197.672 93.3862C197.672 93.3862 195.757 88.3138 196.652 88.0079C197.547 87.7019 204.561 85.8474 204.561 85.8474C204.561 85.8474 204.463 78.0921 205.999 75.7859C205.999 75.7859 205 68.5635 208.46 68.4094C211.919 68.2554 213.149 73.6358 213.149 73.6358Z" fill="black"/>
<path d="M213.38 73.6358L214.918 75.3634V79.5532C214.918 79.5532 213.615 92.7722 209.452 94.2333C205.29 95.6945 197.892 93.3862 197.892 93.3862C197.892 93.3862 195.979 88.3138 196.874 88.0079C197.769 87.7019 204.784 85.8474 204.784 85.8474C204.784 85.8474 204.684 78.0921 206.222 75.7859C206.222 75.7859 205.223 68.5635 208.682 68.4094C212.141 68.2554 213.38 73.6358 213.38 73.6358Z" fill="#7C7CDD"/>
<path opacity="0.1" d="M202.644 55.869C202.675 55.3633 202.686 54.8283 202.469 54.3725C202.253 53.9167 201.745 53.5525 201.25 53.669C200.592 53.823 200.309 54.6785 199.663 54.8845C199.12 55.0573 198.527 54.6764 198.269 54.1644C198.011 53.6524 198.003 53.0612 198 52.4993C198 51.8582 198 51.215 198 50.574C198 49.8746 197.978 49.117 197.547 48.5717C197.012 47.8869 195.753 47.5892 194.912 47.6163C194.352 47.6228 193.814 47.8398 193.407 48.2241C192.957 48.605 192.437 48.888 191.823 48.7861C191.568 48.7474 191.329 48.6374 191.134 48.4687C190.938 48.3 190.795 48.0795 190.72 47.8328V47.8078C191.373 46.9444 192.198 46.2258 193.143 45.6972C194.089 45.1687 195.133 44.8416 196.211 44.7368C197.288 44.6319 198.376 44.7514 199.405 45.0878C200.434 45.4242 201.383 45.9702 202.19 46.6914C202.998 47.4125 203.648 48.2932 204.098 49.2779C204.548 50.2626 204.79 51.3299 204.807 52.4125C204.825 53.4952 204.618 54.5697 204.199 55.5683C203.781 56.567 203.16 57.468 202.376 58.2148C202.509 57.4385 202.599 56.6554 202.644 55.869Z" fill="black"/>
<path d="M191.819 48.5488C191.563 48.5097 191.324 48.3993 191.129 48.2302C190.934 48.0612 190.791 47.8404 190.715 47.5934C190.651 47.3457 190.668 47.0814 190.595 46.8337C190.416 46.2301 189.762 45.9158 189.346 45.4579C188.48 44.5379 188.536 43.0268 189.15 41.9195C189.646 41.0287 190.607 40.2773 191.608 40.45C192.233 40.5583 192.768 41.0016 193.398 41.0412C194.029 41.0807 194.558 40.7394 195.111 40.4875C196.444 39.884 197.942 39.7512 199.36 40.1108C199.795 40.1983 200.199 40.4018 200.529 40.6998C200.752 40.9809 200.961 41.2734 201.154 41.5761C201.872 42.4898 203.154 42.6688 204.297 42.8749C205.439 43.0809 206.73 43.5326 207.106 44.6316C207.354 45.3601 207.106 46.151 206.971 46.9086C206.923 47.063 206.933 47.2297 207 47.3769C207.179 47.6725 207.625 47.5497 207.962 47.6205C208.611 47.7557 208.778 48.5904 208.794 49.2523C208.822 50.0099 208.843 50.7675 208.857 51.5252C208.895 51.8765 208.85 52.2319 208.725 52.5623C208.599 52.8926 208.397 53.1885 208.135 53.4255L205.597 56.4747C204.471 57.8276 203.277 59.4032 203.504 61.1475C202.971 61.3868 202.338 60.9247 202.163 60.3669C201.988 59.8091 202.13 59.2097 202.246 58.6373C202.452 57.6477 202.586 56.6447 202.648 55.6359C202.679 55.1281 202.69 54.5952 202.473 54.1394C202.257 53.6836 201.749 53.3068 201.254 53.4338C200.596 53.5878 200.313 54.4433 199.668 54.6493C199.126 54.8221 198.531 54.4412 198.273 53.9292C198.015 53.4171 198.007 52.826 198.005 52.2641V50.3367C198.005 49.6394 197.982 48.8797 197.551 48.3344C197.016 47.6496 195.757 47.352 194.916 47.379C194.356 47.3859 193.819 47.6028 193.411 47.9868C192.953 48.3677 192.433 48.6487 191.819 48.5488Z" fill="#7C5C5C"/>
<path opacity="0.1" d="M193.59 72.6742L195.996 82.5608C195.996 82.5608 197.894 82.5504 193.59 72.6742Z" fill="black"/>
<path opacity="0.1" d="M201.813 71.0216C201.813 71.0216 198.662 76.1835 199.892 81.5181L200.479 81.5618C200.479 81.5618 199.43 79.0912 201.813 71.0216Z" fill="black"/>
<path opacity="0.1" d="M203.812 100.228C203.812 100.228 207.681 98.9477 207.962 101.918C207.962 101.918 207.232 99.8822 203.812 100.228Z" fill="black"/>
<path opacity="0.1" d="M192.628 83.1749C192.628 83.1749 191.86 88.5553 193.253 90.7074C193.253 90.7074 190.439 91.8605 186.488 91.6295L186.02 83.1749H192.628Z" fill="black"/>
<path opacity="0.1" d="M193.155 90.0913L192.782 90.2995L190.399 84.9336L192.628 82.9355H192.743C192.707 83.1936 192.087 87.8143 193.155 90.0913Z" fill="black"/>
<path d="M192.628 82.9355C192.628 82.9355 191.86 88.3138 193.253 90.466C193.253 90.466 190.439 91.6191 186.488 91.388L183.799 82.9355H192.628Z" fill="#7C7CDD"/>
<path d="M185.98 172.698C185.936 173.081 185.765 173.439 185.495 173.714C185.225 173.99 184.87 174.167 184.488 174.219C182.407 174.532 177.374 175.327 176.104 175.93C174.491 176.698 168.112 176.161 167.804 175.393C167.717 175.083 167.756 174.75 167.914 174.469C168.136 173.999 168.5 173.611 168.955 173.36C169.101 173.275 169.256 173.205 169.417 173.152C170.618 172.75 172.886 171.903 173.5 171.008C173.5 171.008 176.329 168.533 177.134 167.195C177.286 166.932 177.501 166.71 177.758 166.55C178.016 166.39 178.309 166.295 178.612 166.275C179.287 166.243 180.036 166.583 180.342 168.058C180.342 168.058 184.03 170.163 185.027 168.316C185.027 168.316 185.181 171.151 185.793 171.926C185.874 172.035 185.932 172.16 185.964 172.293C185.997 172.425 186.002 172.563 185.98 172.698Z" fill="#A27772"/>
<path opacity="0.1" d="M185.98 172.698C185.936 173.081 185.765 173.439 185.495 173.714C185.225 173.99 184.87 174.167 184.488 174.219C182.407 174.532 177.374 175.327 176.104 175.93C174.491 176.698 168.112 176.161 167.804 175.393C167.717 175.083 167.756 174.75 167.914 174.469C168.136 173.999 168.5 173.611 168.955 173.36C169.995 174.051 172.304 174.725 177.382 173.932C182.226 173.177 184.623 172.436 185.793 171.93C185.873 172.039 185.931 172.163 185.964 172.295C185.996 172.427 186.001 172.564 185.98 172.698Z" fill="black"/>
<g opacity="0.1">
<path opacity="0.1" d="M206.954 47.021V46.9835C207.065 46.407 207.229 45.8117 207.192 45.2372C207.142 45.7087 207.063 46.1766 206.954 46.638C206.925 46.764 206.925 46.895 206.954 47.021Z" fill="black"/>
<path opacity="0.1" d="M202.467 54.2143C202.588 54.4915 202.653 54.7901 202.656 55.0926C202.692 54.6754 202.627 54.2557 202.467 53.8688C202.259 53.4088 201.745 53.0466 201.249 53.1632C200.592 53.3172 200.309 54.1727 199.663 54.3787C199.12 54.5515 198.527 54.1706 198.267 53.6586C198.007 53.1465 198.002 52.5554 198 51.9934C198 51.3503 198 50.7092 198 50.0661C198 49.3688 197.977 48.6091 197.547 48.0638C197.012 47.379 195.75 47.0813 194.912 47.1084C194.351 47.1149 193.814 47.3319 193.407 47.7162C192.955 48.0991 192.437 48.3801 191.823 48.2802C191.568 48.2412 191.329 48.1307 191.133 47.9617C190.938 47.7927 190.795 47.5719 190.72 47.3249C190.655 47.0772 190.672 46.8128 190.599 46.5652C190.418 45.9616 189.766 45.6473 189.35 45.1894C188.945 44.7433 188.715 44.166 188.703 43.5638C188.671 43.9191 188.712 44.2772 188.823 44.6162C188.934 44.9551 189.114 45.2677 189.35 45.5349C189.783 45.9928 190.426 46.3091 190.599 46.9127C190.672 47.1584 190.655 47.4227 190.72 47.6704C190.795 47.9174 190.938 48.1382 191.133 48.3072C191.329 48.4763 191.568 48.5867 191.823 48.6257C192.447 48.7256 192.955 48.4447 193.407 48.0617C193.814 47.6774 194.351 47.4604 194.912 47.4539C195.744 47.4269 197.012 47.7266 197.547 48.4093C197.977 48.9588 197.998 49.7143 198 50.4116C198 51.0547 198 51.6958 198 52.339C198 52.9093 198 53.5025 198.267 54.0041C198.533 54.5057 199.12 54.897 199.663 54.7242C200.309 54.5161 200.592 53.6627 201.249 53.5087C201.751 53.3942 202.253 53.7543 202.467 54.2143Z" fill="black"/>
<path opacity="0.1" d="M208.784 52.0975C208.644 52.4924 208.421 52.8529 208.131 53.1549C207.285 54.172 206.44 55.1884 205.593 56.2041C204.526 57.4883 203.393 58.9745 203.476 60.6125C203.554 59.1097 204.6 57.7423 205.593 56.5496L208.131 53.5025C208.421 53.1993 208.643 52.8383 208.784 52.443C208.847 52.1703 208.869 51.8898 208.851 51.6105C208.849 51.7749 208.826 51.9385 208.784 52.0975Z" fill="black"/>
<path opacity="0.1" d="M202.167 60.0963C202.126 59.9609 202.101 59.8212 202.092 59.6801C202.07 59.9351 202.096 60.1919 202.167 60.4377C202.342 60.9955 202.977 61.4555 203.51 61.2161C203.495 61.1037 203.487 60.9913 203.483 60.8789C202.946 61.0996 202.33 60.6458 202.167 60.0963Z" fill="black"/>
</g>
<path opacity="0.1" d="M176.62 167.888C176.62 167.888 177.424 169.301 180.334 168.056L176.62 167.888Z" fill="black"/>
<path opacity="0.1" d="M201.231 168.235C201.231 168.235 203.741 171.191 206.905 169.203L201.231 168.235Z" fill="black"/>
<path opacity="0.1" d="M208.539 133.274C208.539 133.274 206.763 134.383 206.707 135.018C206.651 135.653 207.623 134.556 207.623 134.556L208.539 133.274Z" fill="black"/>
<path opacity="0.1" d="M209.244 141.772C208.627 142.286 207.86 142.585 207.059 142.626C205.733 142.684 205.843 144.414 206.709 143.893C207.575 143.373 209.244 141.772 209.244 141.772Z" fill="black"/>
<path opacity="0.1" d="M209.575 142.882C209.575 142.882 208.724 147.065 208.033 146.258L209.575 142.882Z" fill="black"/>
<path d="M34.4651 162.343C34.4651 162.343 35.6078 163.837 33.9364 166.089C32.265 168.341 30.8871 170.252 31.4387 171.659C31.4387 171.659 33.9593 167.467 36.0178 167.409C38.0763 167.351 36.7234 164.863 34.4651 162.343Z" fill="#1CC886"/>
<path opacity="0.1" d="M34.4651 162.343C34.5653 162.487 34.6438 162.645 34.6982 162.811C36.7005 165.163 37.7683 167.359 35.843 167.415C34.0509 167.465 31.8883 170.673 31.3846 171.482C31.4016 171.544 31.4218 171.605 31.445 171.665C31.445 171.665 33.9656 167.474 36.0241 167.415C38.0826 167.357 36.7234 164.863 34.4651 162.343Z" fill="black"/>
<path d="M36.5903 164.247C36.5903 164.774 36.532 165.201 36.4591 165.201C36.3863 165.201 36.3259 164.774 36.3259 164.247C36.3259 163.721 36.4009 163.971 36.4737 163.971C36.5466 163.971 36.5903 163.725 36.5903 164.247Z" fill="#FFD037"/>
<path d="M37.3208 164.876C36.8588 165.128 36.455 165.28 36.4196 165.217C36.3842 165.155 36.7318 164.897 37.1939 164.645C37.6559 164.393 37.4728 164.576 37.5082 164.645C37.5435 164.714 37.7829 164.624 37.3208 164.876Z" fill="#FFD037"/>
<path d="M28.4249 162.343C28.4249 162.343 27.2822 163.837 28.9535 166.089C30.6249 168.341 32.0028 170.252 31.4512 171.659C31.4512 171.659 28.9306 167.467 26.8721 167.409C24.8136 167.351 26.1686 164.863 28.4249 162.343Z" fill="#1CC886"/>
<path opacity="0.1" d="M28.4249 162.343C28.3256 162.487 28.2472 162.645 28.1918 162.811C26.1895 165.163 25.1217 167.359 27.047 167.415C28.8412 167.465 31.0016 170.673 31.5053 171.482C31.4893 171.545 31.4691 171.606 31.445 171.665C31.445 171.665 28.9244 167.474 26.8659 167.415C24.8074 167.357 26.1686 164.863 28.4249 162.343Z" fill="black"/>
<path d="M26.2998 164.247C26.2998 164.774 26.3581 165.201 26.4309 165.201C26.5038 165.201 26.5641 164.774 26.5641 164.247C26.5641 163.721 26.4892 163.971 26.4164 163.971C26.3435 163.971 26.2998 163.725 26.2998 164.247Z" fill="#FFD037"/>
<path d="M25.5712 164.876C26.0333 165.128 26.435 165.28 26.4704 165.217C26.5058 165.155 26.1582 164.897 25.6961 164.645C25.234 164.393 25.4172 164.576 25.3818 164.645C25.3464 164.714 25.1091 164.624 25.5712 164.876Z" fill="#FFD037"/>
<path d="M26.6641 171.47C26.6641 171.47 29.8611 171.372 30.8269 170.685C31.7926 169.998 35.7431 169.18 35.9825 170.281C36.2218 171.382 40.7863 175.753 37.1772 175.782C33.5681 175.812 28.7912 175.221 27.8296 174.634C26.868 174.047 26.6641 171.47 26.6641 171.47Z" fill="#A8A8A8"/>
<path opacity="0.2" d="M37.2396 175.4C33.6305 175.429 28.8537 174.838 27.8921 174.251C27.1594 173.805 26.868 172.205 26.7702 171.466H26.6641C26.6641 171.466 26.8722 174.045 27.8276 174.629C28.7829 175.214 33.566 175.807 37.1751 175.778C38.2158 175.778 38.578 175.4 38.5572 174.85C38.4135 175.185 38.016 175.393 37.2396 175.4Z" fill="black"/>
<defs>
<linearGradient id="paint0_linear" x1="212.965" y1="-8.89256" x2="23.57" y2="127.154" gradientUnits="userSpaceOnUse">
<stop stop-color="#22C88A"/>
<stop offset="1" stop-color="#1BF2A0"/>
</linearGradient>
<linearGradient id="paint1_linear" x1="102.4" y1="168.102" x2="102.4" y2="16.4286" gradientUnits="userSpaceOnUse">
<stop stop-color="#808080" stop-opacity="0.25"/>
<stop offset="0.54" stop-color="#808080" stop-opacity="0.12"/>
<stop offset="1" stop-color="#808080" stop-opacity="0.1"/>
</linearGradient>
<linearGradient id="paint2_linear" x1="46251.7" y1="115080" x2="46251.7" y2="24473.4" gradientUnits="userSpaceOnUse">
<stop stop-color="#808080" stop-opacity="0.25"/>
<stop offset="0.54" stop-color="#808080" stop-opacity="0.12"/>
<stop offset="1" stop-color="#808080" stop-opacity="0.1"/>
</linearGradient>
</defs>
</svg>
