<svg width="895" height="610" viewBox="0 0 895 610" fill="none" xmlns="http://www.w3.org/2000/svg">
<g filter="url(#filter0_d)">
<path d="M777.917 405.128V306.144L668.917 240.892V339.875L777.917 405.128Z" stroke="#D0D0D0"/>
</g>
<path d="M668.917 339.128V240.144L777.917 174.892V273.875L668.917 339.128Z" stroke="#D0D0D0"/>
<path d="M777.917 405.128V306.144L886.917 240.892V339.875L777.917 405.128Z" stroke="#D0D0D0"/>
<path d="M886.917 339.128V240.144L777.917 174.892V273.875L886.917 339.128Z" stroke="#D0D0D0"/>
<circle cx="777.917" cy="274.51" r="6.5" transform="scale(1 -1)" fill="#47E6B1"/>
<circle cx="887.917" cy="339.51" r="6.5" transform="scale(1 -1)" fill="#47E6B1"/>
<g filter="url(#filter1_d)">
<path d="M777.917 306.128V207.144L668.917 141.892V240.875L777.917 306.128Z" stroke="#D0D0D0"/>
</g>
<path d="M668.917 240.128V141.144L777.917 75.8918V174.875L668.917 240.128Z" stroke="#D0D0D0"/>
<path d="M777.917 306.128V207.144L886.917 141.892V240.875L777.917 306.128Z" stroke="#D0D0D0"/>
<path d="M886.917 240.128V141.144L777.917 75.8918V174.875L886.917 240.128Z" stroke="#D0D0D0"/>
<circle cx="777.917" cy="175.51" r="6.5" transform="scale(1 -1)" fill="#47E6B1"/>
<circle cx="887.917" cy="240.51" r="6.5" transform="scale(1 -1)" fill="#47E6B1"/>
<g filter="url(#filter2_d)">
<path d="M668.917 471.128V372.144L559.917 306.892V405.875L668.917 471.128Z" stroke="#D0D0D0"/>
</g>
<path d="M559.917 405.128V306.144L668.917 240.892V339.875L559.917 405.128Z" stroke="#D0D0D0"/>
<path d="M668.917 471.128V372.144L777.917 306.892V405.875L668.917 471.128Z" stroke="#D0D0D0"/>
<path d="M777.917 405.128V306.144L668.917 240.892V339.875L777.917 405.128Z" stroke="#D0D0D0"/>
<circle cx="668.917" cy="340.51" r="6.5" transform="scale(1 -1)" fill="#282D35"/>
<circle cx="668.917" cy="469.51" r="6.5" transform="scale(1 -1)" fill="#47E6B1"/>
<circle cx="778.917" cy="405.51" r="6.5" transform="scale(1 -1)" fill="#47E6B1"/>
<g filter="url(#filter3_d)">
<path d="M559.917 306.128V207.144L450.917 141.892V240.875L559.917 306.128Z" stroke="#D0D0D0"/>
</g>
<path d="M450.917 240.128V141.144L559.917 75.8918V174.875L450.917 240.128Z" stroke="#D0D0D0"/>
<path d="M559.917 306.128V207.144L668.917 141.892V240.875L559.917 306.128Z" stroke="#D0D0D0"/>
<path d="M559.417 206.861V307.01" stroke="#1CC886"/>
<path d="M668.917 240.128V141.144L559.917 75.8918V174.875L668.917 240.128Z" stroke="#D0D0D0"/>
<path d="M450.917 142.01L391.917 106.51" stroke="url(#paint0_linear)"/>
<path d="M560.917 175.01L501.917 139.51" stroke="url(#paint1_linear)"/>
<path d="M450.982 139.314L450.3 1" stroke="url(#paint2_linear)"/>
<path d="M560.917 76.0098L501.917 40.5098" stroke="url(#paint3_linear)"/>
<circle cx="559.917" cy="175.51" r="6.5" transform="scale(1 -1)" fill="#282D35"/>
<circle cx="669.917" cy="240.51" r="6.5" transform="scale(1 -1)" fill="#47E6B1"/>
<circle cx="560.917" cy="77.5098" r="6.5" fill="#47E6B1"/>
<circle cx="451.917" cy="141.51" r="6.5" fill="#47E6B1"/>
<circle cx="669.917" cy="141.51" r="6.5" fill="#47E6B1"/>
<g filter="url(#filter4_d)">
<path d="M450.917 240.892V339.875L341.917 405.128V306.145L450.917 240.892Z" stroke="#D0D0D0"/>
</g>
<path d="M341.917 306.892V405.875L450.917 471.128V372.144L341.917 306.892Z" stroke="#D0D0D0"/>
<path d="M450.917 240.892V339.875L559.917 405.128V306.145L450.917 240.892Z" stroke="#D0D0D0"/>
<path d="M559.917 306.892V405.875L450.917 471.128V372.144L559.917 306.892Z" stroke="#D0D0D0"/>
<path d="M450.417 472.01L560.417 406.159V306.01" stroke="#1CC886"/>
<circle cx="560.917" cy="306.51" r="6.5" fill="#282D35"/>
<g filter="url(#filter5_d)">
<path d="M450.917 339.892V438.875L341.917 504.128V405.144L450.917 339.892Z" stroke="#D0D0D0"/>
</g>
<path d="M341.917 405.892V504.875L450.917 570.127V471.144L341.917 405.892Z" stroke="#D0D0D0"/>
<path d="M451.417 470.861L341.417 405.009" stroke="#1CC886"/>
<path d="M450.917 339.892V438.875L559.917 504.128V405.144L450.917 339.892Z" stroke="#D0D0D0"/>
<path d="M559.917 405.892V504.875L450.917 570.127V471.144L559.917 405.892Z" stroke="#D0D0D0"/>
<circle cx="450.917" cy="470.51" r="6.5" fill="#47E6B1"/>
<circle cx="560.917" cy="405.51" r="6.5" fill="#47E6B1"/>
<circle cx="450.917" cy="371.51" r="6.5" fill="#282D35"/>
<g filter="url(#filter6_d)">
<path d="M341.917 174.892V273.875L232.917 339.128V240.144L341.917 174.892Z" stroke="#D0D0D0"/>
</g>
<path d="M232.917 240.892V339.875L341.917 405.127V306.144L232.917 240.892Z" stroke="#D0D0D0"/>
<path d="M342.417 406.01L232.417 340.158V240.01" stroke="#1CC886"/>
<path d="M341.917 174.892V273.875L450.917 339.128V240.144L341.917 174.892Z" stroke="#D0D0D0"/>
<path d="M450.917 240.892V339.875L341.917 405.127V306.144L450.917 240.892Z" stroke="#D0D0D0"/>
<path d="M346.917 178.01L277.917 137.51" stroke="url(#paint4_linear)"/>
<path d="M229.917 239.01L110.917 168.51" stroke="url(#paint5_linear)"/>
<path d="M229.917 338.01L110.917 267.51" stroke="url(#paint6_linear)"/>
<path d="M233.982 239.314L233.3 101" stroke="url(#paint7_linear)"/>
<path d="M341.982 169.314L341.3 31" stroke="url(#paint8_linear)"/>
<circle cx="341.917" cy="305.51" r="6.5" fill="#47E6B1"/>
<circle cx="341.917" cy="175.51" r="6.5" fill="#282D35"/>
<circle cx="232.917" cy="240.51" r="6.5" fill="#47E6B1"/>
<circle cx="451.917" cy="240.51" r="6.5" fill="#47E6B1"/>
<path d="M342.917 274.01L283.917 238.51" stroke="url(#paint9_linear)"/>
<path d="M232.917 439.01L173.917 403.51" stroke="url(#paint10_linear)"/>
<path d="M123.917 505.01L64.9167 469.51" stroke="url(#paint11_linear)"/>
<g filter="url(#filter7_d)">
<path d="M232.917 339.892V438.875L123.917 504.128V405.144L232.917 339.892Z" stroke="#D0D0D0"/>
</g>
<path d="M123.917 405.892V504.875L232.917 570.127V471.144L123.917 405.892Z" stroke="#D0D0D0"/>
<path d="M232.917 339.892V438.875L341.917 504.128V405.144L232.917 339.892Z" stroke="#D0D0D0"/>
<path d="M341.917 405.892V504.875L232.917 570.127V471.144L341.917 405.892Z" stroke="#D0D0D0"/>
<path d="M120.917 404.01L1.91675 333.51" stroke="url(#paint12_linear)"/>
<path d="M119.537 408.437L1 479.713" stroke="url(#paint13_linear)"/>
<path d="M124.537 504.437L6 575.713" stroke="url(#paint14_linear)"/>
<circle cx="232.917" cy="470.51" r="6.5" fill="#47E6B1"/>
<circle cx="342.917" cy="405.51" r="6.5" fill="#47E6B1"/>
<circle cx="232.917" cy="340.51" r="6.5" fill="#282D35"/>
<circle cx="123.917" cy="405.51" r="6.5" fill="#47E6B1"/>
<g opacity="0.5">
<path opacity="0.5" d="M525.792 111.427C525.792 103.068 523.627 94.8506 519.508 87.5759C515.389 80.3013 509.458 74.2168 502.29 69.9146C495.123 65.6124 486.964 63.2391 478.607 63.0256C470.25 62.8121 461.98 64.7657 454.602 68.6963C447.224 72.6269 440.99 78.4005 436.505 85.4554C432.02 92.5102 429.439 100.606 429.011 108.955C428.583 117.303 430.324 125.62 434.064 133.097C437.804 140.573 443.416 146.953 450.354 151.617L450.386 151.833C451.967 153.349 453.833 154.538 455.877 155.329L455.941 155.113C458.229 157.058 467.751 160.17 478.724 160.147H478.962C485.909 160.147 493.45 158.921 500.085 155.333C500.085 155.333 500.144 155.205 500.236 154.967C501.92 154.179 503.465 153.123 504.812 151.842C504.839 151.656 504.865 151.473 504.89 151.293C511.344 146.84 516.62 140.885 520.261 133.94C523.903 126.995 525.801 119.269 525.792 111.427V111.427Z" fill="url(#paint15_linear)"/>
</g>
<g opacity="0.5">
<path opacity="0.5" d="M282.262 178.84C282.261 170.48 280.097 162.262 275.978 154.987C271.86 147.712 265.928 141.627 258.76 137.325C251.593 133.022 243.433 130.648 235.076 130.435C226.719 130.221 218.448 132.175 211.07 136.106C203.692 140.037 197.458 145.811 192.973 152.867C188.489 159.922 185.907 168.018 185.48 176.367C185.053 184.716 186.794 193.034 190.535 200.51C194.276 207.986 199.889 214.367 206.828 219.03L206.86 219.245C208.441 220.762 210.307 221.95 212.351 222.741L212.415 222.526C214.703 224.471 224.225 227.582 235.198 227.56H235.436C242.382 227.56 249.924 226.333 256.559 222.746C256.559 222.746 256.618 222.617 256.71 222.38C258.393 221.591 259.939 220.536 261.286 219.254C261.313 219.068 261.339 218.885 261.363 218.705C267.817 214.252 273.092 208.296 276.732 201.351C280.373 194.407 282.271 186.681 282.262 178.84V178.84Z" fill="url(#paint16_linear)"/>
</g>
<g filter="url(#filter8_dd)">
<path d="M233.839 225.812C259.779 225.812 280.807 204.784 280.807 178.844C280.807 152.905 259.779 131.877 233.839 131.877C207.9 131.877 186.872 152.905 186.872 178.844C186.872 204.784 207.9 225.812 233.839 225.812Z" fill="white"/>
</g>
<path d="M213.504 197.207C213.504 197.207 202.311 198.123 205.267 218.513C206.801 219.984 208.611 221.137 210.594 221.904L216.89 200.598L213.504 197.207Z" fill="#1CC886"/>
<path d="M249.841 197.207C249.841 197.207 261.034 198.123 258.078 218.513C256.544 219.984 254.734 221.137 252.751 221.904L246.45 200.594L249.841 197.207Z" fill="#1CC886"/>
<path d="M231.977 183.164C243.476 183.164 252.797 173.842 252.797 162.343C252.797 150.845 243.476 141.523 231.977 141.523C220.478 141.523 211.156 150.845 211.156 162.343C211.156 173.842 220.478 183.164 231.977 183.164Z" fill="#333333"/>
<path d="M249.626 197.207H213.307L209.916 211.736C209.916 211.736 207.926 218.463 210.401 221.419C212.877 224.375 236.027 231.101 253.012 221.904C254.492 218.034 254.663 213.785 253.497 209.81C251.562 203.033 253.012 209.324 253.012 209.324L249.626 197.207Z" fill="#4D8AF0"/>
<path d="M250.111 197.207H213.792L210.401 211.736C210.401 211.736 208.411 218.463 210.886 221.419C213.362 224.375 236.512 231.101 253.497 221.904C254.977 218.034 255.148 213.785 253.982 209.81C252.047 203.033 253.497 209.324 253.497 209.324L250.111 197.207Z" fill="#4D8AF0"/>
<path d="M249.841 197.207H213.504L210.113 211.736C210.113 211.736 208.123 218.463 210.598 221.419C213.074 224.375 236.223 231.101 253.209 221.904C254.695 218.036 254.872 213.787 253.712 209.81C251.777 203.033 253.227 209.324 253.227 209.324L249.841 197.207Z" fill="#1CC886"/>
<path opacity="0.1" d="M224.66 185.154H239.188V197.052C239.188 198.909 238.451 200.689 237.138 202.002C235.825 203.315 234.044 204.053 232.187 204.053H231.661C229.804 204.053 228.023 203.315 226.711 202.002C225.398 200.689 224.66 198.909 224.66 197.052V185.154V185.154Z" fill="black"/>
<path d="M224.66 184.619H239.188V196.517C239.188 198.373 238.451 200.154 237.138 201.467C235.825 202.78 234.044 203.518 232.187 203.518H231.661C229.804 203.518 228.023 202.78 226.711 201.467C225.398 200.154 224.66 198.373 224.66 196.517V184.619V184.619Z" fill="#FDB797"/>
<path opacity="0.1" d="M224.687 186.71C229.37 188.46 234.524 188.475 239.216 186.751V184.967H224.687V186.71Z" fill="black"/>
<path d="M231.977 187.685C243.476 187.685 252.797 178.363 252.797 166.864C252.797 155.366 243.476 146.044 231.977 146.044C220.478 146.044 211.156 155.366 211.156 166.864C211.156 178.363 220.478 187.685 231.977 187.685Z" fill="#FDB797"/>
<path opacity="0.1" d="M212.072 159.474H251.777C251.777 159.474 248.386 143.459 233.377 144.465C218.368 145.472 212.072 159.474 212.072 159.474Z" fill="black"/>
<path d="M212.072 158.953H251.777C251.777 158.953 248.386 142.937 233.377 143.944C218.368 144.95 212.072 158.953 212.072 158.953Z" fill="#333333"/>
<path d="M211.586 169.61C212.656 169.61 213.522 167.983 213.522 165.977C213.522 163.97 212.656 162.344 211.586 162.344C210.517 162.344 209.651 163.97 209.651 165.977C209.651 167.983 210.517 169.61 211.586 169.61Z" fill="#FDB797"/>
<path d="M252.257 169.61C253.326 169.61 254.193 167.983 254.193 165.977C254.193 163.97 253.326 162.344 252.257 162.344C251.188 162.344 250.322 163.97 250.322 165.977C250.322 167.983 251.188 169.61 252.257 169.61Z" fill="#FDB797"/>
<path d="M215.156 148.332C215.583 146.749 216.524 145.353 217.833 144.365C218.848 143.66 220.061 143.321 221.223 142.909C222.946 142.3 224.6 141.51 226.156 140.553C227.923 139.464 229.579 138.155 231.524 137.437C234.869 136.201 238.594 136.869 242.048 137.757C242.91 137.938 243.74 138.246 244.51 138.672C245.349 139.253 246.086 139.967 246.693 140.786L252.184 147.398C252.712 147.984 253.173 148.627 253.557 149.316C253.887 149.996 254.097 150.728 254.179 151.48C254.375 152.696 254.17 153.943 253.593 155.031C252.678 156.614 250.756 157.411 248.926 157.484C247.096 157.557 245.297 157.026 243.536 156.509C237.861 154.848 232.096 153.306 226.229 152.61C223.309 152.251 220.363 152.156 217.425 152.327C216.51 152.386 215.284 152.812 214.726 151.869C214.218 151.05 214.904 149.146 215.156 148.332Z" fill="#333333"/>
<g opacity="0.5">
<path opacity="0.5" d="M231.478 253.45C240.707 253.45 248.189 245.968 248.189 236.739C248.189 227.509 240.707 220.028 231.478 220.028C222.249 220.028 214.767 227.509 214.767 236.739C214.767 245.968 222.249 253.45 231.478 253.45Z" fill="url(#paint17_linear)"/>
</g>
<path d="M231.478 252.466C240.164 252.466 247.206 245.425 247.206 236.739C247.206 228.053 240.164 221.011 231.478 221.011C222.792 221.011 215.751 228.053 215.751 236.739C215.751 245.425 222.792 252.466 231.478 252.466Z" fill="#47E6B1"/>
<path d="M224.651 234.643L230.549 240.047L238.9 227.761L241.852 230.218L230.549 244.962L222.194 235.627L224.651 234.643Z" fill="white"/>
<g opacity="0.5">
<path opacity="0.5" d="M478.802 181.768C488.032 181.768 495.514 174.286 495.514 165.057C495.514 155.828 488.032 148.346 478.802 148.346C469.573 148.346 462.091 155.828 462.091 165.057C462.091 174.286 469.573 181.768 478.802 181.768Z" fill="url(#paint18_linear)"/>
</g>
<g filter="url(#filter9_dd)">
<path d="M561.384 205.944C587.323 205.944 608.351 184.916 608.351 158.977C608.351 133.038 587.323 112.01 561.384 112.01C535.445 112.01 514.417 133.038 514.417 158.977C514.417 184.916 535.445 205.944 561.384 205.944Z" fill="white"/>
</g>
<mask id="mask0" mask-type="alpha" maskUnits="userSpaceOnUse" x="514" y="112" width="95" height="94">
<path d="M561.384 205.944C587.323 205.944 608.351 184.916 608.351 158.977C608.351 133.038 587.323 112.01 561.384 112.01C535.445 112.01 514.417 133.038 514.417 158.977C514.417 184.916 535.445 205.944 561.384 205.944Z" fill="#F5F5F5"/>
</mask>
<g mask="url(#mask0)">
<path d="M597.357 194.093C597.62 190.516 597.527 187.437 597.164 184.785C596.753 181.733 595.99 179.251 595.022 177.231C593.091 173.193 590.34 171.002 587.924 169.812C586.307 168.995 584.539 168.515 582.73 168.401C582.65 167.848 582.374 167.342 581.951 166.976C581.527 166.609 580.986 166.407 580.425 166.406C579.865 166.405 579.322 166.605 578.898 166.969C578.473 167.334 578.194 167.839 578.113 168.391V162.418H565.434V159.095H582.519C583.031 159.095 583.522 158.892 583.885 158.532C584.247 158.171 584.45 157.682 584.45 157.172V139.754C584.45 139.244 584.247 138.755 583.885 138.395C583.522 138.034 583.031 137.831 582.519 137.831H576.033V120.662C576.489 120.457 576.876 120.125 577.148 119.706C577.419 119.287 577.564 118.799 577.564 118.301C577.564 118.276 577.564 118.251 577.564 118.224C577.564 118.197 577.564 118.174 577.564 118.147C577.564 117.458 577.29 116.798 576.801 116.311C576.312 115.824 575.649 115.551 574.957 115.551C574.266 115.551 573.603 115.824 573.114 116.311C572.625 116.798 572.35 117.458 572.35 118.147C572.35 118.172 572.35 118.197 572.35 118.224C572.35 118.251 572.35 118.274 572.35 118.301C572.35 118.771 572.479 119.232 572.721 119.635C572.964 120.038 573.313 120.368 573.729 120.589V137.829H549.684V120.589C550.101 120.368 550.449 120.038 550.692 119.635C550.935 119.232 551.063 118.771 551.063 118.301C551.063 118.276 551.063 118.251 551.063 118.224C551.063 118.197 551.063 118.174 551.063 118.147C551.063 117.458 550.788 116.798 550.3 116.311C549.811 115.824 549.148 115.551 548.456 115.551C547.765 115.551 547.102 115.824 546.613 116.311C546.124 116.798 545.849 117.458 545.849 118.147C545.849 118.172 545.849 118.197 545.849 118.224C545.849 118.251 545.849 118.274 545.849 118.301C545.85 118.799 545.994 119.287 546.266 119.706C546.537 120.125 546.924 120.457 547.381 120.662V137.827H540.342C539.83 137.827 539.339 138.03 538.977 138.391C538.615 138.751 538.411 139.241 538.411 139.751V157.166C538.411 157.676 538.615 158.165 538.977 158.526C539.339 158.886 539.83 159.089 540.342 159.089H557.428V162.412H544.749V167.308C544.642 166.997 544.47 166.712 544.245 166.472L544.189 166.416C543.862 166.091 543.446 165.869 542.993 165.779C542.54 165.69 542.071 165.736 541.644 165.912C541.218 166.088 540.853 166.386 540.596 166.768C540.34 167.151 540.203 167.6 540.203 168.06V168.393C540.203 168.393 537.805 168.393 534.937 169.806C532.522 170.997 529.772 173.187 527.839 177.226C526.873 179.245 526.101 181.729 525.697 184.779C525.338 187.429 525.244 190.51 525.504 194.087C520.15 198.51 526.856 204.945 526.856 204.945C532.35 204.945 532.228 195.862 532.166 194.312H532.193C532.193 194.312 532.178 194.235 532.155 194.093C531.754 191.556 531.643 188.982 531.825 186.42C531.977 184.464 532.354 182.395 533.126 180.533C533.703 179.066 534.607 177.748 535.768 176.677C537.021 175.571 538.559 174.834 540.209 174.549V176.043C540.209 176.593 540.405 177.126 540.763 177.546C541.12 177.966 541.616 178.246 542.161 178.336C542.706 178.426 543.266 178.321 543.741 178.039C544.215 177.757 544.574 177.316 544.753 176.795V189.004H578.107V177.045C578.175 177.508 578.381 177.939 578.7 178.283L578.763 178.351C579.09 178.679 579.508 178.903 579.963 178.994C580.418 179.085 580.89 179.039 581.319 178.861C581.747 178.684 582.113 178.383 582.369 177.997C582.625 177.612 582.76 177.159 582.757 176.697V174.566C584.369 174.865 585.868 175.596 587.094 176.681C588.255 177.752 589.158 179.07 589.735 180.537C590.508 182.401 590.882 184.468 591.037 186.424C591.218 188.986 591.107 191.56 590.707 194.097V194.097C590.683 194.239 590.668 194.316 590.668 194.316H590.695C590.633 195.866 590.512 204.949 596.005 204.949C596.005 204.951 602.712 198.52 597.357 194.093Z" fill="url(#paint19_linear)"/>
<path d="M545.749 197.945V200.964H549.754V205.614V209.602V215.583V218.906V220.901H545.081V225.551H557.76V220.901H555.759V218.906V215.583V209.602V205.614V200.964H560.429V197.945V197.641H545.749V197.945Z" fill="url(#paint20_linear)"/>
<path d="M561.765 197.945V200.964H567.77V205.614V209.602V215.583V218.906V220.901H563.099V225.551H575.778V220.901H573.776V218.906V215.583V209.602V205.614V200.964H576.444V197.945V197.641H561.765V197.945Z" fill="url(#paint21_linear)"/>
<path d="M581.328 138.712H541.536C540.152 138.712 539.031 139.829 539.031 141.206V156.91C539.031 158.288 540.152 159.404 541.536 159.404H581.328C582.711 159.404 583.832 158.288 583.832 156.91V141.206C583.832 139.829 582.711 138.712 581.328 138.712Z" fill="#1CC886"/>
<path opacity="0.1" d="M580.26 156.229H542.601V156.618H580.26V156.229Z" fill="black"/>
<path opacity="0.3" d="M580.26 141.945H542.601V156.17H580.26V141.945Z" fill="black"/>
<path opacity="0.1" d="M551.366 154.527C554.235 154.527 556.561 152.211 556.561 149.354C556.561 146.497 554.235 144.181 551.366 144.181C548.497 144.181 546.172 146.497 546.172 149.354C546.172 152.211 548.497 154.527 551.366 154.527Z" fill="black"/>
<path d="M551.366 154.231C554.235 154.231 556.561 151.915 556.561 149.058C556.561 146.201 554.235 143.885 551.366 143.885C548.497 143.885 546.172 146.201 546.172 149.058C546.172 151.915 548.497 154.231 551.366 154.231Z" fill="#DEE3F3"/>
<path opacity="0.1" d="M571.495 154.527C574.364 154.527 576.689 152.211 576.689 149.354C576.689 146.497 574.364 144.181 571.495 144.181C568.626 144.181 566.301 146.497 566.301 149.354C566.301 152.211 568.626 154.527 571.495 154.527Z" fill="black"/>
<path d="M571.495 154.231C574.364 154.231 576.689 151.915 576.689 149.058C576.689 146.201 574.364 143.885 571.495 143.885C568.626 143.885 566.301 146.201 566.301 149.058C566.301 151.915 568.626 154.231 571.495 154.231Z" fill="#DEE3F3"/>
<path d="M565.326 159.404H557.534V163.931H565.326V159.404Z" fill="#1CC886"/>
<path d="M577.663 162.637H545.199V188.503H577.663V162.637Z" fill="#1CC886"/>
<path d="M576.041 188.503V191.089H572.468V193.676H550.391V191.089H546.823V188.503H576.041Z" fill="#1CC886"/>
<path opacity="0.3" d="M576.041 188.503V191.089H572.468V193.676H550.391V191.089H546.823V188.503H576.041Z" fill="black"/>
<path d="M578.313 193.676H544.55V196.908H578.313V193.676Z" fill="#1CC886"/>
<path d="M560.455 196.91H546.172V200.143H560.455V196.91Z" fill="#1CC886"/>
<path d="M576.039 196.91H561.755V200.143H576.039V196.91Z" fill="#1CC886"/>
<path d="M550.069 204.668V208.549V214.368V217.601V219.541H555.912V217.601V214.368V208.549V204.668V200.141H550.069V204.668Z" fill="#1CC886"/>
<path d="M567.598 200.141V204.668V208.549V214.368V217.601V219.541H573.443V217.601V214.368V208.549V204.668V200.141H567.598Z" fill="#1CC886"/>
<path d="M545.322 168.133V175.893C545.322 175.951 545.322 176.01 545.322 176.066C545.274 176.647 545.003 177.187 544.565 177.574C544.126 177.961 543.555 178.164 542.97 178.142C542.385 178.119 541.831 177.873 541.424 177.454C541.017 177.035 540.788 176.476 540.784 175.893V168.133C540.784 167.686 540.917 167.248 541.167 166.876C541.416 166.504 541.771 166.214 542.186 166.042C542.601 165.871 543.058 165.826 543.499 165.914C543.94 166.001 544.344 166.217 544.662 166.533L544.716 166.589C545.068 166.964 545.282 167.448 545.32 167.96C545.318 168.016 545.322 168.076 545.322 168.133Z" fill="#1CC886"/>
<path d="M582.181 168.779V176.541C582.182 176.989 582.05 177.428 581.8 177.801C581.55 178.174 581.195 178.465 580.779 178.636C580.363 178.808 579.905 178.852 579.464 178.764C579.022 178.676 578.617 178.459 578.3 178.141L578.238 178.075C577.849 177.657 577.633 177.108 577.634 176.537V168.779C577.634 168.179 577.873 167.603 578.299 167.179C578.726 166.754 579.304 166.516 579.906 166.516C580.509 166.516 581.087 166.754 581.514 167.179C581.94 167.603 582.179 168.179 582.179 168.779H582.181Z" fill="#1CC886"/>
<path d="M540.777 168.456V174.437C539.174 174.715 537.68 175.43 536.461 176.504C535.329 177.547 534.449 178.832 533.887 180.262C533.136 182.074 532.771 184.087 532.622 185.991C532.438 188.56 532.558 191.142 532.981 193.683H526.491C526.215 190.108 526.298 187.043 526.661 184.408C527.063 181.439 527.804 179.024 528.745 177.058C530.625 173.129 533.302 170.997 535.652 169.839C538.444 168.456 540.777 168.456 540.777 168.456Z" fill="#1CC886"/>
<path d="M527.791 204.022C527.791 204.022 521.266 197.766 526.476 193.458H532.946C532.946 193.458 533.634 204.022 527.791 204.022Z" fill="#1CC886"/>
<path opacity="0.3" d="M527.791 204.022C527.791 204.022 521.266 197.766 526.476 193.458H532.946C532.946 193.458 533.634 204.022 527.791 204.022Z" fill="black"/>
<path opacity="0.3" d="M572.468 166.518H550.393V183.329H572.468V166.518Z" fill="black"/>
<path opacity="0.3" d="M555.912 200.141H550.069V204.668H555.912V200.141Z" fill="black"/>
<path opacity="0.3" d="M573.441 200.141H567.598V204.668H573.441V200.141Z" fill="black"/>
<path opacity="0.3" d="M540.777 168.456V174.437C539.174 174.715 537.679 175.43 536.461 176.504L535.654 169.825C538.444 168.456 540.777 168.456 540.777 168.456Z" fill="black"/>
<path opacity="0.3" d="M533.887 180.262C533.136 182.074 532.771 184.087 532.622 185.991L526.659 184.401C527.061 181.431 527.802 179.016 528.743 177.051L533.887 180.262Z" fill="black"/>
<path d="M582.087 168.456V174.437C583.692 174.713 585.189 175.429 586.41 176.504C587.54 177.546 588.418 178.829 588.98 180.256C589.731 182.068 590.096 184.081 590.245 185.985C590.429 188.554 590.309 191.136 589.886 193.677H596.378C596.654 190.102 596.571 187.037 596.208 184.402C595.806 181.433 595.065 179.018 594.124 177.052C592.244 173.124 589.567 170.991 587.217 169.833C584.419 168.456 582.087 168.456 582.087 168.456Z" fill="#1CC886"/>
<path d="M595.073 204.022C595.073 204.022 601.597 197.766 596.388 193.458H589.915C589.915 193.458 589.229 204.022 595.073 204.022Z" fill="#1CC886"/>
<path opacity="0.3" d="M595.073 204.022C595.073 204.022 601.597 197.766 596.388 193.458H589.915C589.915 193.458 589.229 204.022 595.073 204.022Z" fill="black"/>
<path opacity="0.3" d="M582.087 168.456V174.437C583.692 174.713 585.189 175.429 586.41 176.504L587.217 169.825C584.419 168.456 582.087 168.456 582.087 168.456Z" fill="black"/>
<path opacity="0.3" d="M588.973 180.262C589.724 182.074 590.089 184.087 590.237 185.991L596.2 184.401C595.799 181.431 595.057 179.016 594.117 177.051L588.973 180.262Z" fill="black"/>
<path opacity="0.1" d="M565.326 159.404H557.534V159.941H565.326V159.404Z" fill="black"/>
<path opacity="0.1" d="M578.24 167.247V178.075C577.85 177.657 577.635 177.108 577.636 176.537V168.779C577.636 168.211 577.852 167.663 578.24 167.247V167.247Z" fill="black"/>
<path opacity="0.1" d="M545.314 167.96V176.066C545.276 176.578 545.063 177.062 544.71 177.437V166.589C545.063 166.964 545.276 167.448 545.314 167.96V167.96Z" fill="black"/>
<path opacity="0.1" d="M576.041 188.503H546.823V188.885H576.041V188.503Z" fill="black"/>
<path opacity="0.1" d="M560.455 196.91H546.172V197.206H560.455V196.91Z" fill="black"/>
<path opacity="0.1" d="M576.039 196.91H561.755V197.206H576.039V196.91Z" fill="black"/>
<path d="M550.001 119.564H547.765V138.714H550.001V119.564Z" fill="#1CC886"/>
<path d="M575.639 119.564H573.403V138.714H575.639V119.564Z" fill="#1CC886"/>
<path opacity="0.1" d="M548.81 122.235C550.209 122.235 551.343 121.105 551.343 119.712C551.343 118.319 550.209 117.189 548.81 117.189C547.41 117.189 546.276 118.319 546.276 119.712C546.276 121.105 547.41 122.235 548.81 122.235Z" fill="black"/>
<path d="M548.81 122.087C550.209 122.087 551.343 120.957 551.343 119.564C551.343 118.171 550.209 117.041 548.81 117.041C547.41 117.041 546.276 118.171 546.276 119.564C546.276 120.957 547.41 122.087 548.81 122.087Z" fill="#1CC886"/>
<path opacity="0.1" d="M574.596 122.235C575.995 122.235 577.13 121.105 577.13 119.712C577.13 118.319 575.995 117.189 574.596 117.189C573.197 117.189 572.063 118.319 572.063 119.712C572.063 121.105 573.197 122.235 574.596 122.235Z" fill="black"/>
<path d="M574.596 122.087C575.995 122.087 577.13 120.957 577.13 119.564C577.13 118.171 575.995 117.041 574.596 117.041C573.197 117.041 572.063 118.171 572.063 119.564C572.063 120.957 573.197 122.087 574.596 122.087Z" fill="#1CC886"/>
</g>
<path d="M562.816 228.325C571.502 228.325 578.544 221.284 578.544 212.598C578.544 203.912 571.502 196.87 562.816 196.87C554.13 196.87 547.089 203.912 547.089 212.598C547.089 221.284 554.13 228.325 562.816 228.325Z" fill="#47E6B1"/>
<path d="M555.975 210.961L561.873 216.365L570.229 204.079L573.176 206.536L561.873 221.28L553.518 211.94L555.975 210.961Z" fill="white"/>
<g opacity="0.5">
<path opacity="0.5" d="M398.417 406.43C398.417 398.07 400.582 389.853 404.7 382.578C408.819 375.303 414.75 369.218 421.918 364.915C429.086 360.613 437.245 358.239 445.603 358.026C453.96 357.812 462.23 359.766 469.608 363.697C476.986 367.628 483.221 373.402 487.705 380.457C492.19 387.513 494.771 395.609 495.198 403.958C495.626 412.307 493.884 420.624 490.143 428.101C486.402 435.577 480.789 441.957 473.851 446.621L473.819 446.836C472.238 448.352 470.371 449.541 468.328 450.332L468.264 450.117C465.976 452.061 456.453 455.173 445.48 455.15H445.242C438.296 455.15 430.755 453.924 424.12 450.336C424.12 450.336 424.06 450.208 423.969 449.97C422.285 449.182 420.74 448.126 419.393 446.845C419.365 446.659 419.339 446.476 419.315 446.296C412.861 441.842 407.587 435.887 403.946 428.942C400.305 421.997 398.408 414.271 398.417 406.43V406.43Z" fill="url(#paint22_linear)"/>
</g>
<g filter="url(#filter10_dd)">
<path d="M446.835 453.402C472.774 453.402 493.802 432.374 493.802 406.435C493.802 380.495 472.774 359.467 446.835 359.467C420.895 359.467 399.867 380.495 399.867 406.435C399.867 432.374 420.895 453.402 446.835 453.402Z" fill="white"/>
</g>
<path d="M428.421 424.322C428.421 424.322 417.228 425.237 420.184 445.628C421.718 447.099 423.529 448.251 425.511 449.018L431.807 427.713L428.421 424.322Z" fill="#BE7C5E"/>
<path d="M464.736 424.322C464.736 424.322 475.928 425.237 472.972 445.628C471.436 447.1 469.622 448.252 467.637 449.018L461.34 427.713L464.736 424.322Z" fill="#BE7C5E"/>
<path d="M428.906 390.913C428.906 390.913 428.046 393.421 426.824 396.322C424.161 402.669 427.199 427.04 433.574 429.635C440.726 432.55 450.129 434.417 459.899 430.852C468.392 427.754 471.009 400.015 465.006 393.256C464.301 392.465 463.564 391.677 462.796 390.909L428.906 390.913Z" fill="#333333"/>
<path d="M446.871 410.283C458.37 410.283 467.692 400.962 467.692 389.463C467.692 377.964 458.37 368.642 446.871 368.642C435.372 368.642 426.051 377.964 426.051 389.463C426.051 400.962 435.372 410.283 446.871 410.283Z" fill="#333333"/>
<path opacity="0.1" d="M464.521 424.322H428.206L424.815 438.851C424.815 438.851 422.825 445.577 425.3 448.533C427.776 451.489 450.926 458.216 467.911 449.018C469.393 445.146 469.564 440.894 468.396 436.915C466.461 430.138 467.911 436.43 467.911 436.43L464.521 424.322Z" fill="black"/>
<path opacity="0.1" d="M465.006 424.322H428.691L425.3 438.851C425.3 438.851 423.31 445.577 425.785 448.533C428.261 451.489 451.411 458.216 468.396 449.018C469.878 445.146 470.049 440.894 468.881 436.915C466.946 430.138 468.396 436.43 468.396 436.43L465.006 424.322Z" fill="black"/>
<path d="M464.736 424.322H428.421L425.03 438.851C425.03 438.851 423.04 445.577 425.515 448.533C427.991 451.489 451.141 458.216 468.127 449.018C469.608 445.146 469.779 440.894 468.612 436.915C466.676 430.138 468.127 436.43 468.127 436.43L464.736 424.322Z" fill="#1CC886"/>
<path opacity="0.1" d="M439.554 412.274H454.083V424.171C454.083 426.028 453.345 427.809 452.032 429.122C450.719 430.435 448.939 431.172 447.082 431.172H446.56C444.703 431.172 442.922 430.435 441.609 429.122C440.297 427.809 439.559 426.028 439.559 424.171V412.274H439.554Z" fill="black"/>
<path d="M439.554 411.734H454.083V423.631C454.083 425.488 453.345 427.269 452.032 428.582C450.719 429.895 448.939 430.632 447.082 430.632H446.56C444.703 430.632 442.922 429.895 441.609 428.582C440.297 427.269 439.559 425.488 439.559 423.631V411.734H439.554Z" fill="#BE7C5E"/>
<path opacity="0.1" d="M439.586 413.825C444.269 415.575 449.423 415.59 454.115 413.866V412.081H439.586V413.825Z" fill="black"/>
<path d="M446.871 414.8C458.37 414.8 467.692 405.478 467.692 393.979C467.692 382.48 458.37 373.159 446.871 373.159C435.372 373.159 426.051 382.48 426.051 393.979C426.051 405.478 435.372 414.8 446.871 414.8Z" fill="#BE7C5E"/>
<path d="M426.966 386.072H466.671C466.671 386.072 463.28 370.056 448.271 371.063C433.262 372.07 426.966 386.072 426.966 386.072Z" fill="#333333"/>
<path d="M426.481 396.725C427.55 396.725 428.417 395.098 428.417 393.091C428.417 391.085 427.55 389.458 426.481 389.458C425.412 389.458 424.545 391.085 424.545 393.091C424.545 395.098 425.412 396.725 426.481 396.725Z" fill="#BE7C5E"/>
<path d="M467.156 396.725C468.225 396.725 469.092 395.098 469.092 393.091C469.092 391.085 468.225 389.458 467.156 389.458C466.087 389.458 465.221 391.085 465.221 393.091C465.221 395.098 466.087 396.725 467.156 396.725Z" fill="#BE7C5E"/>
<path opacity="0.1" d="M426.966 386.607H466.671C466.671 386.607 463.28 370.592 448.271 371.598C433.262 372.605 426.966 386.607 426.966 386.607Z" fill="black"/>
<g opacity="0.5">
<path opacity="0.5" d="M448.271 481.041C457.501 481.041 464.983 473.559 464.983 464.329C464.983 455.1 457.501 447.618 448.271 447.618C439.042 447.618 431.56 455.1 431.56 464.329C431.56 473.559 439.042 481.041 448.271 481.041Z" fill="url(#paint23_linear)"/>
</g>
<path d="M448.272 480.057C456.958 480.057 463.999 473.015 463.999 464.329C463.999 455.643 456.958 448.602 448.272 448.602C439.585 448.602 432.544 455.643 432.544 464.329C432.544 473.015 439.585 480.057 448.272 480.057Z" fill="#47E6B1"/>
<path d="M441.444 462.234L447.343 467.638L455.698 455.351L458.645 457.809L447.343 472.552L438.987 463.217L441.444 462.234Z" fill="white"/>
<defs>
<filter id="filter0_d" x="616.417" y="176.01" width="206" height="262" filterUnits="userSpaceOnUse" color-interpolation-filters="sRGB">
<feFlood flood-opacity="0" result="BackgroundImageFix"/>
<feColorMatrix in="SourceAlpha" type="matrix" values="0 0 0 0 0 0 0 0 0 0 0 0 0 0 0 0 0 0 127 0"/>
<feOffset dx="-4" dy="-16"/>
<feGaussianBlur stdDeviation="24"/>
<feColorMatrix type="matrix" values="0 0 0 0 0 0 0 0 0 0 0 0 0 0 0 0 0 0 0.08 0"/>
<feBlend mode="normal" in2="BackgroundImageFix" result="effect1_dropShadow"/>
<feBlend mode="normal" in="SourceGraphic" in2="effect1_dropShadow" result="shape"/>
</filter>
<filter id="filter1_d" x="616.417" y="77.0096" width="206" height="262" filterUnits="userSpaceOnUse" color-interpolation-filters="sRGB">
<feFlood flood-opacity="0" result="BackgroundImageFix"/>
<feColorMatrix in="SourceAlpha" type="matrix" values="0 0 0 0 0 0 0 0 0 0 0 0 0 0 0 0 0 0 127 0"/>
<feOffset dx="-4" dy="-16"/>
<feGaussianBlur stdDeviation="24"/>
<feColorMatrix type="matrix" values="0 0 0 0 0 0 0 0 0 0 0 0 0 0 0 0 0 0 0.08 0"/>
<feBlend mode="normal" in2="BackgroundImageFix" result="effect1_dropShadow"/>
<feBlend mode="normal" in="SourceGraphic" in2="effect1_dropShadow" result="shape"/>
</filter>
<filter id="filter2_d" x="507.417" y="242.01" width="206" height="262" filterUnits="userSpaceOnUse" color-interpolation-filters="sRGB">
<feFlood flood-opacity="0" result="BackgroundImageFix"/>
<feColorMatrix in="SourceAlpha" type="matrix" values="0 0 0 0 0 0 0 0 0 0 0 0 0 0 0 0 0 0 127 0"/>
<feOffset dx="-4" dy="-16"/>
<feGaussianBlur stdDeviation="24"/>
<feColorMatrix type="matrix" values="0 0 0 0 0 0 0 0 0 0 0 0 0 0 0 0 0 0 0.08 0"/>
<feBlend mode="normal" in2="BackgroundImageFix" result="effect1_dropShadow"/>
<feBlend mode="normal" in="SourceGraphic" in2="effect1_dropShadow" result="shape"/>
</filter>
<filter id="filter3_d" x="398.417" y="77.0096" width="206" height="262" filterUnits="userSpaceOnUse" color-interpolation-filters="sRGB">
<feFlood flood-opacity="0" result="BackgroundImageFix"/>
<feColorMatrix in="SourceAlpha" type="matrix" values="0 0 0 0 0 0 0 0 0 0 0 0 0 0 0 0 0 0 127 0"/>
<feOffset dx="-4" dy="-16"/>
<feGaussianBlur stdDeviation="24"/>
<feColorMatrix type="matrix" values="0 0 0 0 0 0 0 0 0 0 0 0 0 0 0 0 0 0 0.08 0"/>
<feBlend mode="normal" in2="BackgroundImageFix" result="effect1_dropShadow"/>
<feBlend mode="normal" in="SourceGraphic" in2="effect1_dropShadow" result="shape"/>
</filter>
<filter id="filter4_d" x="289.417" y="176.01" width="206" height="262" filterUnits="userSpaceOnUse" color-interpolation-filters="sRGB">
<feFlood flood-opacity="0" result="BackgroundImageFix"/>
<feColorMatrix in="SourceAlpha" type="matrix" values="0 0 0 0 0 0 0 0 0 0 0 0 0 0 0 0 0 0 127 0"/>
<feOffset dx="-4" dy="-16"/>
<feGaussianBlur stdDeviation="24"/>
<feColorMatrix type="matrix" values="0 0 0 0 0 0 0 0 0 0 0 0 0 0 0 0 0 0 0.08 0"/>
<feBlend mode="normal" in2="BackgroundImageFix" result="effect1_dropShadow"/>
<feBlend mode="normal" in="SourceGraphic" in2="effect1_dropShadow" result="shape"/>
</filter>
<filter id="filter5_d" x="289.417" y="275.01" width="206" height="262" filterUnits="userSpaceOnUse" color-interpolation-filters="sRGB">
<feFlood flood-opacity="0" result="BackgroundImageFix"/>
<feColorMatrix in="SourceAlpha" type="matrix" values="0 0 0 0 0 0 0 0 0 0 0 0 0 0 0 0 0 0 127 0"/>
<feOffset dx="-4" dy="-16"/>
<feGaussianBlur stdDeviation="24"/>
<feColorMatrix type="matrix" values="0 0 0 0 0 0 0 0 0 0 0 0 0 0 0 0 0 0 0.08 0"/>
<feBlend mode="normal" in2="BackgroundImageFix" result="effect1_dropShadow"/>
<feBlend mode="normal" in="SourceGraphic" in2="effect1_dropShadow" result="shape"/>
</filter>
<filter id="filter6_d" x="180.417" y="110.01" width="206" height="262" filterUnits="userSpaceOnUse" color-interpolation-filters="sRGB">
<feFlood flood-opacity="0" result="BackgroundImageFix"/>
<feColorMatrix in="SourceAlpha" type="matrix" values="0 0 0 0 0 0 0 0 0 0 0 0 0 0 0 0 0 0 127 0"/>
<feOffset dx="-4" dy="-16"/>
<feGaussianBlur stdDeviation="24"/>
<feColorMatrix type="matrix" values="0 0 0 0 0 0 0 0 0 0 0 0 0 0 0 0 0 0 0.08 0"/>
<feBlend mode="normal" in2="BackgroundImageFix" result="effect1_dropShadow"/>
<feBlend mode="normal" in="SourceGraphic" in2="effect1_dropShadow" result="shape"/>
</filter>
<filter id="filter7_d" x="71.4167" y="275.01" width="206" height="262" filterUnits="userSpaceOnUse" color-interpolation-filters="sRGB">
<feFlood flood-opacity="0" result="BackgroundImageFix"/>
<feColorMatrix in="SourceAlpha" type="matrix" values="0 0 0 0 0 0 0 0 0 0 0 0 0 0 0 0 0 0 127 0"/>
<feOffset dx="-4" dy="-16"/>
<feGaussianBlur stdDeviation="24"/>
<feColorMatrix type="matrix" values="0 0 0 0 0 0 0 0 0 0 0 0 0 0 0 0 0 0 0.08 0"/>
<feBlend mode="normal" in2="BackgroundImageFix" result="effect1_dropShadow"/>
<feBlend mode="normal" in="SourceGraphic" in2="effect1_dropShadow" result="shape"/>
</filter>
<filter id="filter8_dd" x="151.872" y="114.877" width="163.935" height="163.935" filterUnits="userSpaceOnUse" color-interpolation-filters="sRGB">
<feFlood flood-opacity="0" result="BackgroundImageFix"/>
<feColorMatrix in="SourceAlpha" type="matrix" values="0 0 0 0 0 0 0 0 0 0 0 0 0 0 0 0 0 0 127 0"/>
<feOffset dy="8"/>
<feGaussianBlur stdDeviation="7.5"/>
<feColorMatrix type="matrix" values="0 0 0 0 0 0 0 0 0 0 0 0 0 0 0 0 0 0 0.07 0"/>
<feBlend mode="normal" in2="BackgroundImageFix" result="effect1_dropShadow"/>
<feColorMatrix in="SourceAlpha" type="matrix" values="0 0 0 0 0 0 0 0 0 0 0 0 0 0 0 0 0 0 127 0"/>
<feOffset dy="18"/>
<feGaussianBlur stdDeviation="17.5"/>
<feColorMatrix type="matrix" values="0 0 0 0 0.196078 0 0 0 0 0.196078 0 0 0 0 0.364706 0 0 0 0.1 0"/>
<feBlend mode="normal" in2="effect1_dropShadow" result="effect2_dropShadow"/>
<feBlend mode="normal" in="SourceGraphic" in2="effect2_dropShadow" result="shape"/>
</filter>
<filter id="filter9_dd" x="479.417" y="95.0098" width="163.935" height="163.935" filterUnits="userSpaceOnUse" color-interpolation-filters="sRGB">
<feFlood flood-opacity="0" result="BackgroundImageFix"/>
<feColorMatrix in="SourceAlpha" type="matrix" values="0 0 0 0 0 0 0 0 0 0 0 0 0 0 0 0 0 0 127 0"/>
<feOffset dy="8"/>
<feGaussianBlur stdDeviation="7.5"/>
<feColorMatrix type="matrix" values="0 0 0 0 0 0 0 0 0 0 0 0 0 0 0 0 0 0 0.07 0"/>
<feBlend mode="normal" in2="BackgroundImageFix" result="effect1_dropShadow"/>
<feColorMatrix in="SourceAlpha" type="matrix" values="0 0 0 0 0 0 0 0 0 0 0 0 0 0 0 0 0 0 127 0"/>
<feOffset dy="18"/>
<feGaussianBlur stdDeviation="17.5"/>
<feColorMatrix type="matrix" values="0 0 0 0 0.196078 0 0 0 0 0.196078 0 0 0 0 0.364706 0 0 0 0.1 0"/>
<feBlend mode="normal" in2="effect1_dropShadow" result="effect2_dropShadow"/>
<feBlend mode="normal" in="SourceGraphic" in2="effect2_dropShadow" result="shape"/>
</filter>
<filter id="filter10_dd" x="364.867" y="342.467" width="163.935" height="163.935" filterUnits="userSpaceOnUse" color-interpolation-filters="sRGB">
<feFlood flood-opacity="0" result="BackgroundImageFix"/>
<feColorMatrix in="SourceAlpha" type="matrix" values="0 0 0 0 0 0 0 0 0 0 0 0 0 0 0 0 0 0 127 0"/>
<feOffset dy="8"/>
<feGaussianBlur stdDeviation="7.5"/>
<feColorMatrix type="matrix" values="0 0 0 0 0 0 0 0 0 0 0 0 0 0 0 0 0 0 0.07 0"/>
<feBlend mode="normal" in2="BackgroundImageFix" result="effect1_dropShadow"/>
<feColorMatrix in="SourceAlpha" type="matrix" values="0 0 0 0 0 0 0 0 0 0 0 0 0 0 0 0 0 0 127 0"/>
<feOffset dy="18"/>
<feGaussianBlur stdDeviation="17.5"/>
<feColorMatrix type="matrix" values="0 0 0 0 0.196078 0 0 0 0 0.196078 0 0 0 0 0.364706 0 0 0 0.1 0"/>
<feBlend mode="normal" in2="effect1_dropShadow" result="effect2_dropShadow"/>
<feBlend mode="normal" in="SourceGraphic" in2="effect2_dropShadow" result="shape"/>
</filter>
<linearGradient id="paint0_linear" x1="447.917" y1="142.01" x2="383.917" y2="107.01" gradientUnits="userSpaceOnUse">
<stop stop-color="#D0D0D0"/>
<stop offset="1" stop-color="#D0D0D0" stop-opacity="0"/>
</linearGradient>
<linearGradient id="paint1_linear" x1="557.917" y1="175.01" x2="432.917" y2="100.01" gradientUnits="userSpaceOnUse">
<stop stop-color="#D0D0D0"/>
<stop offset="1" stop-color="#D0D0D0" stop-opacity="0"/>
</linearGradient>
<linearGradient id="paint2_linear" x1="449.44" y1="136.741" x2="449.535" y2="-9.03316" gradientUnits="userSpaceOnUse">
<stop stop-color="#D0D0D0"/>
<stop offset="1" stop-color="#D0D0D0" stop-opacity="0"/>
</linearGradient>
<linearGradient id="paint3_linear" x1="557.917" y1="76.0098" x2="493.917" y2="41.0098" gradientUnits="userSpaceOnUse">
<stop stop-color="#D0D0D0"/>
<stop offset="1" stop-color="#D0D0D0" stop-opacity="0"/>
</linearGradient>
<linearGradient id="paint4_linear" x1="343.917" y1="178.01" x2="283.417" y2="141.01" gradientUnits="userSpaceOnUse">
<stop stop-color="#D0D0D0"/>
<stop offset="1" stop-color="#D0D0D0" stop-opacity="0"/>
</linearGradient>
<linearGradient id="paint5_linear" x1="226.917" y1="239.01" x2="101.917" y2="164.01" gradientUnits="userSpaceOnUse">
<stop stop-color="#D0D0D0"/>
<stop offset="1" stop-color="#D0D0D0" stop-opacity="0"/>
</linearGradient>
<linearGradient id="paint6_linear" x1="226.917" y1="338.01" x2="101.917" y2="263.01" gradientUnits="userSpaceOnUse">
<stop stop-color="#D0D0D0"/>
<stop offset="1" stop-color="#D0D0D0" stop-opacity="0"/>
</linearGradient>
<linearGradient id="paint7_linear" x1="232.44" y1="236.741" x2="232.535" y2="90.9668" gradientUnits="userSpaceOnUse">
<stop stop-color="#D0D0D0"/>
<stop offset="1" stop-color="#D0D0D0" stop-opacity="0"/>
</linearGradient>
<linearGradient id="paint8_linear" x1="340.44" y1="166.741" x2="340.535" y2="20.9668" gradientUnits="userSpaceOnUse">
<stop stop-color="#D0D0D0"/>
<stop offset="1" stop-color="#D0D0D0" stop-opacity="0"/>
</linearGradient>
<linearGradient id="paint9_linear" x1="339.917" y1="274.01" x2="275.917" y2="239.01" gradientUnits="userSpaceOnUse">
<stop stop-color="#D0D0D0"/>
<stop offset="1" stop-color="#D0D0D0" stop-opacity="0"/>
</linearGradient>
<linearGradient id="paint10_linear" x1="229.917" y1="439.01" x2="165.917" y2="404.01" gradientUnits="userSpaceOnUse">
<stop stop-color="#D0D0D0"/>
<stop offset="1" stop-color="#D0D0D0" stop-opacity="0"/>
</linearGradient>
<linearGradient id="paint11_linear" x1="120.917" y1="505.01" x2="56.9167" y2="470.01" gradientUnits="userSpaceOnUse">
<stop stop-color="#D0D0D0"/>
<stop offset="1" stop-color="#D0D0D0" stop-opacity="0"/>
</linearGradient>
<linearGradient id="paint12_linear" x1="117.917" y1="404.01" x2="-7.08325" y2="329.01" gradientUnits="userSpaceOnUse">
<stop stop-color="#D0D0D0"/>
<stop offset="1" stop-color="#D0D0D0" stop-opacity="0"/>
</linearGradient>
<linearGradient id="paint13_linear" x1="118.113" y1="411.077" x2="-7.23274" y2="485.498" gradientUnits="userSpaceOnUse">
<stop stop-color="#D0D0D0"/>
<stop offset="1" stop-color="#D0D0D0" stop-opacity="0"/>
</linearGradient>
<linearGradient id="paint14_linear" x1="123.113" y1="507.077" x2="-2.23274" y2="581.498" gradientUnits="userSpaceOnUse">
<stop stop-color="#D0D0D0"/>
<stop offset="1" stop-color="#D0D0D0" stop-opacity="0"/>
</linearGradient>
<linearGradient id="paint15_linear" x1="81550.2" y1="28763.2" x2="81550.2" y2="8143.87" gradientUnits="userSpaceOnUse">
<stop stop-color="#808080" stop-opacity="0.25"/>
<stop offset="0.54" stop-color="#808080" stop-opacity="0.12"/>
<stop offset="1" stop-color="#808080" stop-opacity="0.1"/>
</linearGradient>
<linearGradient id="paint16_linear" x1="29765.7" y1="43142.3" x2="29765.7" y2="22521.3" gradientUnits="userSpaceOnUse">
<stop stop-color="#808080" stop-opacity="0.25"/>
<stop offset="0.54" stop-color="#808080" stop-opacity="0.12"/>
<stop offset="1" stop-color="#808080" stop-opacity="0.1"/>
</linearGradient>
<linearGradient id="paint17_linear" x1="4805.02" y1="14129.8" x2="4805.02" y2="11689" gradientUnits="userSpaceOnUse">
<stop stop-color="#808080" stop-opacity="0.25"/>
<stop offset="0.54" stop-color="#808080" stop-opacity="0.12"/>
<stop offset="1" stop-color="#808080" stop-opacity="0.1"/>
</linearGradient>
<linearGradient id="paint18_linear" x1="23116.9" y1="8822.5" x2="23116.9" y2="6381.65" gradientUnits="userSpaceOnUse">
<stop stop-color="#808080" stop-opacity="0.25"/>
<stop offset="0.54" stop-color="#808080" stop-opacity="0.12"/>
<stop offset="1" stop-color="#808080" stop-opacity="0.1"/>
</linearGradient>
<linearGradient id="paint19_linear" x1="44576.1" y1="61167.3" x2="44576.1" y2="19609.7" gradientUnits="userSpaceOnUse">
<stop stop-color="#808080" stop-opacity="0.25"/>
<stop offset="0.54" stop-color="#808080" stop-opacity="0.12"/>
<stop offset="1" stop-color="#808080" stop-opacity="0.1"/>
</linearGradient>
<linearGradient id="paint20_linear" x1="7435.85" y1="20189.3" x2="7435.85" y2="16138.8" gradientUnits="userSpaceOnUse">
<stop stop-color="#808080" stop-opacity="0.25"/>
<stop offset="0.54" stop-color="#808080" stop-opacity="0.12"/>
<stop offset="1" stop-color="#808080" stop-opacity="0.1"/>
</linearGradient>
<linearGradient id="paint21_linear" x1="8395.46" y1="20189.3" x2="8395.46" y2="16138.8" gradientUnits="userSpaceOnUse">
<stop stop-color="#808080" stop-opacity="0.25"/>
<stop offset="0.54" stop-color="#808080" stop-opacity="0.12"/>
<stop offset="1" stop-color="#808080" stop-opacity="0.1"/>
</linearGradient>
<linearGradient id="paint22_linear" x1="52040.3" y1="74207.1" x2="52040.3" y2="53586.1" gradientUnits="userSpaceOnUse">
<stop stop-color="#808080" stop-opacity="0.25"/>
<stop offset="0.54" stop-color="#808080" stop-opacity="0.12"/>
<stop offset="1" stop-color="#808080" stop-opacity="0.1"/>
</linearGradient>
<linearGradient id="paint23_linear" x1="14660.9" y1="24967.4" x2="14660.9" y2="22526.6" gradientUnits="userSpaceOnUse">
<stop stop-color="#808080" stop-opacity="0.25"/>
<stop offset="0.54" stop-color="#808080" stop-opacity="0.12"/>
<stop offset="1" stop-color="#808080" stop-opacity="0.1"/>
</linearGradient>
</defs>
</svg>
