<svg width="256" height="228" viewBox="0 0 256 228" fill="none" xmlns="http://www.w3.org/2000/svg">
<path d="M220.121 33.6227C239.422 91.2379 208.363 153.591 150.748 172.893C93.1328 192.195 30.7794 161.135 11.4777 103.52C-7.82393 45.9051 27.2953 73.7939 84.9104 54.4922C142.526 35.1906 200.819 -23.9925 220.121 33.6227Z" fill="url(#paint0_linear)"/>
<path d="M88 216L151 216" stroke="#002B49" stroke-width="2" stroke-linecap="round"/>
<rect x="108" y="204" width="24" height="24" rx="12" fill="#002B49"/>
<path d="M122.49 220.136V221H117.438V220.244C118.014 219.82 118.61 219.324 119.226 218.756C119.842 218.18 120.374 217.568 120.822 216.92C121.278 216.272 121.506 215.68 121.506 215.144C121.506 214.752 121.366 214.424 121.086 214.16C120.814 213.888 120.326 213.752 119.622 213.752C118.878 213.752 118.178 213.984 117.522 214.448V213.5C118.194 213.092 118.918 212.888 119.694 212.888C120.318 212.888 120.83 212.996 121.23 213.212C121.63 213.428 121.918 213.708 122.094 214.052C122.278 214.388 122.37 214.752 122.37 215.144C122.37 215.888 122.01 216.704 121.29 217.592C120.57 218.48 119.73 219.328 118.77 220.136H122.49Z" fill="white"/>
<g opacity="0.5">
<path opacity="0.5" d="M191.474 84.8748H169.719V76.5506C169.719 74.2382 168.801 72.0205 167.166 70.3854C165.531 68.7503 163.313 67.8317 161.001 67.8317H61.3937C59.2959 67.8317 57.2839 68.6651 55.8006 70.1485C54.3172 71.6319 53.4838 73.6438 53.4838 75.7416V84.8797H50.2085C47.7686 84.8788 45.4281 85.8467 43.7014 87.5706C41.9747 89.2946 41.003 91.6335 41 94.0735V135.342C41.0018 137.663 41.8802 139.897 43.4593 141.598C45.0384 143.298 47.2016 144.34 49.5158 144.513V153.848H58.8144V144.541H70.5236V153.926H79.8222V144.541H163.506V153.926H172.805V144.541H180.554V153.84H189.863V144.541H191.538C192.63 144.541 193.711 144.326 194.72 143.909C195.728 143.491 196.645 142.879 197.417 142.107C198.189 141.335 198.801 140.418 199.219 139.41C199.637 138.401 199.852 137.32 199.852 136.228V93.2546C199.852 92.1543 199.636 91.0646 199.215 90.0479C198.794 89.0312 198.177 88.1074 197.399 87.3293C196.621 86.5511 195.697 85.9338 194.681 85.5127C193.664 85.0915 192.574 84.8748 191.474 84.8748ZM168.082 121.295V128.268H133.416C133.791 127.595 133.988 126.838 133.988 126.068V121.295H168.082Z" fill="url(#paint1_linear)"/>
</g>
<path d="M61.1087 141.053H52.1557V152.244H61.1087V141.053Z" fill="#1CC886"/>
<path d="M170.872 141.136H161.919V152.328H170.872V141.136Z" fill="#1CC886"/>
<path d="M187.287 141.053H178.333V152.244H187.287V141.053Z" fill="#1CC886"/>
<path d="M81.337 141.136H72.384V152.328H81.337V141.136Z" fill="#1CC886"/>
<path opacity="0.3" d="M61.1087 141.053H52.1557V152.244H61.1087V141.053Z" fill="black"/>
<path opacity="0.3" d="M170.872 141.136H161.919V152.328H170.872V141.136Z" fill="black"/>
<path opacity="0.3" d="M187.287 141.053H178.333V152.244H187.287V141.053Z" fill="black"/>
<path opacity="0.3" d="M81.337 141.136H72.384V152.328H81.337V141.136Z" fill="black"/>
<path d="M166.313 85.8393H188.837C190.977 85.8393 193.029 86.6892 194.542 88.2021C196.055 89.715 196.904 91.7668 196.904 93.9064V135.288C196.904 137.411 196.061 139.446 194.56 140.947C193.059 142.448 191.024 143.291 188.901 143.291H166.313V85.8393Z" fill="#1CC886"/>
<path opacity="0.3" d="M166.313 85.8393H188.837C190.977 85.8393 193.029 86.6892 194.542 88.2021C196.055 89.715 196.904 91.7668 196.904 93.9064V135.288C196.904 137.411 196.061 139.446 194.56 140.947C193.059 142.448 191.024 143.291 188.901 143.291H166.313V85.8393Z" fill="black"/>
<path d="M63.5849 69.4251H106.706V120.908H55.9681V77.0402C55.9686 75.0204 56.7712 73.0835 58.1996 71.6554C59.628 70.2274 61.5651 69.4251 63.5849 69.4251Z" fill="#1CC886"/>
<path opacity="0.3" d="M63.8305 69.4251H106.706V120.908H55.9681V77.2858C55.9681 76.2534 56.1715 75.2311 56.5667 74.2773C56.9618 73.3235 57.541 72.4568 58.2711 71.7269C59.0012 70.9969 59.8679 70.4179 60.8218 70.023C61.7757 69.6281 62.7981 69.4249 63.8305 69.4251Z" fill="black"/>
<path d="M75.2597 69.4251H117.069V120.908H66.3312V78.352C66.3312 75.9844 67.2717 73.7138 68.9458 72.0397C70.6199 70.3656 72.8905 69.4251 75.258 69.4251H75.2597Z" fill="#1CC886"/>
<path d="M116.823 69.4251H159.492C161.719 69.4251 163.855 70.3097 165.429 71.8843C167.004 73.4589 167.889 75.5945 167.889 77.8214V120.908H116.823V69.4251Z" fill="#1CC886"/>
<path d="M180.49 85.8393H188.842C190.981 85.8406 193.032 86.6911 194.543 88.2038C196.055 89.7165 196.904 91.7677 196.904 93.9064V135.288C196.904 137.411 196.061 139.446 194.56 140.947C193.059 142.448 191.024 143.291 188.901 143.291H180.49V85.8393Z" fill="#1CC886"/>
<path d="M180.489 127.622H77.5229V143.291H180.489V127.622Z" fill="#1CC886"/>
<path d="M101.182 87.8592L89.9314 91.1385C84.9777 92.5824 82.1324 97.7687 83.5762 102.722L87.3033 115.509C88.7472 120.463 93.9335 123.308 98.8872 121.865L110.138 118.585C115.092 117.141 117.937 111.955 116.493 107.001L112.766 94.2143C111.322 89.2606 106.136 86.4153 101.182 87.8592Z" fill="url(#paint2_linear)"/>
<path d="M100.562 89.3866L90.0709 92.4446C85.4515 93.791 82.7982 98.6273 84.1446 103.247L87.6201 115.171C88.9665 119.79 93.8028 122.443 98.4223 121.097L108.914 118.039C113.533 116.692 116.186 111.856 114.84 107.237L111.365 95.3129C110.018 90.6934 105.182 88.0401 100.562 89.3866Z" fill="#F55F44"/>
<path opacity="0.1" d="M100.562 89.3866L90.0709 92.4446C85.4515 93.791 82.7982 98.6273 84.1446 103.247L87.6201 115.171C88.9665 119.79 93.8028 122.443 98.4223 121.097L108.914 118.039C113.533 116.692 116.186 111.856 114.84 107.237L111.365 95.3129C110.018 90.6934 105.182 88.0401 100.562 89.3866Z" fill="black"/>
<path d="M101.104 89.0061L90.6123 92.0641C85.9929 93.4106 83.3396 98.2469 84.686 102.866L88.1615 114.79C89.5079 119.41 94.3442 122.063 98.9637 120.716L109.455 117.658C114.075 116.312 116.728 111.476 115.381 106.856L111.906 94.9324C110.56 90.313 105.723 87.6597 101.104 89.0061Z" fill="#F55F44"/>
<path d="M98.8598 99.3004C99.8711 98.5891 100.114 97.1927 99.4031 96.1814C98.6918 95.1701 97.2954 94.9269 96.2841 95.6381C95.2728 96.3494 95.0295 97.7458 95.7408 98.7571C96.4521 99.7684 97.8485 100.012 98.8598 99.3004Z" fill="url(#paint3_linear)"/>
<path d="M109.57 105.449C110.582 104.738 110.825 103.342 110.114 102.33C109.402 101.319 108.006 101.076 106.995 101.787C105.983 102.499 105.74 103.895 106.451 104.906C107.163 105.918 108.559 106.161 109.57 105.449Z" fill="url(#paint4_linear)"/>
<path d="M92.9574 111.659C93.9687 110.947 94.2119 109.551 93.5007 108.54C92.7894 107.528 91.393 107.285 90.3817 107.997C89.3704 108.708 89.1271 110.104 89.8384 111.116C90.5497 112.127 91.9461 112.37 92.9574 111.659Z" fill="url(#paint5_linear)"/>
<path d="M103.057 118.238C104.068 117.527 104.311 116.131 103.6 115.119C102.889 114.108 101.492 113.865 100.481 114.576C99.4695 115.287 99.2263 116.684 99.9375 117.695C100.649 118.706 102.045 118.95 103.057 118.238Z" fill="url(#paint6_linear)"/>
<path d="M98.4302 98.6896C99.1042 98.2155 99.2662 97.2849 98.7922 96.611C98.3182 95.937 97.3876 95.7749 96.7136 96.249C96.0397 96.723 95.8776 97.6536 96.3516 98.3275C96.8256 99.0015 97.7562 99.1636 98.4302 98.6896Z" fill="#F99F8F"/>
<path d="M109.141 104.839C109.815 104.365 109.977 103.434 109.503 102.76C109.029 102.086 108.098 101.924 107.424 102.398C106.75 102.872 106.588 103.803 107.062 104.477C107.536 105.151 108.467 105.313 109.141 104.839Z" fill="#F99F8F"/>
<path d="M92.5279 111.048C93.2018 110.574 93.3639 109.643 92.8899 108.969C92.4159 108.295 91.4853 108.133 90.8113 108.607C90.1373 109.081 89.9753 110.012 90.4493 110.686C90.9233 111.36 91.8539 111.522 92.5279 111.048Z" fill="#F99F8F"/>
<path d="M102.627 117.628C103.301 117.154 103.463 116.223 102.989 115.549C102.515 114.875 101.584 114.713 100.91 115.187C100.236 115.661 100.074 116.592 100.548 117.266C101.022 117.939 101.953 118.102 102.627 117.628Z" fill="#F99F8F"/>
<path d="M52.8124 85.8393H85.7292V143.291H52.8124C50.4616 143.291 48.2071 142.358 46.5447 140.696C44.8823 139.033 43.9482 136.779 43.9478 134.428V94.7039C43.9478 92.3529 44.8817 90.0981 46.5441 88.4357C48.2066 86.7732 50.4613 85.8393 52.8124 85.8393Z" fill="#1CC886"/>
<path opacity="0.3" d="M52.8746 85.8393H77.4705C78.5558 85.8393 79.6305 86.0532 80.6331 86.4687C81.6357 86.8842 82.5466 87.4933 83.3137 88.261C84.0809 89.0287 84.6892 89.9401 85.1039 90.9431C85.5186 91.946 85.7317 93.0208 85.7308 94.1062V135.031C85.7308 137.222 84.8605 139.323 83.3114 140.872C81.7623 142.421 79.6613 143.291 77.4705 143.291H52.8746C50.507 143.291 48.2365 142.351 46.5624 140.677C44.8883 139.003 43.9478 136.732 43.9478 134.365V94.7612C43.9491 92.3945 44.8901 90.1252 46.5641 88.4522C48.2381 86.7791 50.5079 85.8393 52.8746 85.8393Z" fill="black"/>
<path opacity="0.1" d="M69.3985 85.8393H83.7754C84.5138 85.8393 85.2219 86.1326 85.744 86.6547C86.2661 87.1768 86.5595 87.8849 86.5595 88.6233V140.507C86.5595 141.246 86.2661 141.954 85.744 142.476C85.2219 142.998 84.5138 143.291 83.7754 143.291H69.3985V85.8393Z" fill="black"/>
<path d="M68.5699 85.8393H82.9468C83.6852 85.8393 84.3933 86.1326 84.9154 86.6547C85.4375 87.1768 85.7308 87.8849 85.7308 88.6233V140.507C85.7308 141.246 85.4375 141.954 84.9154 142.476C84.3933 142.998 83.6852 143.291 82.9468 143.291H68.5699V85.8393Z" fill="#1CC886"/>
<path d="M133.483 115.686H82.0002V129.863H133.483V115.686Z" fill="#1CC886"/>
<path d="M185.05 115.767H133.567V129.945H185.05V115.767Z" fill="#1CC886"/>
<path opacity="0.15" d="M129.127 115.686H86.3564C83.9506 115.686 82.0002 117.636 82.0002 120.042V125.507C82.0002 127.912 83.9506 129.863 86.3564 129.863H129.127C131.533 129.863 133.483 127.912 133.483 125.507V120.042C133.483 117.636 131.533 115.686 129.127 115.686Z" fill="white"/>
<path d="M139.493 89.6109C141.141 89.6109 142.477 88.275 142.477 86.6271C142.477 84.9791 141.141 83.6432 139.493 83.6432C137.845 83.6432 136.51 84.9791 136.51 86.6271C136.51 88.275 137.845 89.6109 139.493 89.6109Z" fill="#1CC886"/>
<path opacity="0.3" d="M139.493 89.6109C141.141 89.6109 142.477 88.275 142.477 86.6271C142.477 84.9791 141.141 83.6432 139.493 83.6432C137.845 83.6432 136.51 84.9791 136.51 86.6271C136.51 88.275 137.845 89.6109 139.493 89.6109Z" fill="black"/>
<path d="M93.2345 89.6109C94.8824 89.6109 96.2183 88.275 96.2183 86.6271C96.2183 84.9791 94.8824 83.6432 93.2345 83.6432C91.5866 83.6432 90.2507 84.9791 90.2507 86.6271C90.2507 88.275 91.5866 89.6109 93.2345 89.6109Z" fill="#1CC886"/>
<path opacity="0.3" d="M93.2345 89.6109C94.8824 89.6109 96.2183 88.275 96.2183 86.6271C96.2183 84.9791 94.8824 83.6432 93.2345 83.6432C91.5866 83.6432 90.2507 84.9791 90.2507 86.6271C90.2507 88.275 91.5866 89.6109 93.2345 89.6109Z" fill="black"/>
<path d="M91.741 70.8745C92.1535 70.8745 92.4878 70.3737 92.4878 69.756C92.4878 69.1382 92.1535 68.6375 91.741 68.6375C91.3286 68.6375 90.9943 69.1382 90.9943 69.756C90.9943 70.3737 91.3286 70.8745 91.741 70.8745Z" fill="#FDA57D"/>
<path opacity="0.15" d="M180.693 115.767H137.923C135.517 115.767 133.567 117.718 133.567 120.124V125.588C133.567 127.994 135.517 129.945 137.923 129.945H180.693C183.099 129.945 185.05 127.994 185.05 125.588V120.124C185.05 117.718 183.099 115.767 180.693 115.767Z" fill="white"/>
<g opacity="0.5">
<path opacity="0.5" d="M151.122 87.0659C150.78 85.1843 150.43 83.2813 149.648 81.5307C148.793 79.6075 147.453 77.9395 145.759 76.6898C145.507 76.4997 145.196 76.4066 144.881 76.4278C144.39 76.4703 144.239 76.7717 144.162 77.0828C144.152 77.1205 144.144 77.1565 144.138 77.1942C143.944 78.1489 144.074 79.0922 144.354 80.0224C144.703 81.1835 145.287 82.3151 145.774 83.4385C146.65 85.4516 147.231 87.5807 147.498 89.7599C147.534 90.0481 147.562 90.3445 147.569 90.6409C147.573 90.8174 147.569 90.9939 147.555 91.1699C147.534 91.515 147.455 91.8542 147.323 92.1738C147.3 92.2262 147.275 92.2808 147.249 92.3375C147.223 92.3943 147.195 92.4445 147.164 92.4882C146.866 92.9795 146.401 93.33 145.946 93.6755C145.49 94.021 144.975 94.3895 144.431 94.5762H144.449C144.196 94.6675 143.928 94.7114 143.66 94.7056C142.819 94.6794 141.924 94.003 141.079 94.1619L140.984 94.1832C140.119 94.4174 139.456 95.7766 139.449 96.6397C139.449 96.7084 139.449 96.775 139.449 96.8394C139.449 96.8624 139.449 96.8853 139.457 96.9082C139.465 96.9312 139.467 96.995 139.474 97.036C139.48 97.0769 139.483 97.0867 139.49 97.1113C139.497 97.1359 139.505 97.185 139.515 97.221C139.524 97.257 139.529 97.2718 139.538 97.2963C139.546 97.3209 139.559 97.3635 139.57 97.3962C139.582 97.429 139.59 97.4454 139.6 97.4683C139.61 97.4912 139.626 97.5305 139.641 97.56L139.677 97.6288C139.693 97.6566 139.708 97.6861 139.726 97.714L139.768 97.7795L139.824 97.8581L139.872 97.9187L139.935 97.9907L139.988 98.0464L140.058 98.1135L140.116 98.1643L140.193 98.2265L140.253 98.274L140.337 98.3313L140.399 98.3739L140.491 98.428L140.555 98.464L140.658 98.5148L140.718 98.5442C140.767 98.5672 140.818 98.5885 140.869 98.6081L140.943 98.6359L141.061 98.6785L141.146 98.7047L141.242 98.7342L141.337 98.7588L141.429 98.7817L141.531 98.803L141.619 98.821L141.725 98.839L141.811 98.8521L141.92 98.8669L142.002 98.8767L142.117 98.8865H142.197H142.315H142.39H142.513H142.77H142.905H142.952L143.096 98.875H143.124C143.533 98.8395 143.935 98.7509 144.321 98.6114C145.544 98.1479 146.583 97.3013 147.544 96.412C149.45 94.6515 151.252 92.4669 151.404 89.8761C151.463 88.941 151.291 87.9978 151.122 87.0659Z" fill="url(#paint7_linear)"/>
</g>
<path opacity="0.1" d="M143.06 86.4436H127.622V90.9128H143.06V86.4436Z" fill="black"/>
<path d="M143.06 86.4436H127.622V90.5066H143.06V86.4436Z" fill="#1CC886"/>
<path d="M136.56 86.9857C137.906 86.9857 138.997 85.8946 138.997 84.5488C138.997 83.203 137.906 82.112 136.56 82.112C135.214 82.112 134.123 83.203 134.123 84.5488C134.123 85.8946 135.214 86.9857 136.56 86.9857Z" fill="#1CC886"/>
<path d="M131.965 88.2991L131.936 88.2696C131.991 88.2277 132.036 88.1737 132.067 88.1116C132.097 88.0495 132.114 87.9811 132.114 87.9118C132.114 87.8424 132.097 87.774 132.067 87.7119C132.036 87.6499 131.991 87.5958 131.936 87.5539L131.962 87.5212C132.021 87.5671 132.069 87.626 132.102 87.6932C132.135 87.7605 132.152 87.8344 132.152 87.9093C132.152 87.9842 132.135 88.0581 132.102 88.1254C132.069 88.1927 132.021 88.2515 131.962 88.2974L131.965 88.2991Z" fill="#4D8AF0"/>
<path opacity="0.1" d="M131.965 88.2991L131.936 88.2696C131.991 88.2277 132.036 88.1737 132.067 88.1116C132.097 88.0495 132.114 87.9811 132.114 87.9118C132.114 87.8424 132.097 87.774 132.067 87.7119C132.036 87.6499 131.991 87.5958 131.936 87.5539L131.962 87.5212C132.021 87.5671 132.069 87.626 132.102 87.6932C132.135 87.7605 132.152 87.8344 132.152 87.9093C132.152 87.9842 132.135 88.0581 132.102 88.1254C132.069 88.1927 132.021 88.2515 131.962 88.2974L131.965 88.2991Z" fill="black"/>
<path d="M131.936 88.2991C131.876 88.2531 131.828 88.1943 131.796 88.127C131.763 88.0598 131.745 87.9859 131.745 87.9109C131.745 87.836 131.763 87.7621 131.796 87.6949C131.828 87.6276 131.876 87.5688 131.936 87.5228L131.962 87.5556C131.906 87.5974 131.862 87.6515 131.831 87.7136C131.8 87.7757 131.784 87.8441 131.784 87.9134C131.784 87.9827 131.8 88.0511 131.831 88.1132C131.862 88.1753 131.906 88.2294 131.962 88.2712L131.936 88.2991Z" fill="#4D8AF0"/>
<path d="M144.419 101.41C145.538 100.986 146.486 100.211 147.367 99.3991C149.11 97.7909 150.754 95.7962 150.895 93.4265C150.945 92.5619 150.79 91.7004 150.634 90.8472C150.321 89.1277 150.002 87.3885 149.293 85.7902C148.511 84.0336 147.287 82.51 145.739 81.3685C145.509 81.1943 145.223 81.1094 144.935 81.1294C144.444 81.1736 144.319 81.511 144.254 81.8336C143.856 83.7988 144.948 85.705 145.747 87.5392C146.548 89.3786 147.079 91.324 147.323 93.3152C147.426 94.1602 147.464 95.074 147.018 95.8011C146.746 96.2466 146.321 96.5708 145.905 96.8853C145.282 97.3553 144.595 97.8482 143.815 97.8253C143.036 97.8023 142.164 97.1325 141.359 97.3487C140.553 97.5649 139.962 98.8046 139.957 99.5988C139.947 101.751 142.923 101.977 144.419 101.41Z" fill="#FFD180"/>
<g opacity="0.1">
<path opacity="0.1" d="M147.015 95.8011C146.743 96.2466 146.317 96.5708 145.901 96.8853C145.485 97.2288 145.018 97.5051 144.516 97.7041C145.223 97.6566 145.857 97.2128 146.432 96.7723C146.848 96.4578 147.274 96.1319 147.546 95.6881C147.989 94.9627 147.953 94.0505 147.85 93.2022C147.606 91.211 147.075 89.2656 146.275 87.4262C145.476 85.5904 144.382 83.6825 144.781 81.7206C144.792 81.6046 144.827 81.4921 144.883 81.3902C144.94 81.2882 145.016 81.1989 145.109 81.1278C145.048 81.1226 144.987 81.1226 144.927 81.1278C144.436 81.172 144.311 81.5093 144.246 81.832C143.848 83.7971 144.94 85.7034 145.739 87.5375C146.54 89.3769 147.071 91.3224 147.315 93.3135C147.423 94.1602 147.46 95.074 147.015 95.8011Z" fill="black"/>
<path opacity="0.1" d="M140.491 99.4908C140.491 98.7571 141.013 97.6419 141.716 97.3078C141.596 97.3048 141.476 97.3186 141.36 97.3487C140.569 97.5632 139.963 98.8046 139.958 99.5988C139.949 101.607 142.534 101.934 144.098 101.513C142.544 101.739 140.481 101.279 140.491 99.4908Z" fill="black"/>
</g>
<g opacity="0.5">
<path opacity="0.5" d="M129.084 77.1057C129.084 77.1057 133.545 76.2132 135.776 77.1057C135.776 77.1057 137.114 73.9827 138.452 73.9827C139.79 73.9827 140.235 78.8957 140.235 78.8957L142.019 86.0325C142.019 86.0325 150.493 101.199 142.019 109.227C133.544 117.254 120.164 108.329 120.164 102.53C120.164 96.7313 122.84 84.6897 122.84 84.6897C122.84 84.6897 125.516 74.8769 126.408 73.9843C127.301 73.0918 129.084 77.1057 129.084 77.1057Z" fill="url(#paint8_linear)"/>
</g>
<path d="M129.235 77.7264C129.235 77.7264 133.522 76.8683 135.666 77.7264C135.666 77.7264 136.952 74.7246 138.239 74.7246C139.526 74.7246 139.953 79.441 139.953 79.441L141.668 86.3011C141.668 86.3011 149.815 100.876 141.668 108.598C133.521 116.319 120.657 107.74 120.657 102.167C120.657 96.5938 123.23 85.0156 123.23 85.0156C123.23 85.0156 125.802 75.5827 126.661 74.7246C127.519 73.8664 129.235 77.7264 129.235 77.7264Z" fill="#FFD180"/>
<g opacity="0.1">
<path opacity="0.1" d="M144.663 94.3158C144.006 91.5289 142.998 88.8364 141.663 86.3028L141.933 87.3869C143.095 89.5893 144.011 91.9129 144.663 94.3158Z" fill="white"/>
<path opacity="0.1" d="M121.428 101.012C121.428 95.4442 123.503 86.0997 123.503 86.0997C123.503 86.0997 126.076 76.6669 126.934 75.8087C127.792 74.9506 129.507 78.8105 129.507 78.8105C129.507 78.8105 133.794 77.9524 135.938 78.8105C135.938 78.8105 137.225 75.8087 138.511 75.8087C139.002 75.8087 139.38 76.5195 139.646 77.3891C139.384 76.1166 138.938 74.7246 138.241 74.7246C136.955 74.7246 135.668 77.7264 135.668 77.7264C133.524 76.8683 129.237 77.7264 129.237 77.7264C129.237 77.7264 127.522 73.8681 126.664 74.7246C125.806 75.5811 123.233 85.0156 123.233 85.0156C123.233 85.0156 121.158 94.3502 121.158 99.9281C121.157 100.432 121.428 101.173 121.428 101.012Z" fill="white"/>
</g>
<path d="M137.597 86.0883C138.071 86.0883 138.455 85.7041 138.455 85.2301C138.455 84.7562 138.071 84.372 137.597 84.372C137.123 84.372 136.739 84.7562 136.739 85.2301C136.739 85.7041 137.123 86.0883 137.597 86.0883Z" fill="#58555D"/>
<path d="M127.735 86.0883C128.209 86.0883 128.593 85.7041 128.593 85.2301C128.593 84.7562 128.209 84.372 127.735 84.372C127.261 84.372 126.877 84.7562 126.877 85.2301C126.877 85.7041 127.261 86.0883 127.735 86.0883Z" fill="#58555D"/>
<path d="M132.88 86.9464C133.59 86.9464 134.166 86.5622 134.166 86.0882C134.166 85.6143 133.59 85.2301 132.88 85.2301C132.17 85.2301 131.595 85.6143 131.595 86.0882C131.595 86.5622 132.17 86.9464 132.88 86.9464Z" fill="#58555D"/>
<path d="M143.982 84.1562L140.123 85.0132L140.216 85.432L144.075 84.5751L143.982 84.1562Z" fill="#FFD180"/>
<path d="M144.417 85.8719L140.129 86.7264L140.213 87.1472L144.501 86.2927L144.417 85.8719Z" fill="#FFD180"/>
<path d="M120.524 82.8859L120.364 83.2843L124.652 84.9993L124.811 84.601L120.524 82.8859Z" fill="#FFD180"/>
<path d="M119.197 85.022L119.132 85.446L124.706 86.304L124.772 85.88L119.197 85.022Z" fill="#FFD180"/>
<path opacity="0.1" d="M131.811 91.5743C130.689 91.5754 129.568 91.48 128.462 91.2894C126.335 90.9231 124.289 90.1876 122.416 89.1162L122.565 88.4235C124.459 89.4494 126.504 90.168 128.624 90.5525C131.711 91.0814 137.02 90.9226 142.417 87.9453L142.777 88.6004C138.86 90.7653 134.736 91.5743 131.811 91.5743Z" fill="black"/>
<path d="M142.417 87.7865C137.012 90.7638 131.71 90.9226 128.624 90.3936C126.504 90.0092 124.459 89.2906 122.565 88.2647L122.169 88.8968C124.132 89.9758 126.257 90.7285 128.462 91.1257C129.569 91.3169 130.69 91.4128 131.813 91.4123C134.738 91.4123 138.855 90.6049 142.785 88.4432L142.417 87.7865ZM131.95 91.3533C131.934 91.3533 131.918 91.3484 131.904 91.3392C131.89 91.3301 131.879 91.317 131.873 91.3017C131.867 91.2865 131.865 91.2697 131.868 91.2535C131.872 91.2373 131.88 91.2224 131.891 91.2107C131.903 91.199 131.918 91.1911 131.934 91.1879C131.95 91.1846 131.967 91.1863 131.982 91.1926C131.997 91.1989 132.011 91.2096 132.02 91.2234C132.029 91.2371 132.034 91.2533 132.034 91.2698C132.033 91.2917 132.024 91.3125 132.009 91.3278C131.993 91.3431 131.972 91.3517 131.95 91.3517V91.3533Z" fill="#F55F44"/>
<path opacity="0.1" d="M131.12 92.5127C131.12 92.7325 131.207 92.9433 131.363 93.0987C131.518 93.2541 131.729 93.3414 131.949 93.3414C132.168 93.3414 132.379 93.2541 132.535 93.0987C132.69 92.9433 132.777 92.7325 132.777 92.5127C132.777 92.293 132.69 92.0822 132.535 91.9268C132.379 91.7714 132.168 91.6841 131.949 91.6841C131.729 91.6841 131.518 91.7714 131.363 91.9268C131.207 92.0822 131.12 92.293 131.12 92.5127ZM131.949 92.0984C131.921 92.0984 131.895 92.0903 131.872 92.0752C131.85 92.0601 131.832 92.0386 131.822 92.0135C131.811 91.9884 131.808 91.9607 131.814 91.934C131.819 91.9073 131.832 91.8828 131.851 91.8636C131.871 91.8443 131.895 91.8312 131.922 91.8259C131.948 91.8206 131.976 91.8233 132.001 91.8338C132.026 91.8442 132.048 91.8618 132.063 91.8844C132.078 91.907 132.086 91.9336 132.086 91.9608C132.086 91.997 132.072 92.0318 132.047 92.0575C132.021 92.0833 131.986 92.098 131.95 92.0984H131.949Z" fill="url(#paint9_linear)"/>
<path d="M131.203 92.5128C131.203 92.7108 131.282 92.9008 131.422 93.0408C131.562 93.1809 131.752 93.2595 131.95 93.2595C132.148 93.2595 132.338 93.1809 132.478 93.0408C132.618 92.9008 132.697 92.7108 132.697 92.5128C132.697 92.3147 132.618 92.1248 132.478 91.9847C132.338 91.8447 132.148 91.766 131.95 91.766C131.752 91.766 131.562 91.8447 131.422 91.9847C131.282 92.1248 131.203 92.3147 131.203 92.5128ZM131.95 92.1394C131.926 92.1394 131.902 92.1321 131.881 92.1184C131.861 92.1047 131.845 92.0853 131.835 92.0625C131.826 92.0398 131.823 92.0148 131.828 91.9906C131.833 91.9665 131.845 91.9443 131.862 91.9269C131.88 91.9095 131.902 91.8976 131.926 91.8928C131.95 91.888 131.975 91.8905 131.998 91.8999C132.021 91.9093 132.04 91.9253 132.054 91.9458C132.067 91.9662 132.075 91.9903 132.075 92.0149C132.075 92.0479 132.062 92.0796 132.038 92.1029C132.015 92.1263 131.983 92.1394 131.95 92.1394Z" fill="#4D8AF0"/>
<path d="M141.318 88.0354C129.905 94.7498 123.328 88.5267 123.328 88.5267L141.318 88.0354Z" fill="#FFD180"/>
<path d="M172.626 121.023C171.927 119.039 164.438 124.625 164.438 124.625L162.707 124.522L159.376 121.437L161.702 119.111L142.174 102.367C141.653 101.92 141.044 101.587 140.387 101.39C139.729 101.193 139.038 101.135 138.357 101.22L122.123 103.244C122.052 102.314 121.479 101.209 120.669 100.08C119.003 97.3487 115.497 94.265 114.203 93.1694L112.218 79.8259L113.9 77.3022C113.589 77.2171 113.283 77.1143 112.983 76.9944L113.338 76.4605L113.207 76.4245L113.371 76.2312H113.351L117.541 71.3838C117.852 71.024 118.011 70.5577 117.986 70.0827C117.96 69.6078 117.751 69.1614 117.403 68.8372L108.027 61.7134C108.312 61.0349 108.448 60.3035 108.427 59.5681C108.501 58.1532 107.867 56.717 105.743 55.6541C104.429 55.0275 103.052 54.5411 101.636 54.2032C99.302 53.6027 96.8499 53.6389 94.5349 54.308C94.4972 54.2605 94.4563 54.213 94.4137 54.1639C91.5281 50.8656 87.7435 55.605 87.5961 55.8015L72.8049 72.2534C72.4027 72.892 72.2555 73.6586 72.3927 74.4008C72.5298 75.1429 72.9412 75.8063 73.5451 76.2591L81.3747 82.13L81.3501 82.1808L81.7923 82.5083C81.4648 83.1634 81.0079 83.6056 80.4101 83.6727L81.6089 84.2721C81.4195 84.4046 81.1999 84.4874 80.9702 84.5128L86.4596 87.2575C86.4596 90.1103 86.7544 103.171 91.3922 109.582C91.8674 110.371 92.4329 111.102 93.0774 111.76C93.0774 111.76 93.472 111.546 94.1926 111.198L95.0212 112.857C95.9319 114.679 97.3927 116.167 99.1965 117.112C101 118.057 103.056 118.411 105.072 118.122L130.84 114.441L130.566 115.26L130.714 115.238L122.362 140.295L123.741 140.755L123.715 140.804L123.909 140.887L122.172 144.163L116.704 148.368C116.704 148.368 132.686 156.358 134.367 155.097C136.049 153.836 128.472 148.368 128.472 148.368L128.051 146.686L129.89 142.803L131.431 143.318L143.815 118.55L144.236 117.708L152.617 128.189L154.981 125.827L155.236 126.086L155.257 126.065L158.533 129.38L160.906 135.856C160.906 135.856 173.322 123.006 172.626 121.023ZM107.612 72.8593L107.448 72.6693C106.449 73.9189 104.682 75.4304 102.712 76.4539V75.0767L102.805 74.9948V74.3954C104.05 73.2492 104.951 71.778 105.405 70.1476C105.859 68.5171 105.849 66.7923 105.376 65.1672L110.816 69.3449L107.612 72.8593ZM89.147 57.3294L89.016 57.1984L89.1486 57.3294H89.147ZM84.799 66.0876C84.763 66.5243 84.7483 66.9637 84.7548 67.4059C84.7452 68.0479 84.7808 68.6898 84.8613 69.3269C85.1413 71.5524 85.9388 73.3719 87.5814 74.2398C89.0127 74.9932 89.9543 74.9522 90.5537 74.438L90.6192 74.4969C90.6696 75.3674 90.8958 76.2186 91.2841 76.9993C88.2179 76.3591 85.2897 75.1797 82.6357 73.516C82.6357 73.516 82.6455 73.6273 82.657 73.8271L80.4068 71.577L84.799 66.0876Z" fill="url(#paint10_linear)"/>
<path d="M125.858 136.074L122.182 143.02L127.9 145.469L131.577 137.709L125.858 136.074Z" fill="#FDA57D"/>
<path d="M127.9 145.47L128.308 147.107C128.308 147.107 135.661 152.418 134.027 153.643C132.392 154.868 116.869 147.107 116.869 147.107L122.18 143.021L127.9 145.47Z" fill="#333333"/>
<path opacity="0.1" d="M131.185 138.429L125.4 136.502L123.678 139.751L129.397 142.202L131.185 138.429Z" fill="black"/>
<path d="M151.982 123.065L157.504 128.656L161.557 123.934L155.256 118.099L151.982 123.065Z" fill="#FDA57D"/>
<path opacity="0.1" d="M155.483 118.371L152.21 123.338L154.303 125.456L158.549 121.209L155.483 118.371Z" fill="black"/>
<path d="M161.557 123.933L163.239 124.033C163.239 124.033 170.51 118.61 171.19 120.536C171.87 122.462 159.81 134.948 159.81 134.948L157.506 128.656L161.557 123.933Z" fill="#333333"/>
<path d="M109.2 82.1301L117.686 72.3042C117.989 71.9546 118.144 71.5013 118.119 71.0398C118.093 70.5783 117.89 70.1445 117.552 69.8297L99.0859 55.8343L96.8439 59.3323L111.155 70.3488L105.08 77.0108L109.2 82.1301Z" fill="#FDA57D"/>
<path opacity="0.1" d="M108.226 73.5733L105.257 76.829L109.382 81.9548L113.64 77.032C111.563 76.3745 109.695 75.1816 108.226 73.5733Z" fill="black"/>
<path d="M84.5615 84.2622L74.9534 77.0566C74.367 76.6167 73.9676 75.9723 73.8344 75.2514C73.7012 74.5305 73.844 73.7859 74.2345 73.1655L88.6114 57.1673L91.5592 60.1151L81.6138 72.5039L87.4929 78.3831L84.5615 84.2622Z" fill="#FDA57D"/>
<path opacity="0.1" d="M82.5292 82.8113L84.1014 83.9904L87.0492 78.1113L83.3481 74.4216C83.4267 75.6728 83.6478 80.535 82.5292 82.8113Z" fill="black"/>
<path d="M131.184 112.798L122.363 139.258L131.184 142.197L145.882 112.798L134.123 109.859L131.184 112.798Z" fill="#4D8AF0"/>
<path opacity="0.1" d="M130.774 113.616L130.334 114.939L139.595 113.616L143.212 118.139L145.474 113.616L133.714 110.676L130.774 113.616Z" fill="black"/>
<path d="M88.5918 57.1853C88.5918 57.1853 92.3584 52.328 95.2194 55.5968C98.0804 58.8655 90.7257 59.2733 90.7257 59.2733L88.5918 57.1853Z" fill="#FDA57D"/>
<path d="M92.9659 106.919L95.8073 112.603C96.6918 114.373 98.1106 115.819 99.8627 116.737C101.615 117.654 103.611 117.998 105.569 117.718L140.003 112.805L151.763 127.504L160.581 118.686L141.609 102.424C141.103 101.99 140.512 101.667 139.873 101.474C139.235 101.282 138.563 101.226 137.901 101.309L92.9659 106.919Z" fill="#4D8AF0"/>
<path opacity="0.1" d="M84.3257 75.2061C84.3257 75.2061 85.1004 84.7536 82.1608 85.0811L88.0399 88.0289C88.0399 88.0289 87.7124 105.34 93.9191 111.547C93.9191 111.547 105.352 105.34 117.437 105.668C129.523 105.996 114.49 93.908 114.49 93.908L112.505 80.5252L114.142 78.0687C111.928 77.4057 109.946 76.1313 108.424 74.3922C106.786 76.4343 103.042 79.2036 99.795 79.2036H98.3899C93.549 79.2036 88.4002 78.221 84.3208 75.6171L84.3257 75.2061Z" fill="black"/>
<path d="M83.7804 74.3889C83.7804 74.3889 84.5615 83.9364 81.6138 84.2623L87.4929 87.21C87.4929 87.21 87.1654 104.522 93.3721 110.728C93.3721 110.728 104.805 104.522 116.89 104.849C128.976 105.177 113.943 93.0892 113.943 93.0892L111.958 79.7063L113.595 77.2498C111.381 76.5868 109.399 75.3125 107.877 73.5733C106.239 75.6155 102.495 78.3847 99.248 78.3847H97.8429C93.002 78.3847 87.8532 76.9976 83.7738 74.3889H83.7804Z" fill="#3AD29F"/>
<path d="M91.5248 71.6965V74.9718C91.525 76.6353 92.186 78.2305 93.3623 79.4066L100.345 86.3895L102.669 81.7403C103.074 80.9308 103.285 80.0382 103.285 79.1331V71.6965H91.5248Z" fill="#FDA57D"/>
<path opacity="0.1" d="M91.6149 75.4779C91.6149 75.5991 91.6149 75.7186 91.6264 75.8398C93.2437 77.2822 95.3355 78.0785 97.5025 78.0767C99.6696 78.0749 101.76 77.2751 103.375 75.83V72.196H91.6149V75.4779Z" fill="black"/>
<path d="M97.404 77.5774C102.274 77.5774 106.223 73.6291 106.223 68.7586C106.223 63.8882 102.274 59.9399 97.404 59.9399C92.5336 59.9399 88.5853 63.8882 88.5853 68.7586C88.5853 73.6291 92.5336 77.5774 97.404 77.5774Z" fill="#FDA57D"/>
<path opacity="0.1" d="M91.5249 66.271H106.224C106.224 66.271 112.104 60.3918 106.224 57.4523C104.948 56.8439 103.611 56.3719 102.235 56.0439C93.2952 53.7774 84.7941 61.1714 85.9437 70.3226C86.2156 72.4843 86.9902 74.2529 88.5853 75.0898C94.7903 78.352 91.5249 66.271 91.5249 66.271Z" fill="black"/>
<path d="M91.5249 65.8632H106.224C106.224 65.8632 112.104 59.9841 106.224 57.0445C104.948 56.4362 103.611 55.9641 102.235 55.6361C93.2952 53.3696 84.7941 60.7636 85.9437 69.9148C86.2156 72.0765 86.9902 73.8452 88.5853 74.682C94.7903 77.9491 91.5249 65.8632 91.5249 65.8632Z" fill="#333333"/>
<path d="M91.9506 70.3029C92.4019 70.3029 92.7678 69.6629 92.7678 68.8733C92.7678 68.0837 92.4019 67.4436 91.9506 67.4436C91.4993 67.4436 91.1334 68.0837 91.1334 68.8733C91.1334 69.6629 91.4993 70.3029 91.9506 70.3029Z" fill="#FDA57D"/>
<path opacity="0.1" d="M87.4569 87.0528L87.8663 85.8262L89.0913 86.6434L87.4569 87.0528Z" fill="black"/>
<path opacity="0.1" d="M113.966 93.0908C113.966 93.0908 109.518 95.2198 108.291 97.2668L113.966 93.0908Z" fill="black"/>
<path opacity="0.1" d="M111.968 79.6998L111.56 80.9247L110.743 79.6998H111.968Z" fill="black"/>
<path d="M91.5249 65.8632H106.224C106.224 65.8632 112.104 59.9841 106.224 57.0445C104.948 56.4362 103.611 55.9641 102.235 55.6361C93.2952 53.3696 84.7941 60.7636 85.9437 69.9148C86.2156 72.0765 86.9902 73.8452 88.5853 74.682C94.7903 77.9491 91.5249 65.8632 91.5249 65.8632Z" fill="#333333"/>
<path opacity="0.1" d="M131.071 98.8816C131.071 98.8816 134.053 105.365 130.137 105.923C126.222 106.482 128.008 100.493 128.008 100.493C128.008 100.493 127.617 98.7162 126.664 98.6163" fill="black"/>
<path opacity="0.1" d="M134.674 98.7244C134.674 98.7244 131.128 104.918 134.978 105.815C138.828 106.713 137.58 100.596 137.58 100.596C137.58 100.596 138.127 98.8619 139.087 98.8456" fill="black"/>
<path d="M130.725 98.6998C130.725 98.6998 133.707 105.183 129.792 105.742C125.876 106.3 127.663 100.311 127.663 100.311C127.663 100.311 127.271 98.5295 126.322 98.4296" fill="#FFD180"/>
<path d="M134.95 98.4509C134.95 98.4509 131.398 104.646 135.255 105.537C139.112 106.428 137.857 100.318 137.857 100.318C137.857 100.318 138.404 98.5835 139.364 98.5671" fill="#FFD180"/>
<path opacity="0.5" d="M128.603 104.394H128.536V105.66H128.603V104.394Z" fill="#58555D"/>
<path opacity="0.5" d="M129.687 104.394H129.62V105.66H129.687V104.394Z" fill="#58555D"/>
<path opacity="0.5" d="M129.099 103.991H129.032V105.761H129.099V103.991Z" fill="#58555D"/>
<path opacity="0.5" d="M135.645 104.124H135.578V105.39H135.645V104.124Z" fill="#58555D"/>
<path opacity="0.5" d="M136.729 104.124H136.662V105.39H136.729V104.124Z" fill="#58555D"/>
<path opacity="0.5" d="M136.141 103.719H136.074V105.49H136.141V103.719Z" fill="#58555D"/>
<g opacity="0.5">
<path opacity="0.5" d="M133.446 178.466C137.527 177.097 139.726 172.679 138.357 168.598C136.989 164.517 132.571 162.319 128.49 163.687C124.409 165.056 122.211 169.474 123.579 173.555C124.948 177.635 129.365 179.834 133.446 178.466Z" fill="url(#paint11_linear)"/>
</g>
<path d="M133.288 177.994C137.108 176.712 139.167 172.577 137.885 168.757C136.604 164.936 132.469 162.878 128.648 164.159C124.828 165.441 122.77 169.576 124.051 173.396C125.332 177.216 129.468 179.275 133.288 177.994Z" fill="#F55F44"/>
<g opacity="0.5">
<path opacity="0.5" d="M111.552 180.849C110.504 181.201 109.198 180.951 108.712 179.945C108.432 179.364 108.499 178.714 108.565 178.085C108.637 177.396 108.697 176.801 108.309 176.416C108.109 176.246 107.872 176.122 107.618 176.054C107.291 175.945 106.937 175.853 106.599 175.764C105.998 175.626 105.41 175.433 104.844 175.188C103.73 174.666 103.018 173.783 102.939 172.827C102.872 172.008 103.267 171.261 103.643 170.545C104.02 169.83 104.4 169.119 104.22 168.416C103.976 167.468 102.838 167.018 101.836 166.615L101.672 166.553C100.447 166.061 99.1334 165.025 99.4609 163.695C99.5755 163.232 99.8687 162.876 100.152 162.549C100.344 162.336 100.509 162.1 100.643 161.846C101.085 160.914 100.48 159.837 100.209 159.416C99.9981 159.088 99.7475 158.787 99.5051 158.487C99.1253 158.047 98.789 157.571 98.5012 157.066L98.4554 156.981C97.7905 155.723 97.7774 155.67 97.8331 154.3V154.136L98.4128 154.159V154.323C98.3637 155.566 98.3637 155.566 98.968 156.709L99.0138 156.794C99.284 157.266 99.5994 157.711 99.9555 158.122C100.206 158.432 100.465 158.753 100.692 159.095C101.395 160.158 101.567 161.25 101.166 162.093C101.009 162.39 100.815 162.665 100.589 162.912C100.337 163.213 100.098 163.498 100.016 163.833C99.7606 164.866 101.066 165.688 101.878 166.012L102.034 166.074C103.11 166.5 104.449 167.031 104.767 168.264C105.003 169.179 104.565 170.005 104.141 170.804C103.786 171.475 103.449 172.114 103.503 172.769C103.575 173.649 104.362 174.318 105.075 174.654C105.609 174.884 106.163 175.065 106.73 175.195C107.078 175.285 107.436 175.38 107.787 175.496C108.127 175.589 108.441 175.761 108.704 175.997C109.288 176.577 109.207 177.371 109.128 178.139C109.069 178.712 109.012 179.254 109.221 179.687C109.6 180.469 110.772 180.584 111.588 180.199C112.256 179.885 112.782 179.349 113.338 178.784C113.519 178.601 113.705 178.413 113.895 178.232C114.933 177.25 115.983 176.821 116.933 176.986C117.234 177.049 117.528 177.144 117.809 177.269C118.028 177.365 118.254 177.443 118.486 177.502C119.002 177.594 119.534 177.488 119.976 177.205C120.417 176.922 120.736 176.483 120.868 175.976C120.89 175.879 120.904 175.778 120.921 175.671C120.971 175.33 121.029 174.944 121.301 174.644C121.572 174.345 122.003 174.235 122.309 174.164L125.47 173.434L125.601 173.999L122.44 174.729C122.141 174.798 121.88 174.87 121.731 175.034C121.582 175.198 121.538 175.471 121.497 175.756C121.481 175.868 121.463 175.984 121.438 176.099C121.272 176.756 120.861 177.325 120.29 177.69C119.718 178.056 119.029 178.189 118.363 178.064C118.1 177.998 117.843 177.91 117.595 177.802C117.351 177.692 117.097 177.609 116.836 177.553C115.873 177.389 114.925 178.056 114.298 178.648C114.116 178.82 113.933 179.007 113.756 179.186C113.188 179.762 112.601 180.36 111.84 180.718C111.746 180.768 111.65 180.811 111.552 180.849Z" fill="url(#paint12_linear)"/>
</g>
<path d="M111.63 180.561C110.582 180.913 109.277 180.663 108.791 179.657C108.511 179.076 108.578 178.426 108.643 177.797C108.715 177.107 108.776 176.513 108.388 176.128C108.187 175.957 107.951 175.834 107.697 175.766C107.369 175.656 107.015 175.565 106.678 175.476C106.077 175.338 105.489 175.145 104.922 174.9C103.809 174.377 103.097 173.495 103.018 172.538C102.951 171.719 103.345 170.973 103.722 170.257C104.099 169.541 104.479 168.831 104.299 168.128C104.055 167.18 102.916 166.729 101.914 166.327L101.75 166.264C100.525 165.773 99.212 164.736 99.5395 163.407C99.6542 162.943 99.9473 162.588 100.231 162.26C100.423 162.047 100.588 161.811 100.722 161.558C101.164 160.626 100.558 159.548 100.288 159.128C100.077 158.8 99.8261 158.499 99.5837 158.199C99.2039 157.759 98.8677 157.283 98.5799 156.777L98.534 156.692C97.8691 155.435 97.856 155.382 97.9117 154.011V153.848L98.4914 153.871V154.034C98.4423 155.277 98.4423 155.277 99.0466 156.42L99.0924 156.506C99.3627 156.978 99.678 157.423 100.034 157.834C100.285 158.143 100.543 158.464 100.771 158.807C101.474 159.869 101.646 160.962 101.244 161.805C101.088 162.101 100.894 162.376 100.668 162.624C100.416 162.925 100.177 163.21 100.095 163.544C99.8392 164.578 101.144 165.4 101.957 165.724L102.112 165.786C103.188 166.212 104.528 166.743 104.846 167.976C105.081 168.891 104.644 169.717 104.22 170.516C103.865 171.187 103.527 171.826 103.581 172.481C103.653 173.36 104.441 174.03 105.153 174.366C105.688 174.596 106.242 174.777 106.809 174.906C107.156 174.996 107.515 175.091 107.865 175.208C108.206 175.301 108.52 175.473 108.782 175.709C109.367 176.288 109.285 177.083 109.207 177.851C109.148 178.424 109.09 178.966 109.3 179.398C109.678 180.181 110.851 180.296 111.666 179.911C112.335 179.597 112.86 179.061 113.417 178.496C113.597 178.313 113.784 178.124 113.974 177.944C115.012 176.962 116.062 176.532 117.012 176.698C117.313 176.761 117.607 176.856 117.888 176.981C118.106 177.077 118.333 177.155 118.564 177.214C119.08 177.306 119.612 177.2 120.054 176.917C120.496 176.634 120.815 176.195 120.947 175.687C120.968 175.591 120.983 175.489 120.999 175.383C121.05 175.042 121.107 174.656 121.379 174.356C121.651 174.056 122.082 173.947 122.388 173.876L125.549 173.146L125.68 173.711L122.519 174.441C122.219 174.51 121.959 174.582 121.81 174.746C121.661 174.91 121.617 175.183 121.576 175.468C121.559 175.579 121.541 175.696 121.517 175.81C121.351 176.468 120.94 177.037 120.368 177.402C119.797 177.767 119.108 177.901 118.441 177.775C118.178 177.71 117.921 177.622 117.673 177.513C117.43 177.404 117.176 177.321 116.915 177.264C115.952 177.101 115.004 177.767 114.377 178.36C114.195 178.532 114.011 178.719 113.835 178.897C113.266 179.474 112.68 180.071 111.919 180.43C111.825 180.479 111.729 180.523 111.63 180.561Z" fill="#F55F44"/>
<path opacity="0.2" d="M130.544 165.88C130.544 165.88 134.58 165.269 136.557 170.902" stroke="black" stroke-miterlimit="10"/>
<path opacity="0.2" d="M126.078 174.854C126.078 174.854 123.081 170.612 128.421 165.935" stroke="black" stroke-miterlimit="10"/>
<path opacity="0.2" d="M127.304 173.305C127.304 173.305 125.858 171.079 127.375 169.084" stroke="black" stroke-miterlimit="10"/>
<path opacity="0.2" d="M129.893 168.239C129.893 168.239 131.808 168.996 132.076 172.404" stroke="black" stroke-miterlimit="10"/>
<path opacity="0.2" d="M132.14 164.25C132.14 164.25 135.131 164.822 137.217 168.934" stroke="black" stroke-miterlimit="10"/>
<path opacity="0.2" d="M128.287 165.542C128.287 165.542 129.7 164.543 131.012 165.066" stroke="black" stroke-miterlimit="10"/>
<path opacity="0.2" d="M129.355 174.973C129.355 174.973 131.244 176.175 136.115 172.707" stroke="black" stroke-miterlimit="10"/>
<path opacity="0.2" d="M129.019 177.364C129.019 177.364 130.201 178.542 132.663 177.541" stroke="black" stroke-miterlimit="10"/>
<path opacity="0.2" d="M125.513 166.911C125.005 167.664 124.664 168.517 124.512 169.413C124.36 170.308 124.401 171.226 124.632 172.104" stroke="black" stroke-miterlimit="10"/>
<path opacity="0.2" d="M127.1 174.51C127.1 174.51 126.944 175.612 128.177 176.159" stroke="black" stroke-miterlimit="10"/>
<path opacity="0.2" d="M136.903 173.234C136.903 173.234 136.827 175.363 135.648 175.491" stroke="black" stroke-miterlimit="10"/>
<path opacity="0.2" d="M130.432 176.365C131.144 176.46 131.868 176.392 132.549 176.165C133.23 175.938 133.85 175.558 134.362 175.055" stroke="black" stroke-miterlimit="10"/>
<path opacity="0.2" d="M132.253 168.76C132.253 168.76 133.277 169.466 133.175 170.725" stroke="black" stroke-miterlimit="10"/>
<path opacity="0.2" d="M128.349 170.157C128.349 170.157 128.064 171.652 128.799 172.542" stroke="black" stroke-miterlimit="10"/>
<path opacity="0.2" d="M129.214 169.867C129.214 169.867 130.265 171.177 129.979 172.147" stroke="black" stroke-miterlimit="10"/>
<defs>
<linearGradient id="paint0_linear" x1="212.965" y1="-8.89256" x2="23.5699" y2="127.154" gradientUnits="userSpaceOnUse">
<stop stop-color="#22C88A"/>
<stop offset="1" stop-color="#1BF2A0"/>
</linearGradient>
<linearGradient id="paint1_linear" x1="120.426" y1="153.925" x2="120.426" y2="67.8268" gradientUnits="userSpaceOnUse">
<stop stop-color="#808080" stop-opacity="0.25"/>
<stop offset="0.54" stop-color="#808080" stop-opacity="0.12"/>
<stop offset="1" stop-color="#808080" stop-opacity="0.1"/>
</linearGradient>
<linearGradient id="paint2_linear" x1="12493.1" y1="-72704.4" x2="8548.73" y2="-78312.6" gradientUnits="userSpaceOnUse">
<stop stop-color="#808080" stop-opacity="0.25"/>
<stop offset="0.54" stop-color="#808080" stop-opacity="0.12"/>
<stop offset="1" stop-color="#808080" stop-opacity="0.1"/>
</linearGradient>
<linearGradient id="paint3_linear" x1="1863.51" y1="-10504.7" x2="1793.12" y2="-10604.8" gradientUnits="userSpaceOnUse">
<stop stop-color="#808080" stop-opacity="0.25"/>
<stop offset="0.54" stop-color="#808080" stop-opacity="0.12"/>
<stop offset="1" stop-color="#808080" stop-opacity="0.1"/>
</linearGradient>
<linearGradient id="paint4_linear" x1="2168.7" y1="-10337.7" x2="2098.28" y2="-10437.8" gradientUnits="userSpaceOnUse">
<stop stop-color="#808080" stop-opacity="0.25"/>
<stop offset="0.54" stop-color="#808080" stop-opacity="0.12"/>
<stop offset="1" stop-color="#808080" stop-opacity="0.1"/>
</linearGradient>
<linearGradient id="paint5_linear" x1="1704.49" y1="-10153.3" x2="1634.07" y2="-10253.4" gradientUnits="userSpaceOnUse">
<stop stop-color="#808080" stop-opacity="0.25"/>
<stop offset="0.54" stop-color="#808080" stop-opacity="0.12"/>
<stop offset="1" stop-color="#808080" stop-opacity="0.1"/>
</linearGradient>
<linearGradient id="paint6_linear" x1="1992.65" y1="-9973.84" x2="1922.23" y2="-10074" gradientUnits="userSpaceOnUse">
<stop stop-color="#808080" stop-opacity="0.25"/>
<stop offset="0.54" stop-color="#808080" stop-opacity="0.12"/>
<stop offset="1" stop-color="#808080" stop-opacity="0.1"/>
</linearGradient>
<linearGradient id="paint7_linear" x1="9146.66" y1="7703.52" x2="9146.66" y2="4618.86" gradientUnits="userSpaceOnUse">
<stop stop-color="#808080" stop-opacity="0.25"/>
<stop offset="0.54" stop-color="#808080" stop-opacity="0.12"/>
<stop offset="1" stop-color="#808080" stop-opacity="0.1"/>
</linearGradient>
<linearGradient id="paint8_linear" x1="17456.1" y1="16351.3" x2="17456.1" y2="7268.57" gradientUnits="userSpaceOnUse">
<stop stop-color="#808080" stop-opacity="0.25"/>
<stop offset="0.54" stop-color="#808080" stop-opacity="0.12"/>
<stop offset="1" stop-color="#808080" stop-opacity="0.1"/>
</linearGradient>
<linearGradient id="paint9_linear" x1="131.95" y1="93.3414" x2="131.95" y2="91.6841" gradientUnits="userSpaceOnUse">
<stop stop-color="white"/>
<stop offset="1"/>
</linearGradient>
<linearGradient id="paint10_linear" x1="61529.4" y1="69926.7" x2="61529.4" y2="6105.14" gradientUnits="userSpaceOnUse">
<stop stop-color="#808080" stop-opacity="0.25"/>
<stop offset="0.54" stop-color="#808080" stop-opacity="0.12"/>
<stop offset="1" stop-color="#808080" stop-opacity="0.1"/>
</linearGradient>
<linearGradient id="paint11_linear" x1="15994.5" y1="-10380.2" x2="15522.7" y2="-11786.8" gradientUnits="userSpaceOnUse">
<stop stop-color="#808080" stop-opacity="0.25"/>
<stop offset="0.54" stop-color="#808080" stop-opacity="0.12"/>
<stop offset="1" stop-color="#808080" stop-opacity="0.1"/>
</linearGradient>
<linearGradient id="paint12_linear" x1="25545.9" y1="-18329.1" x2="23997.5" y2="-22946.3" gradientUnits="userSpaceOnUse">
<stop stop-color="#808080" stop-opacity="0.25"/>
<stop offset="0.54" stop-color="#808080" stop-opacity="0.12"/>
<stop offset="1" stop-color="#808080" stop-opacity="0.1"/>
</linearGradient>
</defs>
</svg>
