<svg width="256" height="228" viewBox="0 0 256 228" fill="none" xmlns="http://www.w3.org/2000/svg">
<path d="M220.121 33.6227C239.422 91.2379 208.363 153.591 150.748 172.893C93.1329 192.195 30.7795 161.135 11.4778 103.52C-7.82387 45.9051 27.2953 73.7939 84.9105 54.4922C142.526 35.1906 200.819 -23.9925 220.121 33.6227Z" fill="url(#paint0_linear)"/>
<path d="M57.0466 32.6588C57.0466 32.6588 48.1182 44.5164 54.5055 58.3375C60.8928 72.1587 43.3733 94.3653 43.3733 94.3653" stroke="#535461" stroke-width="2" stroke-miterlimit="10"/>
<path d="M61.0496 28.2212C60.3404 31.2728 56.9469 33.0908 56.9469 33.0908C56.9469 33.0908 54.7061 29.9606 55.4153 26.909C56.1245 23.8574 57.9564 21.6767 59.518 22.0394C61.0796 22.4021 61.7588 25.1696 61.0496 28.2212Z" fill="#8ED16F"/>
<path d="M58.7706 27.6894C58.9935 26.7313 58.8831 25.8869 58.524 25.8033C58.1649 25.7198 57.693 26.4287 57.4701 27.3867C57.2471 28.3448 57.3575 29.1892 57.7166 29.2728C58.0758 29.3563 58.5476 28.6474 58.7706 27.6894Z" fill="#8ED16F"/>
<path opacity="0.3" d="M58.7706 27.6894C58.9935 26.7313 58.8831 25.8869 58.524 25.8033C58.1649 25.7198 57.693 26.4287 57.4701 27.3867C57.2471 28.3448 57.3575 29.1892 57.7166 29.2728C58.0758 29.3563 58.5476 28.6474 58.7706 27.6894Z" fill="black"/>
<path d="M59.5065 41.779C56.5589 42.8416 53.1885 40.9797 53.1885 40.9797C53.1885 40.9797 54.5976 37.3968 57.5476 36.3364C60.4975 35.2761 63.3227 35.6434 63.8656 37.1357C64.4085 38.628 62.4542 40.7163 59.5065 41.779Z" fill="#8ED16F"/>
<path d="M58.6787 39.4262C59.6033 39.0918 60.2513 38.5397 60.1259 38.1931C60.0006 37.8465 59.1494 37.8367 58.2247 38.1711C57.3001 38.5056 56.6522 39.0576 56.7775 39.4042C56.9029 39.7508 57.7541 39.7607 58.6787 39.4262Z" fill="#8ED16F"/>
<path opacity="0.3" d="M58.6787 39.4262C59.6033 39.0918 60.2513 38.5397 60.1259 38.1931C60.0006 37.8465 59.1494 37.8367 58.2247 38.1711C57.3001 38.5056 56.6522 39.0576 56.7775 39.4042C56.9029 39.7508 57.7541 39.7607 58.6787 39.4262Z" fill="black"/>
<path d="M58.8205 52.5831C55.8728 53.6457 52.5024 51.7838 52.5024 51.7838C52.5024 51.7838 53.9116 48.2009 56.8615 47.1406C59.8115 46.0803 62.6367 46.4476 63.1796 47.9399C63.7224 49.4322 61.7681 51.5228 58.8205 52.5831Z" fill="#8ED16F"/>
<path d="M58.027 50.3936C58.9525 50.0604 59.6015 49.5091 59.4766 49.1622C59.3517 48.8153 58.5002 48.8041 57.5747 49.1373C56.6492 49.4705 56.0002 50.0219 56.1251 50.3688C56.25 50.7157 57.1015 50.7268 58.027 50.3936Z" fill="#8ED16F"/>
<path opacity="0.3" d="M58.027 50.3936C58.9525 50.0604 59.6015 49.5091 59.4766 49.1622C59.3517 48.8153 58.5002 48.8041 57.5747 49.1373C56.6492 49.4705 56.0002 50.0219 56.1251 50.3688C56.25 50.7157 57.1015 50.7268 58.027 50.3936Z" fill="black"/>
<path d="M62.2646 65.2585C59.3169 66.3211 55.9465 64.4592 55.9465 64.4592C55.9465 64.4592 57.3557 60.8763 60.3056 59.8159C63.2556 58.7556 66.0808 59.1229 66.6237 60.6152C67.1665 62.1075 65.2122 64.2028 62.2646 65.2585Z" fill="#8ED16F"/>
<path d="M61.4716 63.0746C62.3971 62.7414 63.0461 62.1901 62.9212 61.8431C62.7963 61.4962 61.9448 61.4851 61.0193 61.8183C60.0938 62.1515 59.4448 62.7029 59.5697 63.0498C59.6945 63.3967 60.5461 63.4078 61.4716 63.0746Z" fill="#8ED16F"/>
<path opacity="0.3" d="M61.4716 63.0746C62.3971 62.7414 63.0461 62.1901 62.9212 61.8431C62.7963 61.4962 61.9448 61.4851 61.0193 61.8183C60.0938 62.1515 59.4448 62.7029 59.5697 63.0498C59.6945 63.3967 60.5461 63.4078 61.4716 63.0746Z" fill="black"/>
<path d="M60.0241 76.8504C57.0764 77.913 53.7061 76.0511 53.7061 76.0511C53.7061 76.0511 55.1152 72.4682 58.0652 71.4079C61.0151 70.3475 63.8403 70.7148 64.3832 72.2071C64.9261 73.6994 62.974 75.7901 60.0241 76.8504Z" fill="#8ED16F"/>
<path d="M59.2371 74.4696C60.1617 74.1352 60.8096 73.5831 60.6843 73.2365C60.5589 72.8899 59.7077 72.8801 58.7831 73.2145C57.8584 73.549 57.2105 74.101 57.3359 74.4476C57.4612 74.7942 58.3124 74.8041 59.2371 74.4696Z" fill="#8ED16F"/>
<path opacity="0.3" d="M59.2371 74.4696C60.1617 74.1352 60.8096 73.5831 60.6843 73.2365C60.5589 72.8899 59.7077 72.8801 58.7831 73.2145C57.8584 73.549 57.2105 74.101 57.3359 74.4476C57.4612 74.7942 58.3124 74.8041 59.2371 74.4696Z" fill="black"/>
<path d="M46.1985 44.849C48.3745 47.1036 52.2208 46.9281 52.2208 46.9281C52.2208 46.9281 52.5373 43.091 50.3612 40.8364C48.1851 38.5818 45.4893 37.6531 44.3388 38.7573C43.1884 39.8616 44.0224 42.5944 46.1985 44.849Z" fill="#8ED16F"/>
<path d="M49.5996 44.0489C49.8649 43.7928 49.5261 43.0115 48.8429 42.3038C48.1597 41.5961 47.3909 41.23 47.1256 41.4861C46.8603 41.7422 47.1991 42.5235 47.8823 43.2312C48.5654 43.9389 49.3343 44.305 49.5996 44.0489Z" fill="#8ED16F"/>
<path opacity="0.3" d="M49.5996 44.0489C49.8649 43.7928 49.5261 43.0115 48.8429 42.3038C48.1597 41.5961 47.3909 41.23 47.1256 41.4861C46.8603 41.7422 47.1991 42.5235 47.8823 43.2312C48.5654 43.9389 49.3343 44.305 49.5996 44.0489Z" fill="black"/>
<path d="M44.9485 80.6528C47.1245 82.9074 50.9708 82.7318 50.9708 82.7318C50.9708 82.7318 51.2873 78.8948 49.1112 76.6402C46.9351 74.3856 44.2393 73.4569 43.0888 74.5611C41.9384 75.6653 42.7724 78.3981 44.9485 80.6528Z" fill="#8ED16F"/>
<path d="M48.3467 79.8558C48.6119 79.5997 48.2732 78.8184 47.59 78.1107C46.9068 77.403 46.1379 77.0369 45.8727 77.293C45.6074 77.5491 45.9462 78.3304 46.6293 79.0381C47.3125 79.7458 48.0814 80.1119 48.3467 79.8558Z" fill="#8ED16F"/>
<path opacity="0.3" d="M48.3467 79.8558C48.6119 79.5997 48.2732 78.8184 47.59 78.1107C46.9068 77.403 46.1379 77.0369 45.8727 77.293C45.6074 77.5491 45.9462 78.3304 46.6293 79.0381C47.3125 79.7458 48.0814 80.1119 48.3467 79.8558Z" fill="black"/>
<path d="M47.8339 57.5036C50.6383 58.9035 54.2027 57.4481 54.2027 57.4481C54.2027 57.4481 53.2209 53.7266 50.4188 52.3267C47.6167 50.9268 44.7638 50.9407 44.05 52.3822C43.3362 53.8236 45.0294 56.1037 47.8339 57.5036Z" fill="#8ED16F"/>
<path d="M50.7652 55.6079C50.9298 55.278 50.3498 54.6545 49.4696 54.2153C48.5895 53.7761 47.7425 53.6875 47.5779 54.0174C47.4132 54.3473 47.9933 54.9708 48.8734 55.41C49.7536 55.8492 50.6006 55.9378 50.7652 55.6079Z" fill="#8ED16F"/>
<path opacity="0.3" d="M50.7652 55.6079C50.9298 55.278 50.3498 54.6545 49.4696 54.2153C48.5895 53.7761 47.7425 53.6875 47.5779 54.0174C47.4132 54.3473 47.9933 54.9708 48.8734 55.41C49.7536 55.8492 50.6006 55.9378 50.7652 55.6079Z" fill="black"/>
<path d="M49.0097 70.1096C51.8141 71.5095 55.3785 70.0542 55.3785 70.0542C55.3785 70.0542 54.3968 66.3326 51.5946 64.9327C48.7925 63.5328 45.9396 63.5467 45.2258 64.9882C44.512 66.4297 46.2168 68.7236 49.0097 70.1096Z" fill="#8ED16F"/>
<path d="M51.9419 68.2156C52.1066 67.8857 51.5265 67.2622 50.6464 66.8229C49.7662 66.3837 48.9193 66.2951 48.7546 66.6251C48.59 66.955 49.17 67.5785 50.0502 68.0177C50.9303 68.4569 51.7773 68.5455 51.9419 68.2156Z" fill="#8ED16F"/>
<path opacity="0.3" d="M51.9419 68.2156C52.1066 67.8857 51.5265 67.2622 50.6464 66.8229C49.7662 66.3837 48.9193 66.2951 48.7546 66.6251C48.59 66.955 49.17 67.5785 50.0502 68.0177C50.9303 68.4569 51.7773 68.5455 51.9419 68.2156Z" fill="black"/>
<path d="M37.0446 58.1458C37.0446 58.1458 53.3513 74.4525 44.1457 98.6505C34.9401 122.848 59.9258 163.087 59.9258 163.087C59.9258 163.087 59.6578 163.048 59.1612 162.96C25.6652 157.049 9.03269 118.743 27.6518 90.288C34.5659 79.7079 40.2602 67.2982 37.0446 58.1458Z" fill="#8ED16F"/>
<path d="M8 124.1C8 124.1 26.6076 121.137 28.3032 137.813C29.9988 154.489 64.0838 156.802 64.0838 156.802C64.0838 156.802 63.8528 156.954 63.4439 157.227C35.3004 175.707 8.39733 168.994 12.4515 144.464C13.9623 135.341 13.8375 126.182 8 124.1Z" fill="#8ED16F"/>
<g opacity="0.3">
<path opacity="0.3" d="M8 124.1C8 124.1 26.6076 121.137 28.3032 137.813C29.9988 154.489 64.0838 156.802 64.0838 156.802C64.0838 156.802 63.8528 156.954 63.4439 157.227C35.3004 175.707 8.39733 168.994 12.4515 144.464C13.9623 135.341 13.8375 126.182 8 124.1Z" fill="white"/>
</g>
<path d="M32.3341 123.895C35.16 123.895 37.4509 117.918 37.4509 110.545C37.4509 103.172 35.16 97.1952 32.3341 97.1952C29.5082 97.1952 27.2173 103.172 27.2173 110.545C27.2173 117.918 29.5082 123.895 32.3341 123.895Z" fill="#8ED16F"/>
<path opacity="0.3" d="M32.3341 123.895C35.16 123.895 37.4509 117.918 37.4509 110.545C37.4509 103.172 35.16 97.1952 32.3341 97.1952C29.5082 97.1952 27.2173 103.172 27.2173 110.545C27.2173 117.918 29.5082 123.895 32.3341 123.895Z" fill="black"/>
<path d="M31.8668 159.029C33.2137 157.682 31.8753 154.16 28.8775 151.162C25.8797 148.164 22.3577 146.826 21.0108 148.173C19.6639 149.52 21.0022 153.042 24 156.04C26.9978 159.038 30.5199 160.376 31.8668 159.029Z" fill="#8ED16F"/>
<path opacity="0.3" d="M31.8668 159.029C33.2137 157.682 31.8753 154.16 28.8775 151.162C25.8797 148.164 22.3577 146.826 21.0108 148.173C19.6639 149.52 21.0022 153.042 24 156.04C26.9978 159.038 30.5199 160.376 31.8668 159.029Z" fill="black"/>
<path d="M135.273 41.0422C135.438 41.5646 135.789 42.0084 136.259 42.2896C138.382 43.6918 142.998 43.3938 143.552 43.3938C143.67 43.3938 143.825 43.6041 143.996 43.9575C144.811 45.6392 146.075 50.5689 146.16 51.6777C146.273 53.0199 147.521 59.301 149.563 61.6411C149.625 61.7127 149.688 61.7797 149.748 61.842C151.751 63.8541 154.1 61.6411 154.1 61.6411L154.437 60.4699C154.342 60.9319 154.236 61.4701 154.13 62.073C154.077 62.3757 154.024 62.6968 153.973 63.0271C153.669 64.8885 153.509 66.7707 153.495 68.6567C153.49 69.3416 153.519 70.0262 153.582 70.7081C153.601 70.8975 153.622 71.0846 153.647 71.2671C153.751 72.0977 153.802 72.9341 153.8 73.7712C153.781 78.7425 152.513 84.9265 152.513 84.9265L152.561 84.9104C152.531 85.0651 152.513 85.1414 152.513 85.1414L152.587 85.1183C152.551 85.3477 152.518 85.5826 152.485 85.8228C152.056 88.9414 151.808 92.8224 151.691 95.0631C151.63 96.2451 151.682 97.4302 151.848 98.6021L154.102 114.475V121.867C154.095 122.987 154.231 124.103 154.509 125.189C155.243 127.982 154.638 137.73 154.299 142.355C154.204 143.616 154.13 144.499 154.109 144.753V144.829L154.174 144.803C154.174 144.857 154.174 144.884 154.174 144.884C154.27 144.843 154.371 144.814 154.474 144.797C153.58 146.183 151.961 148.474 150.716 148.86C149.982 149.084 149.329 149.516 148.838 150.105L148.805 150.149L148.759 150.214C148.605 150.42 148.512 150.664 148.489 150.921C148.471 150.876 148.457 150.831 148.447 150.784C148.352 151.299 148.662 151.771 149.635 151.999C150.202 152.108 150.779 152.154 151.356 152.138C154.728 152.138 160.714 151.101 161.374 149.985V146.136L161.483 146.171V146.206L161.896 146.342L163.031 142.535C164.391 141.528 163.262 123.502 163.031 119.36C162.823 115.586 165.158 100.57 165.572 97.9253L165.516 97.8583L165.579 97.4725C165.662 97.5329 165.739 97.601 165.81 97.6758C165.945 97.837 166.064 98.012 166.163 98.1979C166.358 98.5285 166.526 98.8746 166.664 99.2328C168.947 104.925 169.975 121.202 169.975 122.661V137.968C169.97 139.478 170.18 140.982 170.598 142.433C170.808 143.197 170.97 143.973 171.084 144.757C171.132 145.065 171.174 145.369 171.213 145.661C171.252 145.952 171.291 146.284 171.321 146.557C171.321 146.628 171.338 146.698 171.345 146.762C171.352 146.827 171.345 146.825 171.345 146.857C171.407 147.46 171.439 147.855 171.439 147.855C171.448 147.822 171.464 147.791 171.485 147.765L171.497 147.911C171.513 147.855 171.544 147.806 171.587 147.767C171.681 147.675 171.783 147.592 171.892 147.518V149.463L171.837 149.421V149.756C174.188 151.53 178.016 152.066 180.954 152.046C182.86 152.046 184.403 151.815 184.939 151.547C185.706 151.17 185.286 150.292 184.588 149.62C184.048 149.098 183.343 148.696 182.897 148.747C182.153 148.828 179.61 145.947 178.277 144.369L178.427 144.302L178.64 144.21V118.688C178.64 118.688 178.982 108.612 180 98.646C180.484 93.6225 179.889 88.5537 178.256 83.7784L178.224 83.6837L178.534 83.7322C178.862 83.7831 179.037 83.8131 179.037 83.8131C179.037 83.8131 179.037 83.7345 179.016 83.5821H179.037C179.037 83.5821 178.64 79.2599 178.635 73.8313C178.635 67.6773 179.155 60.1742 181.306 55.9283C182.544 53.4842 182.957 51.5391 182.923 50.0052C182.977 48.6556 182.588 47.3252 181.816 46.2167C181.492 45.7705 181.052 45.4221 180.543 45.2096L180.499 45.1841H180.476C180.105 45.0338 179.708 44.9554 179.307 44.9531H174.662C174.124 44.9536 173.596 44.8143 173.128 44.5489L171.31 43.5186C170.705 42.1949 170.617 40.5548 170.746 39.0163C170.746 38.8938 170.769 38.7714 170.781 38.6513L170.913 38.5127C171.014 38.4041 171.109 38.2817 171.201 38.1777C171.199 38.2689 171.192 38.3599 171.181 38.4503C171.157 38.5958 171.118 38.6813 171.056 38.6998C172.049 38.5704 173.158 38.3741 173.768 37.6071C173.793 37.5771 173.816 37.5447 173.839 37.5124C174.02 37.2207 174.169 36.911 174.285 36.5884C174.371 36.368 174.485 36.1598 174.625 35.9693C174.777 35.7706 174.976 35.6089 175.14 35.4195L175.168 35.3871C175.752 34.6941 175.785 33.7008 175.791 32.7952C175.803 30.5961 175.738 28.1751 174.267 26.5257C173.045 25.1535 171.095 24.6338 169.245 24.5737C167.394 24.5137 165.549 24.8463 163.701 24.8555C162.444 24.8555 160.928 24.8348 160.235 25.8743C159.896 26.3848 159.854 27.0524 159.485 27.5422C159.272 27.824 158.946 28.0665 158.928 28.4177C158.926 28.5797 158.967 28.7393 159.048 28.8797V28.8959C159.496 29.7783 160.448 30.3281 161.441 30.5014C161.273 30.7035 161.119 30.9165 160.979 31.1389C160.373 32.1084 160.053 33.2295 160.055 34.373C160.055 34.507 160.055 34.6387 160.069 34.7704C160.172 36.3236 160.865 37.7787 162.005 38.8384C161.986 38.9677 161.968 39.0971 161.947 39.2242L161.989 39.2611C162.12 39.3797 162.256 39.4921 162.398 39.5984L162.449 39.6377C162.449 39.7185 162.449 39.7994 162.449 39.8687C162.449 40.0027 162.449 40.139 162.435 40.2706C162.421 40.4023 162.435 40.4832 162.421 40.5894L162.391 40.564L160.134 38.679L156.505 35.3202C156.505 35.3202 147.431 28.7157 146.976 31.8551C146.921 32.4126 147.075 32.9707 147.408 33.4213C149.073 35.9623 154.8 38.1246 154.8 38.1246C154.8 38.1246 158.214 41.7352 160.499 45.6277C160.418 45.6716 160.337 45.7131 160.252 45.7524C158.219 46.6972 155.253 46.2976 155.253 46.2976C151.827 46.8312 151.517 50.5851 151.536 52.1028C151.536 52.1744 151.536 52.2437 151.536 52.3061C151.536 52.3685 151.536 52.3823 151.536 52.417L146.99 41.7421L146.976 41.7098C146.827 41.3623 146.594 41.0577 146.297 40.8244C145.999 40.591 145.648 40.4363 145.275 40.3746C142.235 39.8641 134.638 38.7991 135.273 41.0422ZM154.306 144.764C154.372 144.748 154.439 144.736 154.506 144.727L154.486 144.76L154.306 144.764Z" fill="url(#paint1_linear)"/>
<path d="M177.02 142.581C177.02 142.581 181.326 147.994 182.322 147.883C183.318 147.772 185.635 149.98 184.311 150.655C182.987 151.329 175.366 151.759 171.605 148.888V144.561L177.02 142.581Z" fill="#ACA9C9"/>
<path d="M155.262 142.912C155.262 142.912 152.721 147.439 150.956 147.994C149.191 148.548 147.643 150.535 149.962 151.087C152.282 151.639 160.566 150.424 161.337 149.098V143.242L155.262 142.912Z" fill="#ACA9C9"/>
<path d="M152.072 98.4312L154.266 114.089V121.368C154.259 122.472 154.393 123.573 154.664 124.644C155.38 127.399 154.791 137.014 154.458 141.576C154.349 143.064 154.266 144.016 154.266 144.016C155.701 143.353 161.776 145.45 161.776 145.45L162.391 143.36L162.88 141.696C164.206 140.703 163.111 122.923 162.88 118.827C162.73 116.029 163.978 106.96 164.777 101.524C165.008 99.9882 165.195 98.7523 165.308 98.0085C165.38 97.5465 165.419 97.2901 165.419 97.2901C165.663 97.4886 165.865 97.7326 166.015 98.0085C166.205 98.3349 166.368 98.6765 166.503 99.0295C168.725 104.645 169.737 120.7 169.737 122.13V137.229C169.732 138.718 169.937 140.201 170.344 141.634C170.618 142.679 170.818 143.742 170.943 144.815C171.1 146.014 171.174 146.98 171.174 146.98C171.284 146.317 178.132 143.334 178.132 143.334V118.155C178.132 118.155 178.462 108.221 179.457 98.385C179.885 93.9108 179.454 89.396 178.187 85.0837C177.912 84.1435 177.637 83.3465 177.399 82.7158C176.995 81.6417 176.706 81.048 176.706 81.048H154.151C153.772 81.1196 153.458 81.8819 153.174 83.0393C152.989 83.8154 152.827 84.7672 152.686 85.8113C152.268 88.886 152.028 92.7138 151.912 94.9269C151.854 96.0974 151.907 97.2708 152.072 98.4312Z" fill="#618FD8"/>
<g opacity="0.1">
<path opacity="0.1" d="M177.734 143.406V118.226C177.734 118.226 178.065 108.293 179.06 98.4566C180.056 88.6203 176.288 81.1172 176.288 81.1172H176.73C176.73 81.1172 180.483 88.6272 179.502 98.4566C178.52 108.286 178.176 118.226 178.176 118.226V143.406C178.176 143.406 171.329 146.388 171.218 147.051C171.218 147.051 171.218 146.903 171.183 146.649C172.675 145.612 177.734 143.406 177.734 143.406Z" fill="black"/>
<path opacity="0.1" d="M154.929 143.946C154.721 143.951 154.515 143.993 154.322 144.071V143.96C154.524 143.94 154.727 143.935 154.929 143.946Z" fill="black"/>
<path opacity="0.1" d="M162.495 141.752C163.821 140.759 162.726 122.978 162.495 118.882C162.264 114.786 165.036 97.3478 165.036 97.3478C165.181 97.4599 165.309 97.5921 165.417 97.7405C165.01 100.346 162.737 115.161 162.938 118.882C163.169 122.969 164.264 140.749 162.938 141.752L161.834 145.506L161.432 145.372L162.495 141.752Z" fill="black"/>
</g>
<path d="M156.585 53.7868L154.275 61.9598C154.275 61.9598 151.845 64.2699 149.858 61.9598C147.872 59.6497 146.647 53.4564 146.527 52.1305C146.407 50.8045 144.649 43.9574 143.986 43.9574C143.323 43.9574 136.698 44.3987 135.924 41.6474C135.305 39.4343 142.702 40.4923 145.663 40.989C146.028 41.0511 146.371 41.2044 146.661 41.4346C146.95 41.6648 147.177 41.9644 147.32 42.3057L151.861 53.1515C151.861 53.1515 154.266 50.3632 156.585 53.7868Z" fill="#F7C4A7"/>
<path d="M171.495 34.7912C171.495 34.7912 168.623 42.8533 172.269 45.7247C175.914 48.5962 159.233 49.37 159.233 49.37L161.497 47.217C161.497 47.217 163.098 40.8667 161.993 35.5651L171.495 34.7912Z" fill="#F7C4A7"/>
<path opacity="0.1" d="M167.96 45.7247C167.96 45.7247 170.887 45.0062 170.887 44.2347L173.481 45.7247H179.998C179.998 45.7247 184.748 48.3743 180.772 56.3279C176.796 64.2814 178.564 83.8177 178.564 83.8177C178.564 83.8177 164.428 81.2766 152.721 85.1437C152.721 85.1437 154.488 76.4185 153.825 71.4496C153.162 66.4806 154.929 59.5227 154.929 59.5227L155.923 55.3253C155.923 55.3253 155.867 51.3982 151.781 53.3918C151.781 53.3918 151.173 47.7044 155.37 47.0414C155.37 47.0414 160.222 47.7044 161.665 45.2742C161.665 45.2835 164.869 47.1615 167.96 45.7247Z" fill="black"/>
<path d="M167.96 45.5053C167.96 45.5053 170.887 44.7868 170.887 44.0153L172.788 45.1079C173.243 45.3682 173.757 45.5052 174.281 45.5053H178.838C179.315 45.5039 179.785 45.6159 180.209 45.832C180.634 46.0481 181.001 46.3621 181.28 46.7481C182.326 48.2196 183.264 51.121 180.772 56.1085C176.796 64.0597 178.563 83.5983 178.563 83.5983C178.563 83.5983 164.428 81.0572 152.721 84.9242C152.721 84.9242 154.488 76.1991 153.825 71.2302C153.162 66.2612 154.929 59.3195 154.929 59.3195L155.922 55.1221C155.922 55.1221 155.867 51.1949 151.78 53.1885C151.78 53.1885 151.189 47.6582 155.197 46.8682C155.308 46.8434 155.423 46.8356 155.537 46.8451C156.394 46.9352 160.388 47.2239 161.668 45.0594C161.665 45.0617 164.869 46.9398 167.96 45.5053Z" fill="#E14B5A"/>
<path opacity="0.1" d="M179.116 55.5541C179.116 55.5541 175.581 57.7625 169.838 55.5541C169.838 55.5541 163.543 53.244 161.554 48.707C159.565 44.17 171.603 49.4809 171.603 49.4809C171.603 49.4809 174.144 49.4809 174.916 48.9288C175.687 48.3767 181.102 53.1239 179.116 55.5541Z" fill="black"/>
<path d="M179.116 55.1128C179.116 55.1128 175.581 57.3212 169.839 55.1128C169.839 55.1128 163.544 52.8027 161.555 48.2657C159.566 43.7288 154.929 38.7598 154.929 38.7598C154.929 38.7598 146.867 35.6666 147.306 32.5758C147.745 29.4849 156.583 35.9993 156.583 35.9993L160.118 39.3119L171.603 49.0304C171.603 49.0304 174.144 49.0304 174.916 48.4783C175.688 47.9262 181.102 52.6826 179.116 55.1128Z" fill="#F7C4A7"/>
<path opacity="0.1" d="M161.887 35.8953L171.384 35.1215C170.896 36.5815 170.563 38.0891 170.393 39.6192C169.289 40.764 167.779 41.4296 166.19 41.4728C164.6 41.516 163.056 40.9333 161.892 39.8502C162.134 38.5429 162.132 37.2021 161.887 35.8953Z" fill="black"/>
<path d="M166.14 41.1415C169.494 41.1415 172.213 38.4225 172.213 35.0683C172.213 31.7142 169.494 28.9952 166.14 28.9952C162.786 28.9952 160.067 31.7142 160.067 35.0683C160.067 38.4225 162.786 41.1415 166.14 41.1415Z" fill="#F7C4A7"/>
<path opacity="0.1" d="M169.474 36.3874C169.118 35.8006 169.841 35.036 169.603 34.3938C169.383 33.8024 168.51 33.7008 168.217 33.1487C167.986 32.7028 168.217 32.1554 168.124 31.6633C167.993 31.028 167.309 30.633 166.66 30.6007C166.011 30.5683 165.385 30.8109 164.768 31.0188C163.763 31.3584 162.705 31.6194 161.652 31.4993C160.598 31.3792 159.547 30.8063 159.078 29.8661C159.002 29.7291 158.961 29.5749 158.96 29.4179C158.979 29.0714 159.298 28.8335 159.503 28.5563C159.864 28.0735 159.905 27.4151 160.233 26.9115C160.903 25.8858 162.375 25.9112 163.599 25.9066C165.401 25.9066 167.194 25.5694 168.995 25.6294C170.797 25.6895 172.691 26.2 173.886 27.5537C175.318 29.1823 175.383 31.5663 175.371 33.7378C175.371 34.6317 175.334 35.6043 174.764 36.295C174.597 36.496 174.394 36.6623 174.235 36.8679C173.888 37.3299 173.796 37.9213 173.47 38.3902C172.892 39.2242 171.765 39.4275 170.76 39.5614C171.056 39.5222 170.811 37.5424 170.76 37.3599C170.566 36.4498 170.356 36.4683 169.474 36.3874Z" fill="black"/>
<path d="M169.474 36.1679C169.118 35.5812 169.841 34.8165 169.603 34.1743C169.383 33.583 168.51 33.4813 168.217 32.9292C167.986 32.4834 168.217 31.9359 168.124 31.4438C167.993 30.8086 167.309 30.4135 166.66 30.3812C166.011 30.3489 165.385 30.5914 164.768 30.7993C163.763 31.1389 162.705 31.3999 161.652 31.2798C160.598 31.1597 159.547 30.5868 159.078 29.6466C159.002 29.5096 158.961 29.3554 158.96 29.1984C158.979 28.8519 159.298 28.614 159.503 28.3368C159.864 27.854 159.905 27.1956 160.233 26.692C160.903 25.6664 162.375 25.6918 163.599 25.6871C165.401 25.6871 167.194 25.3499 168.995 25.4099C170.797 25.47 172.691 25.9805 173.886 27.3342C175.318 28.9628 175.383 31.3468 175.371 33.5183C175.371 34.4123 175.334 35.3848 174.764 36.0755C174.597 36.2765 174.394 36.4428 174.235 36.6484C173.888 37.1104 173.796 37.7018 173.47 38.1708C172.892 39.0047 171.765 39.208 170.76 39.3419C171.056 39.3027 170.811 37.323 170.76 37.1405C170.566 36.2187 170.356 36.2465 169.474 36.1679Z" fill="#281C1C"/>
<path opacity="0.1" d="M179.06 55.8312C179.06 55.8312 176.078 48.0994 173.758 47.8799C171.439 47.6605 178.175 47.8799 178.175 47.8799L180.384 51.8556L179.06 55.8312Z" fill="black"/>
<path d="M179.282 55.8312C179.282 55.8312 176.3 48.0994 173.98 47.8799C171.661 47.6605 178.397 47.8799 178.397 47.8799L180.606 51.8556L179.282 55.8312Z" fill="#E14B5A"/>
<path d="M170.933 144.834C171.09 146.032 171.164 146.998 171.164 146.998C171.275 146.335 178.122 143.353 178.122 143.353V141.558C177.948 141.551 177.773 141.56 177.6 141.583C176.272 141.761 175.04 142.406 173.904 143.094C172.944 143.724 171.952 144.305 170.933 144.834Z" fill="#618FD8"/>
<path opacity="0.3" d="M170.933 144.834C171.09 146.032 171.164 146.998 171.164 146.998C171.275 146.335 178.122 143.353 178.122 143.353V141.558C177.948 141.551 177.773 141.56 177.6 141.583C176.272 141.761 175.04 142.406 173.904 143.094C172.944 143.724 171.952 144.305 170.933 144.834Z" fill="black"/>
<path d="M154.266 144.016C155.701 143.353 161.776 145.45 161.776 145.45L162.391 143.36C161.331 143.145 160.277 142.877 159.242 142.558C158.759 142.418 158.287 142.244 157.828 142.036C157.523 141.873 157.208 141.726 156.886 141.597C156.094 141.325 155.269 141.44 154.456 141.576C154.35 143.064 154.266 144.016 154.266 144.016Z" fill="#618FD8"/>
<path opacity="0.3" d="M154.266 144.016C155.701 143.353 161.776 145.45 161.776 145.45L162.391 143.36C161.331 143.145 160.277 142.877 159.242 142.558C158.759 142.418 158.287 142.244 157.828 142.036C157.523 141.873 157.208 141.726 156.886 141.597C156.094 141.325 155.269 141.44 154.456 141.576C154.35 143.064 154.266 144.016 154.266 144.016Z" fill="black"/>
<path opacity="0.4" d="M184.251 150.311C184.343 150.271 184.425 150.211 184.491 150.135C184.557 150.059 184.604 149.969 184.63 149.872C184.671 150.024 184.655 150.186 184.585 150.328C184.516 150.469 184.397 150.581 184.251 150.641C182.925 151.304 175.306 151.745 171.545 148.874V148.543C175.306 151.415 182.925 150.974 184.251 150.311Z" fill="white"/>
<path opacity="0.4" d="M149.905 150.752C152.215 151.304 160.508 150.089 161.279 148.763V149.093C160.506 150.419 152.224 151.634 149.905 151.082C148.958 150.851 148.655 150.389 148.75 149.883C148.824 150.258 149.17 150.567 149.905 150.752Z" fill="white"/>
<path opacity="0.1" d="M163.377 70.2992C163.377 70.2992 160.947 69.5253 160.284 70.2992C159.621 71.0731 153.954 72.8865 153.954 72.8865" fill="black"/>
<path d="M135.88 39.9541H147.696V39.7046H135.88V39.9541Z" fill="#47C294"/>
<path d="M135.88 40.2036H147.696V39.9541H135.88V40.2036Z" fill="#47C294"/>
<path opacity="0.1" d="M135.88 40.2036H147.696V39.9541H135.88V40.2036Z" fill="#47C294"/>
<path d="M135.88 40.4531H147.696V40.2036H135.88V40.4531Z" fill="#47C294"/>
<path d="M135.88 40.7003H147.696V40.4508H135.88V40.7003Z" fill="#47C294"/>
<path opacity="0.1" d="M135.88 40.7003H147.696V40.4508H135.88V40.7003Z" fill="#47C294"/>
<path d="M135.88 40.9497H147.696V40.7002H135.88V40.9497Z" fill="#47C294"/>
<path d="M135.88 41.197H147.696V40.9475H135.88V41.197Z" fill="#47C294"/>
<path opacity="0.1" d="M135.88 41.197H147.696V40.9475H135.88V41.197Z" fill="#47C294"/>
<path d="M135.88 41.4465H147.696V41.197H135.88V41.4465Z" fill="#47C294"/>
<path d="M135.88 41.6937H147.696V41.4442H135.88V41.6937Z" fill="#47C294"/>
<path opacity="0.1" d="M135.88 41.6937H147.696V41.4442H135.88V41.6937Z" fill="#47C294"/>
<path d="M135.88 37.9675H147.696V37.718H135.88V37.9675Z" fill="#47C294"/>
<path d="M144.238 32.0608L153.323 39.6164L153.482 39.4246L144.398 31.869L144.238 32.0608Z" fill="#47C294"/>
<path d="M135.956 28.0856L145.04 35.6412L145.2 35.4494L136.115 27.8938L135.956 28.0856Z" fill="#47C294"/>
<path d="M135.88 38.2147H147.696V37.9652H135.88V38.2147Z" fill="#47C294"/>
<path opacity="0.1" d="M135.88 38.2147H147.696V37.9652H135.88V38.2147Z" fill="#47C294"/>
<path d="M135.88 38.4665H147.696V38.217H135.88V38.4665Z" fill="#47C294"/>
<path d="M135.88 38.7136H147.696V38.4641H135.88V38.7136Z" fill="#47C294"/>
<path opacity="0.1" d="M135.88 38.7136H147.696V38.4641H135.88V38.7136Z" fill="#47C294"/>
<path d="M135.88 38.9608H147.696V38.7113H135.88V38.9608Z" fill="#47C294"/>
<path d="M135.88 39.2103H147.696V38.9608H135.88V39.2103Z" fill="#47C294"/>
<path opacity="0.1" d="M135.88 39.2103H147.696V38.9608H135.88V39.2103Z" fill="#47C294"/>
<path d="M135.88 39.4575H147.696V39.208H135.88V39.4575Z" fill="#47C294"/>
<path d="M135.88 39.707H147.696V39.4575H135.88V39.707Z" fill="#47C294"/>
<path opacity="0.1" d="M135.88 39.707H147.696V39.4575H135.88V39.707Z" fill="#47C294"/>
<path d="M134.383 49.3938L138.616 50.1799L140.148 41.9285L135.915 41.1423L134.383 49.3938Z" fill="#47C294"/>
<path d="M138.192 45.8485C138.37 44.8889 138.126 44.0389 137.647 43.9499C137.168 43.8609 136.635 44.5667 136.457 45.5263C136.279 46.4859 136.523 47.3359 137.002 47.4249C137.481 47.5139 138.014 46.8081 138.192 45.8485Z" fill="#8ED16F"/>
<path d="M138.192 45.8485C138.37 44.8889 138.126 44.0389 137.647 43.9499C137.168 43.8609 136.635 44.5667 136.457 45.5263C136.279 46.4859 136.523 47.3359 137.002 47.4249C137.481 47.5139 138.014 46.8081 138.192 45.8485Z" fill="#1FB47C"/>
<path d="M135.107 66.8102L139.34 67.5964L140.873 59.345L136.639 58.5588L135.107 66.8102Z" fill="#47C294"/>
<path d="M138.914 63.2631C139.093 62.3035 138.849 61.4534 138.369 61.3645C137.89 61.2755 137.357 61.9812 137.179 62.9408C137.001 63.9004 137.245 64.7505 137.724 64.8395C138.203 64.9284 138.736 64.2227 138.914 63.2631Z" fill="#22C88A"/>
<path opacity="0.1" d="M138.914 63.2631C139.093 62.3035 138.849 61.4534 138.369 61.3645C137.89 61.2755 137.357 61.9812 137.179 62.9408C137.001 63.9004 137.245 64.7505 137.724 64.8395C138.203 64.9284 138.736 64.2227 138.914 63.2631Z" fill="black"/>
<path d="M119.794 24.001L117.745 27.788L125.126 31.7823L127.175 27.9952L119.794 24.001Z" fill="#47C294"/>
<path d="M124.734 28.9023C124.968 28.4734 124.462 27.746 123.603 27.2775C122.744 26.809 121.858 26.7769 121.624 27.2058C121.39 27.6347 121.897 28.3621 122.756 28.8306C123.614 29.2991 124.5 29.3312 124.734 28.9023Z" fill="#8ED16F"/>
<path d="M124.734 28.9023C124.968 28.4734 124.462 27.746 123.603 27.2775C122.744 26.809 121.858 26.7769 121.624 27.2058C121.39 27.6347 121.897 28.3621 122.756 28.8306C123.614 29.2991 124.5 29.3312 124.734 28.9023Z" fill="#1FB47C"/>
<path d="M103.588 98.7372L101.538 102.524L108.919 106.518L110.969 102.731L103.588 98.7372Z" fill="#47C294"/>
<path d="M107.784 103.519C108.016 103.091 107.508 102.367 106.65 101.902C105.791 101.438 104.907 101.409 104.675 101.837C104.443 102.266 104.951 102.99 105.81 103.454C106.668 103.919 107.552 103.948 107.784 103.519Z" fill="#1FB47C"/>
<path d="M93.6717 37.0623L91.6223 40.8494L99.0033 44.8436L101.053 41.0566L93.6717 37.0623Z" fill="#47C294"/>
<path d="M97.8661 41.8413C98.098 41.4127 97.5902 40.6886 96.7318 40.2241C95.8735 39.7596 94.9896 39.7305 94.7576 40.1591C94.5257 40.5878 95.0335 41.3118 95.8919 41.7763C96.7502 42.2408 97.6341 42.2699 97.8661 41.8413Z" fill="#8ED16F"/>
<path d="M97.8661 41.8413C98.098 41.4127 97.5902 40.6886 96.7318 40.2241C95.8735 39.7596 94.9896 39.7305 94.7576 40.1591C94.5257 40.5878 95.0335 41.3118 95.8919 41.7763C96.7502 42.2408 97.6341 42.2699 97.8661 41.8413Z" fill="#1FB47C"/>
<path d="M106.1 24L104.05 27.787L111.431 31.7812L113.481 27.9942L106.1 24Z" fill="#47C294"/>
<path d="M110.294 28.7788C110.526 28.3502 110.018 27.6262 109.16 27.1617C108.301 26.6972 107.418 26.6681 107.186 27.0967C106.954 27.5253 107.461 28.2494 108.32 28.7139C109.178 29.1784 110.062 29.2075 110.294 28.7788Z" fill="#8ED16F"/>
<path d="M110.294 28.7788C110.526 28.3502 110.018 27.6262 109.16 27.1617C108.301 26.6972 107.418 26.6681 107.186 27.0967C106.954 27.5253 107.461 28.2494 108.32 28.7139C109.178 29.1784 110.062 29.2075 110.294 28.7788Z" fill="#1FB47C"/>
<path d="M118.705 39.5044L114.424 39.9725L115.337 48.3152L119.617 47.8472L118.705 39.5044Z" fill="#47C294"/>
<path d="M116.959 45.5819C117.444 45.5289 117.75 44.6995 117.644 43.7293C117.538 42.759 117.059 42.0155 116.575 42.0685C116.09 42.1214 115.784 42.9509 115.89 43.9211C115.996 44.8913 116.475 45.6349 116.959 45.5819Z" fill="#8ED16F"/>
<path d="M116.959 45.5819C117.444 45.5289 117.75 44.6995 117.644 43.7293C117.538 42.759 117.059 42.0155 116.575 42.0685C116.09 42.1214 115.784 42.9509 115.89 43.9211C115.996 44.8913 116.475 45.6349 116.959 45.5819Z" fill="#1FB47C"/>
<path d="M147.855 85.0961L143.575 85.5641L144.487 93.9068L148.767 93.4388L147.855 85.0961Z" fill="#47C294"/>
<path d="M146.309 91.2653C146.793 91.2124 147.1 90.3829 146.994 89.4127C146.888 88.4425 146.409 87.6989 145.924 87.7519C145.44 87.8048 145.133 88.6343 145.239 89.6045C145.345 90.5747 145.824 91.3183 146.309 91.2653Z" fill="#1FB47C"/>
<path d="M101.747 57.1349L99.6973 60.9219L107.078 64.9162L109.128 61.1292L101.747 57.1349Z" fill="#47C294"/>
<path d="M105.939 61.9169C106.171 61.4883 105.663 60.7642 104.805 60.2997C103.947 59.8352 103.063 59.8061 102.831 60.2348C102.599 60.6634 103.107 61.3874 103.965 61.8519C104.823 62.3164 105.707 62.3455 105.939 61.9169Z" fill="#8ED16F"/>
<path d="M105.939 61.9169C106.171 61.4883 105.663 60.7642 104.805 60.2997C103.947 59.8352 103.063 59.8061 102.831 60.2348C102.599 60.6634 103.107 61.3874 103.965 61.8519C104.823 62.3164 105.707 62.3455 105.939 61.9169Z" fill="#1FB47C"/>
<path d="M83.1209 51.8153L81.0715 55.6023L88.4526 59.5965L90.5019 55.8095L83.1209 51.8153Z" fill="#47C294"/>
<path d="M87.9281 56.8487C88.1621 56.4199 87.6555 55.6924 86.7966 55.2239C85.9377 54.7554 85.0518 54.7233 84.8179 55.1522C84.5839 55.5811 85.0905 56.3085 85.9494 56.777C86.8083 57.2455 87.6942 57.2776 87.9281 56.8487Z" fill="#8ED16F"/>
<path d="M87.9281 56.8487C88.1621 56.4199 87.6555 55.6924 86.7966 55.2239C85.9377 54.7554 85.0518 54.7233 84.8179 55.1522C84.5839 55.5811 85.0905 56.3085 85.9494 56.777C86.8083 57.2455 87.6942 57.2776 87.9281 56.8487Z" fill="#1FB47C"/>
<path d="M77.1558 141.378L75.1064 145.165L82.4875 149.159L84.5368 145.372L77.1558 141.378Z" fill="#47C294"/>
<path d="M81.3497 146.158C81.5817 145.73 81.0739 145.006 80.2155 144.541C79.3571 144.077 78.4732 144.047 78.2413 144.476C78.0093 144.905 78.5171 145.629 79.3755 146.093C80.2339 146.558 81.1178 146.587 81.3497 146.158Z" fill="#8ED16F"/>
<path d="M81.3497 146.158C81.5817 145.73 81.0739 145.006 80.2155 144.541C79.3571 144.077 78.4732 144.047 78.2413 144.476C78.0093 144.905 78.5171 145.629 79.3755 146.093C80.2339 146.558 81.1178 146.587 81.3497 146.158Z" fill="#1FB47C"/>
<path d="M71.7854 142.838L71 147.072L79.2517 148.602L80.0371 144.369L71.7854 142.838Z" fill="#47C294"/>
<path d="M77.2479 146.096C77.3368 145.617 76.6309 145.084 75.6713 144.906C74.7117 144.728 73.8617 144.972 73.7728 145.451C73.6839 145.931 74.3898 146.463 75.3494 146.641C76.309 146.819 77.159 146.575 77.2479 146.096Z" fill="#8ED16F"/>
<path d="M77.2479 146.096C77.3368 145.617 76.6309 145.084 75.6713 144.906C74.7117 144.728 73.8617 144.972 73.7728 145.451C73.6839 145.931 74.3898 146.463 75.3494 146.641C76.309 146.819 77.159 146.575 77.2479 146.096Z" fill="#1FB47C"/>
<path d="M72.5586 145.377L71.7732 149.611L80.0249 151.141L80.8103 146.908L72.5586 145.377Z" fill="#47C294"/>
<path d="M78.0186 148.635C78.1075 148.156 77.4017 147.623 76.4421 147.445C75.4824 147.267 74.6324 147.511 74.5435 147.99C74.4546 148.47 75.1605 149.002 76.1201 149.18C77.0798 149.358 77.9297 149.114 78.0186 148.635Z" fill="#8ED16F"/>
<path d="M78.0186 148.635C78.1075 148.156 77.4017 147.623 76.4421 147.445C75.4824 147.267 74.6324 147.511 74.5435 147.99C74.4546 148.47 75.1605 149.002 76.1201 149.18C77.0798 149.358 77.9297 149.114 78.0186 148.635Z" fill="#1FB47C"/>
<path d="M85.8618 152.263L83.8125 156.05L91.1935 160.044L93.2429 156.257L85.8618 152.263Z" fill="#47C294"/>
<path d="M90.0582 157.043C90.2902 156.614 89.7824 155.89 88.924 155.426C88.0656 154.961 87.1817 154.932 86.9498 155.361C86.7178 155.789 87.2256 156.513 88.084 156.978C88.9424 157.442 89.8263 157.472 90.0582 157.043Z" fill="#8ED16F"/>
<path d="M90.0582 157.043C90.2902 156.614 89.7824 155.89 88.924 155.426C88.0656 154.961 87.1817 154.932 86.9498 155.361C86.7178 155.789 87.2256 156.513 88.084 156.978C88.9424 157.442 89.8263 157.472 90.0582 157.043Z" fill="#1FB47C"/>
<path d="M80.4937 153.72L79.7083 157.953L87.9599 159.484L88.7454 155.25L80.4937 153.72Z" fill="#47C294"/>
<path d="M85.9535 156.978C86.0423 156.499 85.3365 155.966 84.3769 155.788C83.4172 155.61 82.5672 155.854 82.4783 156.333C82.3894 156.812 83.0953 157.345 84.0549 157.523C85.0146 157.701 85.8646 157.457 85.9535 156.978Z" fill="#8ED16F"/>
<path d="M85.9535 156.978C86.0423 156.499 85.3365 155.966 84.3769 155.788C83.4172 155.61 82.5672 155.854 82.4783 156.333C82.3894 156.812 83.0953 157.345 84.0549 157.523C85.0146 157.701 85.8646 157.457 85.9535 156.978Z" fill="#1FB47C"/>
<path d="M81.2662 156.261L80.4807 160.495L88.7324 162.026L89.5178 157.792L81.2662 156.261Z" fill="#47C294"/>
<path d="M86.7284 159.519C86.8173 159.04 86.1114 158.508 85.1518 158.33C84.1921 158.151 83.3421 158.396 83.2532 158.875C83.1644 159.354 83.8702 159.887 84.8298 160.065C85.7895 160.243 86.6395 159.999 86.7284 159.519Z" fill="#8ED16F"/>
<path d="M86.7284 159.519C86.8173 159.04 86.1114 158.508 85.1518 158.33C84.1921 158.151 83.3421 158.396 83.2532 158.875C83.1644 159.354 83.8702 159.887 84.8298 160.065C85.7895 160.243 86.6395 159.999 86.7284 159.519Z" fill="#1FB47C"/>
<path d="M98.9251 145.248L96.8757 149.035L104.257 153.03L106.306 149.243L98.9251 145.248Z" fill="#47C294"/>
<path d="M103.117 150.027C103.349 149.599 102.841 148.874 101.983 148.41C101.124 147.945 100.24 147.916 100.008 148.345C99.7764 148.774 100.284 149.498 101.143 149.962C102.001 150.427 102.885 150.456 103.117 150.027Z" fill="#1FB47C"/>
<path d="M93.5552 146.706L92.7698 150.94L101.021 152.471L101.807 148.237L93.5552 146.706Z" fill="#47C294"/>
<path d="M99.0152 149.965C99.1041 149.485 98.3983 148.953 97.4386 148.775C96.479 148.597 95.629 148.841 95.5401 149.32C95.4512 149.799 96.1571 150.332 97.1167 150.51C98.0763 150.688 98.9263 150.444 99.0152 149.965Z" fill="#8ED16F"/>
<path d="M99.0152 149.965C99.1041 149.485 98.3983 148.953 97.4386 148.775C96.479 148.597 95.629 148.841 95.5401 149.32C95.4512 149.799 96.1571 150.332 97.1167 150.51C98.0763 150.688 98.9263 150.444 99.0152 149.965Z" fill="#1FB47C"/>
<path d="M94.3279 149.248L93.5425 153.481L101.794 155.012L102.58 150.778L94.3279 149.248Z" fill="#47C294"/>
<path d="M99.7904 152.506C99.8793 152.027 99.1734 151.494 98.2138 151.316C97.2542 151.138 96.4042 151.382 96.3153 151.862C96.2264 152.341 96.9322 152.874 97.8919 153.052C98.8515 153.23 99.7015 152.985 99.7904 152.506Z" fill="#8ED16F"/>
<path d="M99.7904 152.506C99.8793 152.027 99.1734 151.494 98.2138 151.316C97.2542 151.138 96.4042 151.382 96.3153 151.862C96.2264 152.341 96.9322 152.874 97.8919 153.052C98.8515 153.23 99.7015 152.985 99.7904 152.506Z" fill="#1FB47C"/>
<path d="M95 216L158 216" stroke="#002B49" stroke-width="2" stroke-linecap="round"/>
<rect x="115" y="204" width="24" height="24" rx="12" fill="#002B49"/>
<path d="M126.61 221.096C125.842 221.096 125.13 220.928 124.474 220.592V219.704C125.098 220.056 125.774 220.232 126.502 220.232C127.214 220.232 127.758 220.1 128.134 219.836C128.51 219.572 128.698 219.192 128.698 218.696C128.698 218.2 128.506 217.82 128.122 217.556C127.738 217.292 127.182 217.16 126.454 217.16H125.578V216.332H126.49C127.074 216.332 127.518 216.224 127.822 216.008C128.134 215.784 128.29 215.464 128.29 215.048C128.29 214.632 128.126 214.312 127.798 214.088C127.478 213.864 127.01 213.752 126.394 213.752C125.802 213.752 125.226 213.892 124.666 214.172V213.296C125.242 213.024 125.85 212.888 126.49 212.888C127.114 212.888 127.622 212.992 128.014 213.2C128.414 213.4 128.702 213.664 128.878 213.992C129.062 214.32 129.154 214.672 129.154 215.048C129.154 215.4 129.078 215.696 128.926 215.936C128.774 216.176 128.602 216.364 128.41 216.5C128.218 216.636 128.122 216.692 128.122 216.668C128.122 216.644 128.254 216.72 128.518 216.896C128.79 217.064 129.03 217.3 129.238 217.604C129.454 217.908 129.562 218.28 129.562 218.72C129.562 219.136 129.462 219.524 129.262 219.884C129.062 220.236 128.742 220.528 128.302 220.76C127.862 220.984 127.298 221.096 126.61 221.096Z" fill="white"/>
<defs>
<linearGradient id="paint0_linear" x1="212.965" y1="-8.89256" x2="23.57" y2="127.154" gradientUnits="userSpaceOnUse">
<stop stop-color="#22C88A"/>
<stop offset="1" stop-color="#1BF2A0"/>
</linearGradient>
<linearGradient id="paint1_linear" x1="-148450" y1="96698" x2="-148450" y2="26253.9" gradientUnits="userSpaceOnUse">
<stop stop-color="#808080" stop-opacity="0.25"/>
<stop offset="0.54" stop-color="#808080" stop-opacity="0.12"/>
<stop offset="1" stop-color="#808080" stop-opacity="0.1"/>
</linearGradient>
</defs>
</svg>
