<svg width="192" height="357" viewBox="0 0 192 357" fill="none" xmlns="http://www.w3.org/2000/svg">
<g clip-path="url(#clip0)">
<path d="M0 11.3369C0 5.07571 5.07571 0 11.3369 0L500.663 0C506.924 0 512 5.07571 512 11.3369C512 17.5981 506.924 22.6738 500.663 22.6738H11.3369C5.07571 22.6738 0 17.5981 0 11.3369Z" transform="translate(44.3174 -3.93665) scale(-1 1) rotate(45)" fill="#002B49"/>
<path d="M0 16C0 7.16344 7.16344 0 16 0L496 0C504.837 0 512 7.16344 512 16V21.1163C512 29.9528 504.837 37.1163 496 37.1163H16C7.16344 37.1163 0 29.9528 0 21.1163V16Z" transform="translate(33.8818 28.6605) scale(-1 1) rotate(45)" fill="#1CC886"/>
<path d="M0 16C0 7.16344 7.16344 0 16 0L135.994 0C144.831 0 151.994 7.16344 151.994 16V17.6343C151.994 26.4709 144.831 33.6343 135.994 33.6343H16C7.16344 33.6343 0 26.4709 0 17.6343V16Z" transform="translate(20.3438 131.335) scale(-1 1) rotate(45)" fill="#002B49"/>
<path d="M0 16C0 7.16344 7.16344 0 16 0L431.61 0C440.447 0 447.61 7.16344 447.61 16V17.6343C447.61 26.4709 440.447 33.6343 431.61 33.6343H16C7.16344 33.6343 0 26.4709 0 17.6343V16Z" transform="translate(333.344 -7.12708) scale(-1 1) rotate(45)" fill="#117A52"/>
<path d="M0 16C0 7.16344 7.16344 0 16 0L452.202 0C461.039 0 468.202 7.16344 468.202 16V17.6343C468.202 26.4709 461.039 33.6343 452.202 33.6343H16C7.16345 33.6343 0 26.4709 0 17.6343V16Z" transform="translate(303.344 112.873) scale(-1 1) rotate(45)" fill="#002B49"/>
<path d="M0 16C0 7.16344 7.16344 0 16 0L381.217 0C390.054 0 397.217 7.16344 397.217 16V28.4469C397.217 37.2835 390.054 44.4469 381.217 44.4469H16C7.16345 44.4469 0 37.2835 0 28.4469V16Z" transform="translate(388.344 94.8729) scale(-1 1) rotate(45)" fill="#002B49"/>
<path d="M0 16C0 7.16344 7.16344 0 16 0L283.257 0C292.094 0 299.257 7.16344 299.257 16V34.3076C299.257 43.1442 292.094 50.3076 283.257 50.3076H16C7.16345 50.3076 0 43.1442 0 34.3076V16Z" transform="translate(319.554 207.729) scale(-1 1) rotate(45)" fill="#1CC886"/>
<path d="M0 16C0 7.16344 7.16344 0 16 0L146.38 0C155.217 0 162.38 7.16344 162.38 16V17.6343C162.38 26.4709 155.217 33.6343 146.38 33.6343H16C7.16345 33.6343 0 26.4709 0 17.6343V16Z" transform="translate(189.344 184.873) scale(-1 1) rotate(45)" fill="#1CC886"/>
<path d="M0 12.0427C0 5.39171 5.39171 0 12.0427 0L88.248 0C94.899 0 100.291 5.39171 100.291 12.0427C100.291 18.6937 94.899 24.0855 88.248 24.0855H12.0427C5.39171 24.0855 0 18.6937 0 12.0427Z" transform="translate(134.096 30.625) scale(-1 1) rotate(45)" fill="#1CC886"/>
<path d="M0 12.0427C0 5.39171 5.39171 0 12.0427 0L116.992 0C123.643 0 129.035 5.39171 129.035 12.0427C129.035 18.6937 123.643 24.0855 116.992 24.0855H12.0427C5.39172 24.0855 0 18.6937 0 12.0427Z" transform="translate(172.096 68.8729) scale(-1 1) rotate(45)" fill="#1CC886"/>
<path d="M0 12.0427C0 5.39171 5.39171 0 12.0427 0L116.992 0C123.643 0 129.035 5.39171 129.035 12.0427C129.035 18.6937 123.643 24.0855 116.992 24.0855H12.0427C5.39172 24.0855 0 18.6937 0 12.0427Z" transform="translate(198.096 119.873) scale(-1 1) rotate(45)" fill="#002B49"/>
<g style="mix-blend-mode:overlay" transform="translate(30.3438 113.335) scale(-1 1) rotate(45)">
<path d="M0 4.66878C0 2.09029 2.09029 0 4.66878 0L147.326 0C149.904 0 151.994 2.09029 151.994 4.66878C151.994 7.24728 149.904 9.33757 147.326 9.33757H4.66878C2.09028 9.33757 0 7.24728 0 4.66878Z" fill="#47C294"/>
</g>
<g style="mix-blend-mode:overlay" transform="translate(238.524 39.8729) scale(-1 1) rotate(45)">
<path d="M0 4.66878C0 2.09029 2.09029 0 4.66878 0L288.952 0C291.53 0 293.621 2.09029 293.621 4.66878C293.621 7.24728 291.53 9.33757 288.952 9.33757H4.66878C2.09028 9.33757 0 7.24728 0 4.66878Z" fill="#47C294"/>
</g>
</g>
<defs>
<clipPath id="clip0">
<rect width="192" height="357" fill="white" transform="translate(192) scale(-1 1)"/>
</clipPath>
</defs>
</svg>
