<svg width="188" height="36" viewBox="0 0 188 36" fill="none" xmlns="http://www.w3.org/2000/svg">
<g clip-path="url(#clip0)">
<path fill-rule="evenodd" clip-rule="evenodd" d="M91.8633 33.75C100.562 33.75 107.613 26.6985 107.613 18C107.613 9.30152 100.562 2.25 91.8633 2.25C83.1648 2.25 76.1133 9.30152 76.1133 18C76.1133 26.6985 83.1648 33.75 91.8633 33.75ZM91.8633 36C101.804 36 109.863 27.9411 109.863 18C109.863 8.05888 101.804 0 91.8633 0C81.9222 0 73.8633 8.05888 73.8633 18C73.8633 27.9411 81.9222 36 91.8633 36Z" fill="#80DBB8"/>
<path d="M106.487 18C106.487 26.0772 99.9394 32.625 91.8622 32.625C83.785 32.625 77.2372 26.0772 77.2372 18C77.2372 9.92284 83.785 3.375 91.8622 3.375C99.9394 3.375 106.487 9.92284 106.487 18Z" fill="#1DC887"/>
<path d="M87.9907 11.2806L77.2418 7.3125C77.1493 8.97532 78.4104 9.84453 79.0525 10.0713C80.6578 10.6255 84.2151 11.8777 85.602 12.4521C86.989 13.0266 87.9008 14.4299 88.1833 15.0597L90.8416 20.6529C90.6747 18.8515 90.3716 14.9313 90.1867 13.6615C90.0017 12.3917 88.6456 11.5451 87.9907 11.2806Z" fill="white"/>
<path d="M85.4094 12.9434L78.8984 10.5626C79.4532 12.437 80.6193 13.3087 81.133 13.5103L87.9907 16.0423C87.6825 14.5004 86.1414 13.3339 85.4094 12.9434Z" fill="white"/>
<path d="M88.1833 16.4958L81.6338 14.1527C81.7571 15.5132 83.1235 16.4832 83.7913 16.7981L89.3776 18.8011C89.1336 18.2972 88.6148 17.2139 88.4915 16.9115C88.3682 16.6092 88.2347 16.5084 88.1833 16.4958Z" fill="white"/>
<path d="M95.7334 11.2806L106.482 7.3125C106.575 8.97532 105.314 9.84453 104.672 10.0713C103.066 10.6255 99.509 11.8777 98.122 12.4521C96.7351 13.0266 95.8233 14.4299 95.5408 15.0597L92.8824 20.6529C93.0494 18.8515 93.3525 14.9313 93.5374 13.6615C93.7223 12.3917 95.0784 11.5451 95.7334 11.2806Z" fill="white"/>
<path d="M98.3147 12.9434L104.826 10.5626C104.271 12.437 103.105 13.3087 102.591 13.5103L95.7334 16.0423C96.0416 14.5004 97.5827 13.3339 98.3147 12.9434Z" fill="white"/>
<path d="M95.5408 16.4958L102.09 14.1527C101.967 15.5132 100.601 16.4832 99.9328 16.7981L94.3464 18.8011C94.5904 18.2972 95.1093 17.2139 95.2326 16.9115C95.3558 16.6092 95.4894 16.5084 95.5408 16.4958Z" fill="white"/>
<g filter="url(#filter0_d)">
<path d="M91.7236 10.7331L91.5781 11.232V25.7074L91.7236 25.8539L98.3879 21.8821L91.7236 10.7331Z" fill="#19A670"/>
<path d="M91.7237 10.7331L85.0594 21.8821L91.7237 25.854V18.828V10.7331Z" fill="#18DAA3"/>
<path d="M91.7245 27.1262L91.6425 27.227V32.3835L91.7245 32.625L98.3929 23.1564L91.7245 27.1262Z" fill="#1AA670"/>
<path d="M91.7238 32.6249V27.1261L85.0595 23.1563L91.7238 32.6249Z" fill="#18DAA3"/>
<path d="M91.7231 25.8539L98.3873 21.8821L91.7231 18.828V25.8539Z" fill="#137B54"/>
<path d="M85.0595 21.8821L91.7237 25.8539V18.828L85.0595 21.8821Z" fill="#147B55"/>
</g>
<path d="M16.0785 18.1665C17.4825 18.6525 18.63 19.449 19.521 20.556C20.412 21.663 20.8575 23.067 20.8575 24.768C20.8575 27.414 19.9665 29.385 18.1845 30.681C16.4025 31.977 13.986 32.625 10.935 32.625H0V5.6115H10.0035C13.1625 5.6115 15.498 6.246 17.01 7.515C18.549 8.784 19.3185 10.593 19.3185 12.942C19.3185 14.265 19.0215 15.318 18.4275 16.101C17.8605 16.857 17.0775 17.5455 16.0785 18.1665ZM4.455 16.8705H10.53C11.799 16.8705 12.825 16.614 13.608 16.101C14.418 15.588 14.823 14.6565 14.823 13.3065C14.823 11.8755 14.418 10.863 13.608 10.269C12.825 9.675 11.6775 9.378 10.1655 9.378H4.455V16.8705ZM10.8945 28.899C12.5415 28.899 13.851 28.5885 14.823 27.9675C15.795 27.3195 16.281 26.1855 16.281 24.5655C16.281 22.9455 15.768 21.8655 14.742 21.3255C13.743 20.7585 12.42 20.475 10.773 20.475H4.4955V28.899H10.8945Z" fill="#19A670"/>
<path d="M26.1826 5.6115H43.8811V9.378H30.6781V17.1945H42.1801V21.0015H30.6376V28.8585H43.8811V32.625H26.1826V5.6115Z" fill="#19A670"/>
<path d="M56.3121 9.378H47.6046V5.6115H69.5151V9.378H60.7671V32.625H56.3121V9.378Z" fill="#19A670"/>
<path d="M121.716 21.123L119.246 23.8365V32.625H114.75V5.6115H119.246V18.7335L130.1 5.6115H135.77L124.794 17.721L136.66 32.625H130.788L121.716 21.123Z" fill="#167C57"/>
<path d="M140.735 5.6115H158.433V9.378H145.23V17.1945H156.732V21.0015H145.19V28.8585H158.433V32.625H140.735V5.6115Z" fill="#167C57"/>
<path d="M187.348 5.6115V32.625H183.338L168.718 12.537V32.625H164.465V5.6115H168.758L183.095 25.4565V5.6115H187.348Z" fill="#167C57"/>
</g>
<defs>
<filter id="filter0_d" x="-42.9406" y="-117.267" width="269.333" height="277.892" filterUnits="userSpaceOnUse" color-interpolation-filters="sRGB">
<feFlood flood-opacity="0" result="BackgroundImageFix"/>
<feColorMatrix in="SourceAlpha" type="matrix" values="0 0 0 0 0 0 0 0 0 0 0 0 0 0 0 0 0 0 127 0"/>
<feOffset/>
<feGaussianBlur stdDeviation="64"/>
<feColorMatrix type="matrix" values="0 0 0 0 0.859383 0 0 0 0 0.83 0 0 0 0 1 0 0 0 1 0"/>
<feBlend mode="normal" in2="BackgroundImageFix" result="effect1_dropShadow"/>
<feBlend mode="normal" in="SourceGraphic" in2="effect1_dropShadow" result="shape"/>
</filter>
<clipPath id="clip0">
<rect width="187.348" height="36" fill="white"/>
</clipPath>
</defs>
</svg>
