<svg width="64" height="64" viewBox="0 0 64 64" fill="none" xmlns="http://www.w3.org/2000/svg">
<g clip-path="url(#clip0)">
<circle cx="32" cy="32" r="30" stroke="#F5ABBD" stroke-width="4"/>
<circle cx="26" cy="26" r="26" transform="translate(6 6)" fill="#E43F3F"/>
<path d="M19.1177 7.0544L0.00856694 0C-0.155813 2.95613 2.08614 4.50138 3.22766 4.90449C6.08147 5.88986 12.4055 8.11592 14.8712 9.13713C17.3369 10.1583 18.9579 12.6531 19.4601 13.7729L24.186 23.7162C23.8892 20.5137 23.3505 13.5444 23.0217 11.287C22.6929 9.02963 20.282 7.52469 19.1177 7.0544Z" transform="translate(6 13)" fill="white"/>
<path d="M14.5287 10.0105L2.95369 5.77789C3.93997 9.11025 6.01298 10.66 6.9262 11.0183L19.1177 15.5197C18.5698 12.7785 15.8301 10.7048 14.5287 10.0105Z" transform="translate(6 13)" fill="white"/>
<path d="M19.4601 16.3259L7.81659 12.1604C8.03576 14.5791 10.4649 16.3035 11.6521 16.8634L21.5834 20.4242C21.1496 19.5284 20.2272 17.6024 20.0081 17.0649C19.7889 16.5274 19.5515 16.3483 19.4601 16.3259Z" transform="translate(6 13)" fill="white"/>
<path d="M19.1177 7.0544L0.00856694 0C-0.155813 2.95613 2.08614 4.50138 3.22766 4.90449C6.08147 5.88986 12.4055 8.11592 14.8712 9.13713C17.3369 10.1583 18.9579 12.6531 19.4601 13.7729L24.186 23.7162C23.8892 20.5137 23.3505 13.5444 23.0217 11.287C22.6929 9.02963 20.282 7.52469 19.1177 7.0544Z" transform="translate(58 13) scale(-1 1)" fill="white"/>
<path d="M14.5287 10.0105L2.95369 5.77789C3.93997 9.11025 6.01298 10.66 6.9262 11.0183L19.1177 15.5197C18.5698 12.7785 15.8301 10.7048 14.5287 10.0105Z" transform="translate(58 13) scale(-1 1)" fill="white"/>
<path d="M19.4601 16.3259L7.81659 12.1604C8.03576 14.5791 10.4649 16.3035 11.6521 16.8634L21.5834 20.4242C21.1496 19.5284 20.2272 17.6024 20.0081 17.0649C19.7889 16.5274 19.5515 16.3483 19.4601 16.3259Z" transform="translate(58 13) scale(-1 1)" fill="white"/>
<g filter="url(#filter0_d)">
<path d="M0.258781 0L3.39064e-08 0.886842V26.6209L0.258781 26.8814L12.1064 19.8204L0.258781 0Z" transform="translate(31.4961 19.0811)" fill="#B91A1A"/>
<path d="M11.8476 0L0 19.8204L11.8476 26.8815V14.3909V0Z" transform="translate(19.9072 19.0811)" fill="#F5ABBD"/>
<path d="M0.145825 7.05739L1.46928e-07 7.23663V16.4037L0.145825 16.8331L12.0006 5.24192e-07L0.145825 7.05739Z" transform="translate(31.6094 41.1669)" fill="#B91A1A"/>
<path d="M11.8476 16.8332V7.05739L0 6.26751e-07L11.8476 16.8332Z" transform="translate(19.9072 41.1667)" fill="#F5ABBD"/>
<path d="M-1.35626e-07 12.4904L11.8475 5.42952L-1.35626e-07 -3.19073e-07V12.4904Z" transform="translate(31.7554 33.4721)" fill="#9D1D1D"/>
<path d="M0 5.42952L11.8475 12.4905V0L0 5.42952Z" transform="translate(19.9072 33.472)" fill="#9D1D1D"/>
</g>
</g>
<defs>
<filter id="filter0_d" x="-108.093" y="-108.919" width="279.703" height="294.919" filterUnits="userSpaceOnUse" color-interpolation-filters="sRGB">
<feFlood flood-opacity="0" result="BackgroundImageFix"/>
<feColorMatrix in="SourceAlpha" type="matrix" values="0 0 0 0 0 0 0 0 0 0 0 0 0 0 0 0 0 0 255 0"/>
<feOffset/>
<feGaussianBlur stdDeviation="64"/>
<feColorMatrix type="matrix" values="0 0 0 0 0.859383 0 0 0 0 0.83 0 0 0 0 1 0 0 0 1 0"/>
<feBlend mode="normal" in2="BackgroundImageFix" result="effect1_dropShadow"/>
<feBlend mode="normal" in="SourceGraphic" in2="effect1_dropShadow" result="shape"/>
</filter>
<clipPath id="clip0">
<rect width="64" height="64" fill="white"/>
</clipPath>
</defs>
</svg>
