<svg width="20" height="20" viewBox="0 0 20 20" fill="none" xmlns="http://www.w3.org/2000/svg">
<path d="M15 12.5V13.3333C15 14.25 14.25 15 13.3333 15H1.66667C0.741667 15 0 14.25 0 13.3333V1.66667C0 0.75 0.741667 0 1.66667 0H13.3333C14.25 0 15 0.75 15 1.66667V2.5H7.5C6.575 2.5 5.83333 3.25 5.83333 4.16667V10.8333C5.83333 11.75 6.575 12.5 7.5 12.5H15ZM7.5 10.8333H15.8333V4.16667H7.5V10.8333ZM10.8333 8.75C10.1417 8.75 9.58333 8.19167 9.58333 7.5C9.58333 6.80833 10.1417 6.25 10.8333 6.25C11.525 6.25 12.0833 6.80833 12.0833 7.5C12.0833 8.19167 11.525 8.75 10.8333 8.75Z" transform="translate(2.5 2.5)" fill="#8FA9B0"/>
</svg>
