<svg width="20" height="20" viewBox="0 0 20 20" fill="none" xmlns="http://www.w3.org/2000/svg">
<path d="M9.16667 -3.97364e-08V2.525C11.9917 2.93333 14.1667 5.35 14.1667 8.29167C14.1667 9.04167 14.0167 9.75 13.7667 10.4083L15.9333 11.6833C16.4 10.65 16.6667 9.5 16.6667 8.29167C16.6667 3.975 13.375 0.416667 9.16667 -3.97364e-08ZM8.33333 14.125C5.10833 14.125 2.5 11.5167 2.5 8.29167C2.5 5.35 4.675 2.93333 7.5 2.525V-3.97364e-08C3.28333 0.416667 0 3.96667 0 8.29167C0 12.8917 3.725 16.625 8.325 16.625C11.0833 16.625 13.525 15.2833 15.0417 13.2167L12.875 11.9417C11.8083 13.275 10.175 14.125 8.33333 14.125Z" transform="translate(1.66602 1.70834)" fill="#8FA9B0"/>
</svg>
