<svg width="192" height="56" viewBox="0 0 192 56" fill="none" xmlns="http://www.w3.org/2000/svg">
<circle cx="28" cy="28" r="28" fill="#B7CFFF"/>
<path d="M5.84 20.16C4.77333 20.16 3.89333 19.96 3.2 19.56C2.50667 19.1467 2 18.6333 1.68 18.02C1.37333 17.3933 1.22 16.7333 1.22 16.04C1.22 15.3067 1.38667 14.7 1.72 14.22C2.06667 13.74 2.45333 13.3733 2.88 13.12C3.30667 12.8667 3.52 12.76 3.52 12.8C3.52 12.84 3.35333 12.74 3.02 12.5C2.68667 12.26 2.38667 11.9333 2.12 11.52C1.85333 11.0933 1.72 10.5667 1.72 9.94C1.72 9.34 1.86 8.78 2.14 8.26C2.42 7.72667 2.86667 7.3 3.48 6.98C4.10667 6.64667 4.89333 6.48 5.84 6.48C6.8 6.48 7.58667 6.64667 8.2 6.98C8.81333 7.3 9.26 7.72667 9.54 8.26C9.82 8.78 9.96 9.34 9.96 9.94C9.96 10.58 9.82667 11.1133 9.56 11.54C9.30667 11.9533 9.02 12.2733 8.7 12.5C8.38 12.7267 8.22 12.82 8.22 12.78C8.22 12.74 8.42667 12.8533 8.84 13.12C9.25333 13.3733 9.62667 13.7467 9.96 14.24C10.2933 14.72 10.46 15.32 10.46 16.04C10.46 16.7333 10.3 17.3933 9.98 18.02C9.67333 18.6467 9.17333 19.16 8.48 19.56C7.8 19.96 6.92 20.16 5.84 20.16ZM5.84 12.24C6.68 12.24 7.33333 12.04 7.8 11.64C8.28 11.2267 8.52 10.66 8.52 9.94C8.52 9.16667 8.26 8.63333 7.74 8.34C7.23333 8.04667 6.6 7.9 5.84 7.9C5.08 7.9 4.44 8.04667 3.92 8.34C3.41333 8.63333 3.16 9.16667 3.16 9.94C3.16 10.66 3.39333 11.2267 3.86 11.64C4.34 12.04 5 12.24 5.84 12.24ZM5.84 18.8C7.10667 18.8 7.95333 18.5 8.38 17.9C8.80667 17.2867 9.02 16.6667 9.02 16.04C9.02 15.24 8.74667 14.6267 8.2 14.2C7.65333 13.7733 6.86667 13.56 5.84 13.56C4.81333 13.56 4.02667 13.7733 3.48 14.2C2.93333 14.6267 2.66 15.24 2.66 16.04C2.66 16.6533 2.87333 17.2667 3.3 17.88C3.72667 18.4933 4.57333 18.8 5.84 18.8Z" transform="translate(64 24)" fill="black" fill-opacity="0.87"/>
<path d="M3.584 5.614H0.28V4.662H7.882V5.614H4.592V14H3.584V5.614ZM10.7576 14.21C9.68424 14.21 8.87691 13.8927 8.33558 13.258C7.80358 12.6233 7.53758 11.7133 7.53758 10.528C7.53758 9.324 7.80824 8.41867 8.34958 7.812C8.90024 7.196 9.69358 6.888 10.7296 6.888C11.8216 6.888 12.6336 7.21467 13.1656 7.868C13.6976 8.512 13.9636 9.39867 13.9636 10.528C13.9636 11.6853 13.6836 12.5907 13.1236 13.244C12.5636 13.888 11.7749 14.21 10.7576 14.21ZM10.7436 13.286C12.2182 13.286 12.9556 12.3667 12.9556 10.528C12.9556 9.65067 12.7829 8.97867 12.4376 8.512C12.0922 8.04533 11.5276 7.812 10.7436 7.812C9.27824 7.812 8.54558 8.71733 8.54558 10.528C8.54558 12.3667 9.27824 13.286 10.7436 13.286ZM18.0563 14.112C17.5429 14.112 17.1229 13.958 16.7963 13.65C16.4696 13.3327 16.3063 12.8847 16.3063 12.306V7.938H15.0883V7.014H16.3063V5.04H17.3143V7.014H19.1203V7.938H17.3143V11.984C17.3143 12.3947 17.3796 12.6933 17.5103 12.88C17.6409 13.0667 17.8836 13.16 18.2383 13.16C18.5836 13.16 18.8776 13.104 19.1203 12.992V13.944C18.9896 13.9907 18.8216 14.028 18.6163 14.056C18.4203 14.0933 18.2336 14.112 18.0563 14.112ZM23.9262 6.888C24.7102 6.888 25.3262 7.07933 25.7742 7.462C26.2316 7.84467 26.4602 8.4 26.4602 9.128V12.516C26.4602 13.188 26.1849 13.6407 25.6342 13.874C25.0836 14.098 24.3229 14.21 23.3522 14.21C22.6149 14.21 21.9802 14.0467 21.4482 13.72C20.9256 13.3933 20.6642 12.8473 20.6642 12.082C20.6642 11.2513 20.8929 10.6493 21.3502 10.276C21.8076 9.89333 22.4376 9.702 23.2402 9.702C24.1456 9.702 24.8782 9.86533 25.4382 10.192V9.366C25.4382 8.32067 24.8269 7.798 23.6042 7.798C23.2029 7.798 22.7969 7.854 22.3862 7.966C21.9756 8.078 21.6302 8.246 21.3502 8.47V7.462C21.6302 7.28467 22.0082 7.14467 22.4842 7.042C22.9696 6.93933 23.4502 6.888 23.9262 6.888ZM23.5902 13.314C24.2436 13.314 24.7149 13.2673 25.0042 13.174C25.2936 13.0713 25.4382 12.8707 25.4382 12.572V11.004C25.1862 10.8827 24.8922 10.7893 24.5562 10.724C24.2202 10.6493 23.8702 10.612 23.5062 10.612C22.9182 10.612 22.4656 10.724 22.1482 10.948C21.8309 11.172 21.6722 11.4987 21.6722 11.928C21.6722 12.4133 21.8589 12.768 22.2322 12.992C22.6056 13.2067 23.0582 13.314 23.5902 13.314ZM28.6962 14V4.354H29.7042V14H28.6962ZM38.9366 14.21C38.0033 14.21 37.28 13.972 36.7666 13.496C36.2626 13.0107 36.0106 12.3247 36.0106 11.438V7.014H37.0186V11.214C37.0186 11.9233 37.1726 12.446 37.4806 12.782C37.7886 13.1087 38.274 13.272 38.9366 13.272C39.59 13.272 40.0706 13.1087 40.3786 12.782C40.696 12.446 40.8546 11.9233 40.8546 11.214V7.014H41.8626V11.438C41.8626 12.3247 41.606 13.0107 41.0926 13.496C40.5886 13.972 39.87 14.21 38.9366 14.21ZM46.0784 14.21C45.6024 14.21 45.1964 14.1633 44.8604 14.07C44.5244 13.9767 44.1557 13.8273 43.7544 13.622V12.558C44.2304 12.8287 44.6177 13.02 44.9164 13.132C45.2244 13.2347 45.5884 13.286 46.0084 13.286C46.475 13.286 46.853 13.1833 47.1424 12.978C47.441 12.7727 47.5904 12.5067 47.5904 12.18C47.5904 11.8907 47.5017 11.676 47.3244 11.536C47.147 11.3867 46.867 11.2373 46.4844 11.088L46.1204 10.934C45.5884 10.7847 45.173 10.6493 44.8744 10.528C44.585 10.4067 44.3284 10.2153 44.1044 9.954C43.8897 9.69267 43.7824 9.338 43.7824 8.89C43.7824 8.442 43.899 8.06867 44.1324 7.77C44.3657 7.47133 44.669 7.252 45.0424 7.112C45.4157 6.96267 45.8077 6.888 46.2184 6.888C46.5917 6.888 46.9044 6.93 47.1564 7.014C47.4177 7.098 47.7724 7.238 48.2204 7.434V8.442C47.7537 8.20867 47.3944 8.04533 47.1424 7.952C46.8997 7.85867 46.6104 7.812 46.2744 7.812C45.8637 7.812 45.5137 7.896 45.2244 8.064C44.935 8.22267 44.7904 8.45133 44.7904 8.75C44.7904 8.99267 44.8604 9.19333 45.0004 9.352C45.1497 9.50133 45.3317 9.62267 45.5464 9.716C45.7704 9.8 46.069 9.89333 46.4424 9.996C46.909 10.1453 47.2777 10.2807 47.5484 10.402C47.8284 10.5233 48.071 10.7193 48.2764 10.99C48.491 11.2513 48.5984 11.606 48.5984 12.054C48.5984 12.53 48.477 12.9313 48.2344 13.258C47.9917 13.5753 47.6744 13.8133 47.2824 13.972C46.8997 14.1307 46.4984 14.21 46.0784 14.21ZM53.2051 6.888C54.2691 6.888 55.0485 7.23333 55.5431 7.924C56.0378 8.61467 56.2758 9.534 56.2571 10.682H51.1611C51.1611 11.522 51.3571 12.166 51.7491 12.614C52.1411 13.062 52.7011 13.286 53.4291 13.286C54.3625 13.286 55.1605 13.0853 55.8231 12.684V13.72C55.1418 14.0467 54.3251 14.21 53.3731 14.21C52.3558 14.21 51.5625 13.8973 50.9931 13.272C50.4238 12.6373 50.1391 11.7133 50.1391 10.5C50.1391 9.31467 50.4051 8.41867 50.9371 7.812C51.4785 7.196 52.2345 6.888 53.2051 6.888ZM53.2051 7.812C52.5891 7.812 52.1225 7.95667 51.8051 8.246C51.4878 8.526 51.2871 9.03 51.2031 9.758H55.1931C55.1465 9.10467 54.9598 8.61933 54.6331 8.302C54.3158 7.97533 53.8398 7.812 53.2051 7.812ZM58.1454 7.574C58.5001 7.42467 58.9667 7.27533 59.5454 7.126C60.1334 6.96733 60.7401 6.888 61.3654 6.888C61.4587 6.888 61.6081 6.916 61.8134 6.972V7.868C61.5894 7.84 61.3654 7.826 61.1414 7.826C60.8334 7.826 60.5487 7.84467 60.2874 7.882C60.0261 7.91933 59.6481 7.98 59.1534 8.064V14H58.1454V7.574ZM65.3967 14.21C64.9207 14.21 64.5147 14.1633 64.1787 14.07C63.8427 13.9767 63.4741 13.8273 63.0727 13.622V12.558C63.5487 12.8287 63.9361 13.02 64.2347 13.132C64.5427 13.2347 64.9067 13.286 65.3267 13.286C65.7934 13.286 66.1714 13.1833 66.4607 12.978C66.7594 12.7727 66.9087 12.5067 66.9087 12.18C66.9087 11.8907 66.8201 11.676 66.6427 11.536C66.4654 11.3867 66.1854 11.2373 65.8027 11.088L65.4387 10.934C64.9067 10.7847 64.4914 10.6493 64.1927 10.528C63.9034 10.4067 63.6467 10.2153 63.4227 9.954C63.2081 9.69267 63.1007 9.338 63.1007 8.89C63.1007 8.442 63.2174 8.06867 63.4507 7.77C63.6841 7.47133 63.9874 7.252 64.3607 7.112C64.7341 6.96267 65.1261 6.888 65.5367 6.888C65.9101 6.888 66.2227 6.93 66.4747 7.014C66.7361 7.098 67.0907 7.238 67.5387 7.434V8.442C67.0721 8.20867 66.7127 8.04533 66.4607 7.952C66.2181 7.85867 65.9287 7.812 65.5927 7.812C65.1821 7.812 64.8321 7.896 64.5427 8.064C64.2534 8.22267 64.1087 8.45133 64.1087 8.75C64.1087 8.99267 64.1787 9.19333 64.3187 9.352C64.4681 9.50133 64.6501 9.62267 64.8647 9.716C65.0887 9.8 65.3874 9.89333 65.7607 9.996C66.2274 10.1453 66.5961 10.2807 66.8667 10.402C67.1467 10.5233 67.3894 10.7193 67.5947 10.99C67.8094 11.2513 67.9167 11.606 67.9167 12.054C67.9167 12.53 67.7954 12.9313 67.5527 13.258C67.3101 13.5753 66.9927 13.8133 66.6007 13.972C66.2181 14.1307 65.8167 14.21 65.3967 14.21Z" transform="translate(64 5)" fill="#8FA9B0"/>
<path d="M5.25 8.75H6.41667V5.25H5.25V8.75ZM5.83333 0C2.61333 0 0 2.61333 0 5.83333C0 9.05333 2.61333 11.6667 5.83333 11.6667C9.05333 11.6667 11.6667 9.05333 11.6667 5.83333C11.6667 2.61333 9.05333 0 5.83333 0ZM5.83333 10.5C3.26083 10.5 1.16667 8.40583 1.16667 5.83333C1.16667 3.26083 3.26083 1.16667 5.83333 1.16667C8.40583 1.16667 10.5 3.26083 10.5 5.83333C10.5 8.40583 8.40583 10.5 5.83333 10.5ZM5.25 4.08333H6.41667V2.91667H5.25V4.08333Z" transform="translate(140.166 9.16669)" fill="#8FA9B0"/>
<path d="M15 6C16.66 6 17.99 4.66 17.99 3C17.99 1.34 16.66 0 15 0C13.34 0 12 1.34 12 3C12 4.66 13.34 6 15 6ZM7 6C8.66 6 9.99 4.66 9.99 3C9.99 1.34 8.66 0 7 0C5.34 0 4 1.34 4 3C4 4.66 5.34 6 7 6ZM7 8C4.67 8 0 9.17 0 11.5V14H14V11.5C14 9.17 9.33 8 7 8ZM15 8C14.71 8 14.38 8.02 14.03 8.05C15.19 8.89 16 10.02 16 11.5V14H22V11.5C22 9.17 17.33 8 15 8Z" transform="translate(17 21)" fill="#0055FF"/>
</svg>
