<svg width="15" height="14" viewBox="0 0 15 14" fill="none" xmlns="http://www.w3.org/2000/svg">
<path d="M5.25 8.75H6.41667V5.25H5.25V8.75ZM5.83333 0C2.61333 0 0 2.61333 0 5.83333C0 9.05333 2.61333 11.6667 5.83333 11.6667C9.05333 11.6667 11.6667 9.05333 11.6667 5.83333C11.6667 2.61333 9.05333 0 5.83333 0ZM5.83333 10.5C3.26083 10.5 1.16667 8.40583 1.16667 5.83333C1.16667 3.26083 3.26083 1.16667 5.83333 1.16667C8.40583 1.16667 10.5 3.26083 10.5 5.83333C10.5 8.40583 8.40583 10.5 5.83333 10.5ZM5.25 4.08333H6.41667V2.91667H5.25V4.08333Z" transform="translate(1.39355 1.1667)" fill="#8FA9B0"/>
</svg>
