<svg width="20" height="18" viewBox="0 0 20 18" fill="none" xmlns="http://www.w3.org/2000/svg">
<path d="M20 2.13095C19.2642 2.49272 18.4733 2.73636 17.6433 2.84619C18.4908 2.28415 19.1417 1.39356 19.4475 0.33224C18.655 0.852748 17.7767 1.23113 16.8417 1.43509C16.0942 0.551887 15.0267 -8.62532e-08 13.8467 -8.62532e-08C11.1975 -8.62532e-08 9.25083 2.73728 9.84917 5.57886C6.44 5.38966 3.41667 3.5808 1.3925 0.831522C0.3175 2.87387 0.835 5.54563 2.66167 6.89858C1.99 6.87459 1.35667 6.67063 0.804167 6.33009C0.759167 8.43519 2.12167 10.4046 4.095 10.843C3.5175 11.0165 2.885 11.0571 2.24167 10.9205C2.76333 12.7257 4.27833 14.039 6.075 14.0759C4.35 15.5737 2.17667 16.2428 0 15.9586C1.81583 17.2478 3.97333 18 6.29 18C13.9083 18 18.2125 10.8744 17.9525 4.48339C18.7542 3.84198 19.45 3.04184 20 2.13095Z" fill="#1DA1F2"/>
</svg>
